
<svg width="19" height="18" viewBox="0 0 19 18" fill="none" xmlns="http://www.w3.org/2000/svg">
<g clip-path="url(#clip0_82_179)">
<path d="M18.4772 5.415C18.425 3.57583 17.5922 2.06416 16.4141 1.13999C14.8989 -0.0500057 12.8097 -0.268339 11.0732 1.02999C10.5001 1.45999 9.96372 2.05499 9.5 2.83666C9.03628 2.05499 8.50072 1.45999 7.92678 1.03083C6.19029 -0.268339 4.10192 -0.0500058 2.58585 1.14083C1.40696 2.06499 0.575046 3.57666 0.522796 5.41583C0.494222 6.3925 0.641174 7.4825 1.16612 8.585C1.99069 10.3158 5.86454 14.1642 9.46979 17.4875L9.49837 17.5192L9.5 17.5175L9.50163 17.5192L9.53102 17.4875C13.1355 14.165 17.0085 10.3167 17.8339 8.585C18.3596 7.4825 18.505 6.39166 18.4772 5.415Z" fill="#FE0000"/>
</g>
<defs>
<clipPath id="clip0_82_179">
<rect width="19" height="18" fill="white"/>
</clipPath>
</defs>
</svg>
