<svg width="38" height="35" viewBox="0 0 38 35" fill="none" xmlns="http://www.w3.org/2000/svg">
<path d="M36.9544 10.5292C36.8499 6.95301 35.1844 4.01366 32.8283 2.21667C29.7978 -0.0972223 25.6194 -0.521759 22.1464 2.00278C21.0002 2.83889 19.9274 3.99583 19 5.51574C18.0726 3.99583 17.0014 2.83889 15.8536 2.0044C12.3806 -0.52176 8.20384 -0.0972225 5.17171 2.21829C2.81393 4.01528 1.15009 6.95463 1.04559 10.5308C0.988443 12.4299 1.28235 14.5493 2.33225 16.6931C3.98139 20.0586 11.7291 27.5414 18.9396 34.0035L18.9967 34.0651L19 34.0618L19.0033 34.0651L19.062 34.0035C26.2709 27.5431 34.017 20.0602 35.6677 16.6931C36.7193 14.5493 37.0099 12.4282 36.9544 10.5292Z" fill="#FE0000"/>
</svg>
