<svg width="260" height="202" viewBox="0 0 260 202" fill="none" xmlns="http://www.w3.org/2000/svg">
<path d="M0.902832 95.4969H14.5939L61.0641 65.7383L0.902832 95.4969Z" fill="#BF1B2C"/>
<path d="M28.6531 95.4969H41.0314L62.0412 65.7383L28.6531 95.4969Z" fill="#BF1B2C"/>
<path d="M124.428 95.4969H110.509L64.0369 65.7383L124.428 95.4969Z" fill="#BF1B2C"/>
<path d="M96.4499 95.4969H84.0697L63.0618 65.7383L96.4499 95.4969Z" fill="#BF1B2C"/>
<path d="M54.4701 95.4969H67.6546L62.6236 65.7383L54.4701 95.4969Z" fill="#BF1B2C"/>
<path d="M34.4372 105.135C38.0795 105.135 41.0313 101.641 41.0313 97.3311H27.8468C27.8468 101.641 30.7986 105.135 34.4372 105.135Z" fill="#BF1B2C"/>
<path d="M7.4932 105.135C11.1355 105.135 14.0836 101.641 14.0836 97.3311H0.902832C0.902832 101.641 3.85085 105.135 7.4932 105.135Z" fill="#BF1B2C"/>
<path d="M61.0643 105.135C64.7028 105.135 67.6546 101.641 67.6546 97.3311H54.4701C54.4701 101.641 57.4219 105.135 61.0643 105.135Z" fill="#BF1B2C"/>
<path d="M91.0832 105.135C94.7255 105.135 97.6773 101.641 97.6773 97.3311H84.4928C84.4928 101.641 87.4408 105.135 91.0832 105.135Z" fill="#BF1B2C"/>
<path d="M117.832 105.135C121.474 105.135 124.428 101.641 124.428 97.3311H111.241C111.241 101.641 114.195 105.135 117.832 105.135Z" fill="#BF1B2C"/>
<path d="M66.9602 33.3967L66.1104 19.4639L92.671 25.4198L66.9602 33.3967Z" fill="#BF1B2C"/>
<path d="M63.9402 61.9373H62.1816V16.5156H63.9402V61.9373Z" fill="#BF1B2C"/>
<path d="M135.398 95.6202H149.088L195.56 65.8616L135.398 95.6202Z" fill="#BF1B2C"/>
<path d="M163.148 95.6202H175.527L196.537 65.8616L163.148 95.6202Z" fill="#BF1B2C"/>
<path d="M258.921 95.6202H245.003L198.532 65.8616L258.921 95.6202Z" fill="#BF1B2C"/>
<path d="M230.944 95.6202H218.565L197.555 65.8616L230.944 95.6202Z" fill="#BF1B2C"/>
<path d="M188.966 95.6202H202.15L197.119 65.8616L188.966 95.6202Z" fill="#BF1B2C"/>
<path d="M168.936 105.258C172.575 105.258 175.527 101.764 175.527 97.4514H162.342C162.342 101.764 165.294 105.258 168.936 105.258Z" fill="#BF1B2C"/>
<path d="M141.989 105.258C145.631 105.258 148.583 101.764 148.583 97.4514H135.398C135.398 101.764 138.346 105.258 141.989 105.258Z" fill="#BF1B2C"/>
<path d="M195.56 105.258C199.196 105.258 202.15 101.764 202.15 97.4514H188.966C188.966 101.764 191.917 105.258 195.56 105.258Z" fill="#BF1B2C"/>
<path d="M225.577 105.258C229.219 105.258 232.173 101.764 232.173 97.4514H218.986C218.986 101.764 221.934 105.258 225.577 105.258Z" fill="#BF1B2C"/>
<path d="M252.327 105.258C255.97 105.258 258.921 101.764 258.921 97.4514H245.737C245.737 101.764 248.689 105.258 252.327 105.258Z" fill="#BF1B2C"/>
<path d="M201.174 33.3967L200.324 19.4639L226.883 25.4198L201.174 33.3967Z" fill="#BF1B2C"/>
<path d="M198.436 62.0606H196.677V16.6389H198.436V62.0606Z" fill="#BF1B2C"/>
<path d="M95.8999 78.9843H108.28L129.288 49.2227L95.8999 78.9843Z" fill="#BF1B2C"/>
<path d="M163.697 78.9843H151.317L130.309 49.2227L163.697 78.9843Z" fill="#BF1B2C"/>
<path d="M121.717 78.9843H134.903L129.87 49.2227L121.717 78.9843Z" fill="#BF1B2C"/>
<path d="M128.313 88.6221C131.95 88.6221 134.903 85.1254 134.903 80.8154H121.717C121.717 85.1254 124.671 88.6221 128.313 88.6221Z" fill="#BF1B2C"/>
<path d="M128.313 49.2227L81.6814 72.2889L87.678 75.245L128.313 49.2227Z" fill="#BF1B2C"/>
<path d="M131.284 49.2227L172.065 75.3384L178.16 72.3235L131.284 49.2227Z" fill="#BF1B2C"/>
<path d="M108.28 80.8154H98.9788L107.299 84.9146C107.92 83.7234 108.28 82.3198 108.28 80.8154Z" fill="#BF1B2C"/>
<path d="M151.74 80.8154C151.74 82.3153 152.1 83.7189 152.717 84.9055L160.992 80.8154H151.74Z" fill="#BF1B2C"/>
<path d="M133.073 16.83L132.223 2.89722L158.782 8.85767L133.073 16.83Z" fill="#BF1B2C"/>
<path d="M131.187 45.4217H129.428V0H131.187V45.4217Z" fill="#BF1B2C"/>
<path d="M248.29 168.891L129.91 194.728L11.5341 168.891V121.704L129.91 102.474L248.29 121.704V168.891ZM129.91 95.6201L0 116.723V173.433L129.91 201.783L259.821 173.433V116.723L129.91 95.6201Z" fill="#BF1B2C"/>
<path d="M133.369 99.0432C133.369 100.138 131.824 101.02 129.91 101.02C128.002 101.02 126.452 100.138 126.452 99.0432C126.452 97.9514 128.002 97.0659 129.91 97.0659C131.824 97.0659 133.369 97.9514 133.369 99.0432Z" fill="#F6C90D"/>
<path d="M111.397 99.9226C109.485 99.9226 107.935 100.808 107.935 101.9C107.935 102.995 109.485 103.882 111.397 103.882C113.305 103.882 114.855 102.995 114.855 101.9C114.855 100.808 113.305 99.9226 111.397 99.9226Z" fill="#F6C90D"/>
<path d="M93.8663 102.999C91.9579 102.999 90.408 103.885 90.408 104.98C90.408 106.071 91.9579 106.958 93.8663 106.958C95.7747 106.958 97.3227 106.071 97.3227 104.98C97.3227 103.885 95.7747 102.999 93.8663 102.999Z" fill="#F6C90D"/>
<path d="M76.3336 105.639C74.4251 105.639 72.8752 106.522 72.8752 107.616C72.8752 108.708 74.4251 109.595 76.3336 109.595C78.2477 109.595 79.7957 108.708 79.7957 107.616C79.7957 106.522 78.2477 105.639 76.3336 105.639Z" fill="#F6C90D"/>
<path d="M58.8066 108.496C56.8925 108.496 55.3445 109.383 55.3445 110.473C55.3445 111.565 56.8925 112.452 58.8066 112.452C60.715 112.452 62.2649 111.565 62.2649 110.473C62.2649 109.383 60.715 108.496 58.8066 108.496Z" fill="#F6C90D"/>
<path d="M41.2741 111.133C39.3656 111.133 37.8176 112.02 37.8176 113.11C37.8176 114.205 39.3656 115.089 41.2741 115.089C43.1825 115.089 44.7324 114.205 44.7324 113.11C44.7324 112.02 43.1825 111.133 41.2741 111.133Z" fill="#F6C90D"/>
<path d="M23.7435 114.209C21.835 114.209 20.2852 115.096 20.2852 116.187C20.2852 117.282 21.835 118.169 23.7435 118.169C25.6557 118.169 27.2056 117.282 27.2056 116.187C27.2056 115.096 25.6557 114.209 23.7435 114.209Z" fill="#F6C90D"/>
<path d="M236.208 114.541C234.299 114.541 232.75 115.428 232.75 116.518C232.75 117.61 234.299 118.497 236.208 118.497C238.116 118.497 239.666 117.61 239.666 116.518C239.666 115.428 238.116 114.541 236.208 114.541Z" fill="#F6C90D"/>
<path d="M218.677 111.464C216.769 111.464 215.219 112.348 215.219 113.443C215.219 114.533 216.769 115.42 218.677 115.42C220.589 115.42 222.139 114.533 222.139 113.443C222.139 112.348 220.589 111.464 218.677 111.464Z" fill="#F6C90D"/>
<path d="M201.15 108.824C199.236 108.824 197.686 109.71 197.686 110.806C197.686 111.896 199.236 112.783 201.15 112.783C203.059 112.783 204.607 111.896 204.607 110.806C204.607 109.71 203.059 108.824 201.15 108.824Z" fill="#F6C90D"/>
<path d="M183.618 105.968C181.709 105.968 180.159 106.855 180.159 107.945C180.159 109.04 181.709 109.922 183.618 109.922C185.526 109.922 187.076 109.04 187.076 107.945C187.076 106.855 185.526 105.968 183.618 105.968Z" fill="#F6C90D"/>
<path d="M166.085 103.331C164.177 103.331 162.629 104.216 162.629 105.308C162.629 106.403 164.177 107.285 166.085 107.285C167.999 107.285 169.549 106.403 169.549 105.308C169.549 104.216 167.999 103.331 166.085 103.331Z" fill="#F6C90D"/>
<path d="M148.558 100.254C146.646 100.254 145.096 101.141 145.096 102.231C145.096 103.323 146.646 104.208 148.558 104.208C150.467 104.208 152.017 103.323 152.017 102.231C152.017 101.141 150.467 100.254 148.558 100.254Z" fill="#F6C90D"/>
<path d="M235.29 173.24C233.387 173.336 231.983 174.296 232.154 175.383C232.323 176.475 233.998 177.276 235.903 177.18C237.805 177.083 239.209 176.124 239.044 175.032C238.875 173.945 237.194 173.144 235.29 173.24Z" fill="#F6C90D"/>
<path d="M218.307 177.192C216.405 177.288 215.001 178.252 215.166 179.339C215.335 180.426 217.015 181.232 218.92 181.136C220.823 181.035 222.227 180.076 222.056 178.988C221.887 177.901 220.212 177.095 218.307 177.192Z" fill="#F6C90D"/>
<path d="M201.257 180.707C199.352 180.807 197.944 181.767 198.115 182.854C198.284 183.941 199.965 184.747 201.867 184.651C203.772 184.551 205.176 183.59 205.005 182.503C204.836 181.416 203.155 180.61 201.257 180.707Z" fill="#F6C90D"/>
<path d="M184.234 184.443C182.332 184.539 180.928 185.503 181.097 186.59C181.267 187.677 182.948 188.483 184.851 188.387C186.75 188.286 188.159 187.326 187.989 186.239C187.818 185.152 186.139 184.346 184.234 184.443Z" fill="#F6C90D"/>
<path d="M167.184 187.959C165.279 188.055 163.877 189.019 164.046 190.106C164.217 191.194 165.897 191.999 167.794 191.898C169.699 191.802 171.107 190.843 170.938 189.756C170.767 188.668 169.086 187.863 167.184 187.959Z" fill="#F6C90D"/>
<path d="M150.201 191.914C148.296 192.01 146.893 192.971 147.063 194.058C147.228 195.148 148.909 195.951 150.812 195.855C152.717 195.758 154.12 194.797 153.95 193.71C153.785 192.62 152.104 191.817 150.201 191.914Z" fill="#F6C90D"/>
<path d="M110.31 192.257C108.411 192.15 106.715 192.947 106.531 194.034C106.347 195.121 107.736 196.09 109.638 196.193C111.543 196.302 113.233 195.504 113.417 194.419C113.601 193.329 112.213 192.361 110.31 192.257Z" fill="#F6C90D"/>
<path d="M93.3844 188.221C91.4854 188.113 89.7951 188.911 89.6054 189.998C89.4214 191.085 90.8157 192.054 92.7147 192.158C94.6174 192.264 96.3077 191.471 96.4936 190.379C96.6776 189.293 95.289 188.329 93.3844 188.221Z" fill="#F6C90D"/>
<path d="M76.3867 184.62C74.484 184.517 72.7937 185.31 72.6078 186.397C72.4238 187.485 73.8124 188.452 75.7171 188.56C77.616 188.664 79.3101 187.87 79.496 186.783C79.68 185.696 78.2914 184.729 76.3867 184.62Z" fill="#F6C90D"/>
<path d="M59.4232 180.803C57.5243 180.699 55.8302 181.494 55.6443 182.581C55.4603 183.669 56.8489 184.635 58.7536 184.744C60.6563 184.848 62.3466 184.054 62.5306 182.967C62.7165 181.88 61.3279 180.911 59.4232 180.803Z" fill="#F6C90D"/>
<path d="M42.4257 177.207C40.5229 177.098 38.8326 177.893 38.6467 178.984C38.4627 180.071 39.8514 181.039 41.756 181.143C43.655 181.25 45.349 180.452 45.533 179.366C45.719 178.279 44.3303 177.311 42.4257 177.207Z" fill="#F6C90D"/>
<path d="M25.5002 173.171C23.5974 173.062 21.9072 173.856 21.7232 174.948C21.5391 176.035 22.9278 177.002 24.8305 177.106C26.7295 177.214 28.4254 176.416 28.6095 175.329C28.7935 174.242 27.4048 173.275 25.5002 173.171Z" fill="#F6C90D"/>
<path d="M253.754 121.465C255.664 121.465 257.212 120.578 257.212 119.488C257.212 118.393 255.664 117.509 253.754 117.509C251.842 117.509 250.292 118.393 250.292 119.488C250.292 120.578 251.842 121.465 253.754 121.465Z" fill="#F6C90D"/>
<path d="M253.754 168.501C251.842 168.501 250.292 169.388 250.292 170.48C250.292 171.57 251.842 172.457 253.754 172.457C255.664 172.457 257.212 171.57 257.212 170.48C257.212 169.388 255.664 168.501 253.754 168.501Z" fill="#F6C90D"/>
<path d="M253.754 142.649C251.842 142.649 250.292 143.536 250.292 144.63C250.292 145.721 251.842 146.608 253.754 146.608C255.664 146.608 257.212 145.721 257.212 144.63C257.212 143.536 255.664 142.649 253.754 142.649Z" fill="#F6C90D"/>
<path d="M253.754 129.931C251.842 129.931 250.292 130.814 250.292 131.908C250.292 132.999 251.842 133.886 253.754 133.886C255.664 133.886 257.212 132.999 257.212 131.908C257.212 130.814 255.664 129.931 253.754 129.931Z" fill="#F6C90D"/>
<path d="M253.754 156.226C251.842 156.226 250.292 157.113 250.292 158.205C250.292 159.3 251.842 160.187 253.754 160.187C255.664 160.187 257.212 159.3 257.212 158.205C257.212 157.113 255.664 156.226 253.754 156.226Z" fill="#F6C90D"/>
<path d="M5.85233 121.11C7.76076 121.11 9.30876 120.224 9.30876 119.132C9.30876 118.038 7.76076 117.155 5.85233 117.155C3.9382 117.155 2.38831 118.038 2.38831 119.132C2.38831 120.224 3.9382 121.11 5.85233 121.11Z" fill="#F6C90D"/>
<path d="M5.85233 168.147C3.9382 168.147 2.38831 169.034 2.38831 170.124C2.38831 171.219 3.9382 172.103 5.85233 172.103C7.76076 172.103 9.30876 171.219 9.30876 170.124C9.30876 169.034 7.76076 168.147 5.85233 168.147Z" fill="#F6C90D"/>
<path d="M5.85233 142.298C3.9382 142.298 2.38831 143.18 2.38831 144.275C2.38831 145.367 3.9382 146.254 5.85233 146.254C7.76076 146.254 9.30876 145.367 9.30876 144.275C9.30876 143.18 7.76076 142.298 5.85233 142.298Z" fill="#F6C90D"/>
<path d="M5.85233 129.576C3.9382 129.576 2.38831 130.463 2.38831 131.553C2.38831 132.645 3.9382 133.532 5.85233 133.532C7.76076 133.532 9.30876 132.645 9.30876 131.553C9.30876 130.463 7.76076 129.576 5.85233 129.576Z" fill="#F6C90D"/>
<path d="M5.85233 155.872C3.9382 155.872 2.38831 156.759 2.38831 157.854C2.38831 158.944 3.9382 159.831 5.85233 159.831C7.76076 159.831 9.30876 158.944 9.30876 157.854C9.30876 156.759 7.76076 155.872 5.85233 155.872Z" fill="#F6C90D"/>
<path d="M133.369 198.541C133.369 199.636 131.824 200.519 129.91 200.519C128.002 200.519 126.452 199.636 126.452 198.541C126.452 197.451 128.002 196.564 129.91 196.564C131.824 196.564 133.369 197.451 133.369 198.541Z" fill="#F6C90D"/>
<g filter="url(#filter0_d_142_11889)">
<path d="M18.2129 135.914C18.2129 135.606 18.2393 135.338 18.292 135.11C18.3447 134.881 18.4458 134.692 18.5952 134.543C18.7446 134.385 18.9512 134.266 19.2148 134.187C19.4785 134.108 19.8213 134.068 20.2432 134.068H26.123C26.7295 134.068 27.3315 134.108 27.9292 134.187C28.5269 134.257 29.0981 134.38 29.6431 134.556C30.1968 134.732 30.7065 134.96 31.1724 135.242C31.647 135.523 32.0557 135.875 32.3984 136.296C32.75 136.709 33.0225 137.197 33.2158 137.76C33.418 138.313 33.519 138.955 33.519 139.685C33.519 140.766 33.3696 141.68 33.0708 142.427C32.7808 143.165 32.3853 143.776 31.8843 144.259C31.3833 144.743 30.7988 145.112 30.1309 145.367C29.4717 145.622 28.7773 145.806 28.0479 145.92V150.864C28.0479 151.066 28.0303 151.291 27.9951 151.537C27.96 151.783 27.8721 152.016 27.7314 152.235C27.5908 152.446 27.3755 152.626 27.0854 152.776C26.7954 152.925 26.3955 153 25.8857 153H20.2432C19.8213 153 19.4785 152.96 19.2148 152.881C18.9512 152.802 18.7446 152.688 18.5952 152.539C18.4458 152.389 18.3447 152.2 18.292 151.972C18.2393 151.743 18.2129 151.475 18.2129 151.167V135.914ZM31.6602 139.882C31.6602 139.355 31.5898 138.872 31.4492 138.432C31.3086 137.984 31.0933 137.593 30.8032 137.259C30.5132 136.925 30.1396 136.648 29.6826 136.428C29.2256 136.208 28.6807 136.059 28.0479 135.98V144.167C28.6807 144.07 29.2256 143.895 29.6826 143.64C30.1396 143.385 30.5132 143.068 30.8032 142.69C31.0933 142.312 31.3086 141.886 31.4492 141.412C31.5898 140.928 31.6602 140.418 31.6602 139.882ZM26.9272 135.822C26.7515 135.813 26.5669 135.809 26.3735 135.809C26.189 135.8 26.0308 135.795 25.8989 135.795V151.893C26.1099 151.893 26.2812 151.888 26.4131 151.879C26.5449 151.862 26.6504 151.827 26.7295 151.774C26.8086 151.712 26.8613 151.629 26.8877 151.523C26.9141 151.409 26.9272 151.251 26.9272 151.049V135.822ZM42.4971 153.461C41.8379 153.461 41.1787 153.409 40.5195 153.303C39.8604 153.198 39.2275 153.031 38.6211 152.802C38.0234 152.574 37.4653 152.275 36.9468 151.906C36.4282 151.537 35.9756 151.084 35.5889 150.548C35.2109 150.012 34.9121 149.392 34.6924 148.689C34.4727 147.977 34.3628 147.164 34.3628 146.25C34.3628 145.354 34.4727 144.554 34.6924 143.851C34.9121 143.139 35.2109 142.515 35.5889 141.979C35.9756 141.442 36.4282 140.99 36.9468 140.621C37.4653 140.243 38.0234 139.939 38.6211 139.711C39.2275 139.474 39.8604 139.302 40.5195 139.197C41.1787 139.091 41.8379 139.039 42.4971 139.039C43.1035 139.039 43.7231 139.078 44.356 139.157C44.9976 139.228 45.6172 139.364 46.2148 139.566C46.8213 139.759 47.3882 140.027 47.9155 140.37C48.4517 140.704 48.9175 141.135 49.313 141.662C49.7173 142.189 50.0337 142.822 50.2622 143.561C50.4995 144.29 50.6182 145.151 50.6182 146.145C50.6182 147.164 50.5039 148.056 50.2754 148.821C50.0469 149.577 49.7305 150.227 49.3262 150.772C48.9307 151.308 48.4692 151.752 47.9419 152.104C47.4146 152.455 46.8477 152.732 46.2412 152.934C45.6436 153.127 45.0239 153.264 44.3823 153.343C43.7407 153.422 43.1123 153.461 42.4971 153.461ZM46.5444 150.297C46.8169 150.297 47.085 150.24 47.3486 150.126C47.6211 150.003 47.8584 149.788 48.0605 149.48C48.2715 149.172 48.4385 148.75 48.5615 148.214C48.6934 147.669 48.7593 146.979 48.7593 146.145C48.7593 145.354 48.6934 144.703 48.5615 144.193C48.4385 143.684 48.2715 143.284 48.0605 142.994C47.8496 142.695 47.6123 142.488 47.3486 142.374C47.085 142.26 46.8169 142.203 46.5444 142.203C46.3335 142.203 46.0962 142.247 45.8325 142.334C45.5776 142.422 45.3359 142.611 45.1074 142.901C44.8877 143.183 44.7031 143.591 44.5537 144.127C44.4043 144.655 44.3296 145.362 44.3296 146.25C44.3296 147.138 44.3911 147.85 44.5142 148.386C44.6372 148.922 44.7998 149.331 45.002 149.612C45.2041 149.893 45.437 150.078 45.7007 150.166C45.9731 150.253 46.2544 150.297 46.5444 150.297ZM45.5557 150.825C45.2656 150.772 44.98 150.671 44.6987 150.521C44.4175 150.372 44.167 150.13 43.9473 149.796C43.7275 149.454 43.5474 149.001 43.4067 148.438C43.2749 147.867 43.209 147.138 43.209 146.25C43.209 145.661 43.2441 145.143 43.3145 144.694C43.3936 144.246 43.4946 143.859 43.6177 143.534C43.7495 143.209 43.8989 142.937 44.0659 142.717C44.2329 142.497 44.3999 142.317 44.5669 142.176C44.7427 142.027 44.9141 141.917 45.0811 141.847C45.2568 141.768 45.415 141.71 45.5557 141.675C45.248 141.675 44.8965 141.746 44.501 141.886C44.1055 142.018 43.7319 142.255 43.3804 142.598C43.0288 142.941 42.73 143.411 42.4839 144.009C42.2466 144.598 42.1279 145.345 42.1279 146.25C42.1279 147.164 42.2334 147.916 42.4443 148.504C42.6553 149.093 42.9233 149.559 43.2485 149.902C43.5825 150.245 43.9517 150.486 44.356 150.627C44.769 150.759 45.1689 150.825 45.5557 150.825ZM60.1104 139.197C60.7607 139.197 61.4067 139.245 62.0483 139.342C62.6899 139.438 63.3052 139.597 63.894 139.816C64.4829 140.036 65.0278 140.322 65.5288 140.673C66.0298 141.025 66.4648 141.46 66.834 141.979C67.2031 142.497 67.4932 143.104 67.7041 143.798C67.915 144.483 68.0205 145.274 68.0205 146.171C68.0205 147.278 67.8623 148.236 67.5459 149.045C67.2295 149.845 66.8076 150.517 66.2803 151.062C65.7529 151.607 65.1421 152.038 64.4478 152.354C63.7534 152.662 63.0239 152.877 62.2593 153V156.586C62.2593 156.902 62.2329 157.175 62.1802 157.403C62.1274 157.632 62.0308 157.821 61.8901 157.97C61.7583 158.128 61.5649 158.243 61.3101 158.313C61.064 158.392 60.7432 158.432 60.3477 158.432H54.5732C54.1514 158.432 53.8086 158.392 53.5449 158.313C53.2812 158.234 53.0747 158.115 52.9253 157.957C52.7759 157.808 52.6748 157.619 52.6221 157.39C52.5693 157.162 52.543 156.894 52.543 156.586V146.039C52.543 144.949 52.71 143.978 53.0439 143.125C53.3867 142.273 53.8789 141.557 54.5205 140.977C55.1709 140.396 55.9619 139.957 56.8936 139.658C57.834 139.351 58.9062 139.197 60.1104 139.197ZM66.1484 146.158C66.1484 145.481 66.0737 144.853 65.9243 144.272C65.7749 143.692 65.542 143.178 65.2256 142.73C64.9092 142.282 64.5049 141.917 64.0127 141.636C63.5293 141.346 62.9448 141.161 62.2593 141.082V151.312C62.9448 151.225 63.5293 151.036 64.0127 150.746C64.5049 150.456 64.9092 150.082 65.2256 149.625C65.542 149.168 65.7749 148.645 65.9243 148.056C66.0737 147.467 66.1484 146.834 66.1484 146.158ZM61.1519 140.937C61.0815 140.928 60.998 140.919 60.9014 140.911C60.8047 140.902 60.7036 140.893 60.5981 140.884C60.5015 140.875 60.4092 140.871 60.3213 140.871C60.2334 140.871 60.1675 140.871 60.1235 140.871L60.1104 157.324C60.3213 157.324 60.4927 157.315 60.6245 157.298C60.7563 157.289 60.8618 157.254 60.9409 157.192C61.02 157.14 61.0728 157.056 61.0991 156.942C61.1255 156.836 61.1387 156.683 61.1387 156.48L61.1519 140.937ZM77.104 143.824C76.9194 143.824 76.8271 143.728 76.8271 143.534V142.479C76.8271 142.295 76.9194 142.203 77.104 142.203H78.4751V139.21C78.4751 139.078 78.4927 138.946 78.5278 138.814C78.5718 138.683 78.6816 138.582 78.8574 138.511L86.1348 135.822C86.4688 135.699 86.7456 135.606 86.9653 135.545C87.1851 135.483 87.3784 135.453 87.5454 135.453C87.6069 135.453 87.6729 135.466 87.7432 135.492C87.8223 135.51 87.8926 135.545 87.9541 135.598C88.0244 135.65 88.0815 135.725 88.1255 135.822C88.1694 135.91 88.1914 136.02 88.1914 136.151V142.203H90.5645C90.749 142.203 90.8413 142.295 90.8413 142.479V143.534C90.8413 143.728 90.749 143.824 90.5645 143.824H88.1914V149.137C88.1914 149.761 88.2925 150.201 88.4946 150.456C88.7056 150.71 89.0264 150.838 89.457 150.838C89.5537 150.838 89.6548 150.829 89.7603 150.812C89.8657 150.785 89.9624 150.763 90.0503 150.746C90.147 150.719 90.2349 150.697 90.314 150.68C90.3931 150.653 90.459 150.64 90.5117 150.64C90.6084 150.64 90.6567 150.697 90.6567 150.812V151.827C90.6567 152.002 90.6216 152.121 90.5513 152.183C90.481 152.244 90.4194 152.284 90.3667 152.301C90.0327 152.442 89.6372 152.583 89.1802 152.723C88.7319 152.864 88.2441 152.987 87.7168 153.092C87.1982 153.207 86.6489 153.294 86.0688 153.356C85.4888 153.426 84.9087 153.461 84.3286 153.461C83.4937 153.461 82.7158 153.417 81.9951 153.33C81.2832 153.25 80.6636 153.062 80.1362 152.763C79.6177 152.464 79.209 152.02 78.9102 151.431C78.6201 150.842 78.4751 150.042 78.4751 149.032V143.824H77.104ZM87.0708 137.338C87.0708 137.162 87.0488 137.021 87.0049 136.916C86.9697 136.802 86.8774 136.745 86.728 136.745C86.6753 136.745 86.605 136.753 86.5171 136.771C86.438 136.789 86.3501 136.819 86.2534 136.863L86.0425 136.956V149.48C86.0425 149.875 86.1084 150.196 86.2402 150.442C86.3721 150.688 86.5347 150.882 86.728 151.022C86.9214 151.163 87.1279 151.26 87.3477 151.312C87.5674 151.356 87.7651 151.378 87.9409 151.378C87.8091 151.273 87.686 151.167 87.5718 151.062C87.4663 150.948 87.374 150.82 87.2949 150.68C87.2246 150.53 87.1675 150.368 87.1235 150.192C87.0884 150.007 87.0708 149.788 87.0708 149.533V137.338ZM102.575 139.75C102.768 139.601 103.001 139.478 103.273 139.381C103.546 139.285 103.845 139.236 104.17 139.236C105.014 139.236 105.668 139.526 106.134 140.106C106.609 140.687 106.846 141.539 106.846 142.664V152.38C106.846 152.53 106.824 152.648 106.78 152.736C106.745 152.815 106.697 152.877 106.635 152.921C106.583 152.956 106.517 152.978 106.438 152.987C106.358 152.996 106.279 153 106.2 153H105.356C105.128 153 104.979 152.934 104.908 152.802C104.847 152.67 104.816 152.53 104.816 152.38V142.532C104.816 142.031 104.724 141.649 104.539 141.385C104.363 141.122 104.078 140.99 103.682 140.99C103.48 140.99 103.273 141.047 103.062 141.161C102.86 141.267 102.698 141.381 102.575 141.504V151.154C102.575 151.462 102.557 151.73 102.522 151.958C102.487 152.187 102.403 152.38 102.271 152.539C102.14 152.688 101.951 152.802 101.705 152.881C101.458 152.96 101.125 153 100.703 153H94.5986C94.2559 153 93.9702 152.96 93.7417 152.881C93.522 152.802 93.3462 152.688 93.2144 152.539C93.0825 152.389 92.9902 152.2 92.9375 151.972C92.8848 151.743 92.8584 151.475 92.8584 151.167V133.238C92.8584 132.939 92.8848 132.675 92.9375 132.447C92.9902 132.209 93.0913 132.016 93.2407 131.867C93.3901 131.717 93.5967 131.603 93.8604 131.524C94.124 131.445 94.4668 131.405 94.8887 131.405H100.663C101.059 131.405 101.379 131.44 101.625 131.511C101.88 131.581 102.078 131.695 102.219 131.854C102.359 132.003 102.452 132.192 102.496 132.42C102.548 132.649 102.575 132.921 102.575 133.238V139.75ZM101.454 133.356C101.454 133.163 101.441 133.009 101.415 132.895C101.388 132.781 101.335 132.697 101.256 132.645C101.177 132.583 101.072 132.548 100.94 132.539C100.808 132.521 100.637 132.513 100.426 132.513V151.893C100.637 151.893 100.808 151.888 100.94 151.879C101.072 151.862 101.177 151.827 101.256 151.774C101.335 151.712 101.388 151.629 101.415 151.523C101.441 151.409 101.454 151.251 101.454 151.049V133.356ZM121.229 150.812C121.467 150.812 121.682 150.781 121.875 150.719C122.069 150.649 122.24 150.574 122.39 150.495C122.548 150.416 122.675 150.346 122.772 150.284C122.877 150.214 122.957 150.179 123.009 150.179C123.088 150.179 123.141 150.192 123.167 150.218C123.203 150.245 123.242 150.293 123.286 150.363L123.748 151.075C123.792 151.146 123.813 151.207 123.813 151.26C123.813 151.321 123.796 151.37 123.761 151.405C123.726 151.44 123.69 151.471 123.655 151.497C123.365 151.699 123.009 151.919 122.587 152.156C122.166 152.385 121.673 152.596 121.111 152.789C120.557 152.982 119.929 153.141 119.226 153.264C118.522 153.396 117.749 153.461 116.905 153.461C116.246 153.461 115.587 153.409 114.928 153.303C114.269 153.198 113.636 153.031 113.029 152.802C112.432 152.574 111.874 152.275 111.355 151.906C110.836 151.537 110.384 151.084 109.997 150.548C109.619 150.012 109.32 149.392 109.101 148.689C108.881 147.977 108.771 147.164 108.771 146.25C108.771 145.354 108.881 144.554 109.101 143.851C109.32 143.139 109.619 142.515 109.997 141.979C110.384 141.442 110.836 140.99 111.355 140.621C111.874 140.243 112.432 139.939 113.029 139.711C113.636 139.474 114.269 139.302 114.928 139.197C115.587 139.091 116.246 139.039 116.905 139.039C118.004 139.039 119.023 139.162 119.964 139.408C120.913 139.654 121.735 140.058 122.429 140.621C123.124 141.183 123.668 141.921 124.064 142.835C124.459 143.75 124.657 144.87 124.657 146.197V146.936C124.657 147.094 124.618 147.217 124.539 147.305C124.459 147.393 124.328 147.437 124.143 147.437H118.685C118.755 148.087 118.878 148.632 119.054 149.071C119.239 149.502 119.445 149.849 119.674 150.113C119.911 150.368 120.166 150.548 120.438 150.653C120.711 150.759 120.975 150.812 121.229 150.812ZM122.785 145.815C122.785 145.112 122.728 144.532 122.614 144.075C122.508 143.609 122.363 143.24 122.179 142.967C121.994 142.686 121.774 142.488 121.52 142.374C121.273 142.26 121.014 142.203 120.742 142.203C120.54 142.203 120.32 142.242 120.083 142.321C119.845 142.4 119.621 142.567 119.41 142.822C119.208 143.077 119.032 143.442 118.883 143.917C118.742 144.391 118.659 145.024 118.632 145.815H122.785ZM120.359 151.55C120.078 151.488 119.771 151.365 119.437 151.181C119.103 150.987 118.791 150.693 118.5 150.297C118.21 149.902 117.969 149.383 117.775 148.742C117.582 148.1 117.485 147.296 117.485 146.329C117.485 145.441 117.569 144.69 117.736 144.075C117.912 143.459 118.136 142.954 118.408 142.559C118.681 142.163 118.988 141.869 119.331 141.675C119.674 141.473 120.017 141.346 120.359 141.293C119.832 141.311 119.327 141.416 118.843 141.609C118.369 141.794 117.947 142.088 117.578 142.493C117.217 142.897 116.932 143.416 116.721 144.048C116.51 144.681 116.404 145.441 116.404 146.329C116.404 147.278 116.527 148.087 116.773 148.755C117.02 149.414 117.332 149.955 117.709 150.376C118.096 150.79 118.522 151.088 118.988 151.273C119.454 151.458 119.911 151.55 120.359 151.55ZM134.677 135.914C134.677 135.606 134.703 135.338 134.756 135.11C134.809 134.881 134.91 134.692 135.059 134.543C135.208 134.385 135.415 134.266 135.679 134.187C135.942 134.108 136.285 134.068 136.707 134.068H142.587C143.545 134.068 144.468 134.183 145.355 134.411C146.243 134.64 147.03 135.009 147.715 135.519C148.401 136.028 148.95 136.692 149.363 137.509C149.776 138.318 149.983 139.307 149.983 140.476C149.983 142.11 149.719 143.438 149.192 144.457C148.673 145.477 147.948 146.197 147.017 146.619C147.667 146.83 148.155 147.164 148.48 147.621C148.805 148.069 148.968 148.61 148.968 149.243C148.968 150.06 148.779 150.715 148.401 151.207C148.032 151.699 147.548 152.082 146.951 152.354C146.353 152.618 145.681 152.793 144.934 152.881C144.195 152.96 143.457 153 142.719 153H136.707C136.285 153 135.942 152.96 135.679 152.881C135.415 152.802 135.208 152.688 135.059 152.539C134.91 152.389 134.809 152.2 134.756 151.972C134.703 151.743 134.677 151.475 134.677 151.167V135.914ZM148.124 140.687C148.124 140.054 148.054 139.474 147.913 138.946C147.772 138.41 147.557 137.94 147.267 137.536C146.977 137.131 146.604 136.797 146.146 136.534C145.689 136.27 145.145 136.09 144.512 135.993V145.802C145.145 145.714 145.689 145.521 146.146 145.222C146.604 144.914 146.977 144.532 147.267 144.075C147.557 143.618 147.772 143.099 147.913 142.519C148.054 141.939 148.124 141.328 148.124 140.687ZM144.512 151.167C145.426 151.132 146.085 150.948 146.489 150.614C146.894 150.28 147.096 149.88 147.096 149.414C147.096 149.194 147.047 148.975 146.951 148.755C146.863 148.535 146.713 148.342 146.502 148.175C146.3 147.999 146.032 147.854 145.698 147.74C145.373 147.625 144.978 147.555 144.512 147.529V151.167ZM143.391 135.795C143.259 135.778 143.11 135.765 142.943 135.756C142.776 135.747 142.583 135.743 142.363 135.743V151.26C142.583 151.26 142.789 151.26 142.982 151.26C143.176 151.251 143.312 151.242 143.391 151.233V135.795ZM157.537 153C157.062 153 156.583 152.969 156.1 152.908C155.625 152.846 155.168 152.75 154.729 152.618C154.298 152.477 153.894 152.297 153.516 152.077C153.138 151.857 152.809 151.585 152.527 151.26C152.255 150.935 152.04 150.552 151.881 150.113C151.723 149.673 151.644 149.168 151.644 148.597C151.644 147.832 151.789 147.177 152.079 146.632C152.369 146.087 152.756 145.635 153.239 145.274C153.731 144.914 154.294 144.637 154.927 144.444C155.56 144.25 156.214 144.127 156.891 144.075V143.165C156.891 142.822 156.847 142.55 156.759 142.348C156.671 142.146 156.557 141.996 156.417 141.899C156.285 141.794 156.135 141.728 155.968 141.702C155.81 141.667 155.656 141.649 155.507 141.649C155.331 141.649 155.142 141.675 154.94 141.728C154.747 141.781 154.558 141.847 154.373 141.926C154.188 141.996 154.013 142.075 153.846 142.163C153.679 142.251 153.538 142.33 153.424 142.4C153.371 142.436 153.323 142.466 153.279 142.493C153.235 142.519 153.191 142.532 153.147 142.532C153.068 142.532 152.993 142.475 152.923 142.361L152.475 141.649C152.431 141.587 152.409 141.521 152.409 141.451C152.409 141.381 152.435 141.319 152.488 141.267C152.549 141.214 152.606 141.17 152.659 141.135C152.949 140.933 153.318 140.726 153.767 140.515C154.215 140.304 154.716 140.115 155.27 139.948C155.832 139.781 156.438 139.645 157.089 139.54C157.739 139.434 158.412 139.381 159.106 139.381C159.765 139.381 160.407 139.403 161.031 139.447C161.664 139.491 162.257 139.588 162.811 139.737C163.373 139.878 163.883 140.084 164.34 140.357C164.806 140.621 165.206 140.972 165.54 141.412C165.882 141.851 166.146 142.392 166.331 143.033C166.515 143.675 166.607 144.444 166.607 145.34V151.22C166.607 151.51 166.581 151.77 166.528 151.998C166.476 152.218 166.375 152.402 166.225 152.552C166.076 152.701 165.869 152.815 165.605 152.895C165.342 152.965 164.999 153 164.577 153H157.537ZM156.891 145.749C156.258 145.749 155.727 145.828 155.296 145.986C154.865 146.145 154.518 146.355 154.254 146.619C153.991 146.883 153.802 147.19 153.688 147.542C153.573 147.885 153.516 148.241 153.516 148.61C153.516 148.979 153.573 149.331 153.688 149.665C153.802 149.99 153.991 150.275 154.254 150.521C154.518 150.768 154.865 150.961 155.296 151.102C155.727 151.242 156.258 151.312 156.891 151.312V145.749ZM164.458 151.893C164.669 151.893 164.841 151.888 164.973 151.879C165.104 151.862 165.21 151.827 165.289 151.774C165.368 151.712 165.421 151.629 165.447 151.523C165.474 151.409 165.487 151.251 165.487 151.049V145.05C165.487 144.338 165.412 143.741 165.263 143.257C165.113 142.765 164.924 142.365 164.696 142.058C164.476 141.741 164.234 141.504 163.971 141.346C163.707 141.179 163.461 141.056 163.232 140.977C163.338 141.091 163.461 141.253 163.602 141.464C163.751 141.675 163.887 141.943 164.01 142.269C164.133 142.594 164.239 142.985 164.327 143.442C164.415 143.89 164.458 144.409 164.458 144.998V151.893ZM169.033 133.238C169.033 132.939 169.06 132.675 169.112 132.447C169.165 132.209 169.266 132.016 169.416 131.867C169.565 131.717 169.771 131.603 170.035 131.524C170.299 131.445 170.642 131.405 171.063 131.405H176.838C177.242 131.405 177.567 131.445 177.813 131.524C178.06 131.594 178.253 131.704 178.394 131.854C178.534 132.003 178.626 132.192 178.67 132.42C178.723 132.649 178.75 132.917 178.75 133.225V151.194C178.75 151.493 178.723 151.756 178.67 151.985C178.618 152.205 178.521 152.394 178.38 152.552C178.24 152.701 178.042 152.815 177.787 152.895C177.541 152.965 177.216 153 176.812 153H171.063C170.642 153 170.299 152.96 170.035 152.881C169.771 152.802 169.565 152.688 169.416 152.539C169.266 152.389 169.165 152.2 169.112 151.972C169.06 151.743 169.033 151.475 169.033 151.167V133.238ZM177.629 133.356C177.629 133.163 177.616 133.009 177.589 132.895C177.563 132.781 177.51 132.697 177.431 132.645C177.352 132.583 177.247 132.548 177.115 132.539C176.983 132.521 176.812 132.513 176.601 132.513V151.893C176.812 151.893 176.983 151.888 177.115 151.879C177.247 151.862 177.352 151.827 177.431 151.774C177.51 151.712 177.563 151.629 177.589 151.523C177.616 151.409 177.629 151.251 177.629 151.049V133.356ZM181.188 133.238C181.188 132.939 181.215 132.675 181.268 132.447C181.32 132.209 181.421 132.016 181.571 131.867C181.72 131.717 181.927 131.603 182.19 131.524C182.454 131.445 182.797 131.405 183.219 131.405H188.993C189.397 131.405 189.723 131.445 189.969 131.524C190.215 131.594 190.408 131.704 190.549 131.854C190.689 132.003 190.782 132.192 190.826 132.42C190.878 132.649 190.905 132.917 190.905 133.225V151.194C190.905 151.493 190.878 151.756 190.826 151.985C190.773 152.205 190.676 152.394 190.536 152.552C190.395 152.701 190.197 152.815 189.942 152.895C189.696 152.965 189.371 153 188.967 153H183.219C182.797 153 182.454 152.96 182.19 152.881C181.927 152.802 181.72 152.688 181.571 152.539C181.421 152.389 181.32 152.2 181.268 151.972C181.215 151.743 181.188 151.475 181.188 151.167V133.238ZM189.784 133.356C189.784 133.163 189.771 133.009 189.745 132.895C189.718 132.781 189.666 132.697 189.586 132.645C189.507 132.583 189.402 132.548 189.27 132.539C189.138 132.521 188.967 132.513 188.756 132.513V151.893C188.967 151.893 189.138 151.888 189.27 151.879C189.402 151.862 189.507 151.827 189.586 151.774C189.666 151.712 189.718 151.629 189.745 151.523C189.771 151.409 189.784 151.251 189.784 151.049V133.356ZM200.964 153.461C200.305 153.461 199.646 153.409 198.986 153.303C198.327 153.198 197.694 153.031 197.088 152.802C196.49 152.574 195.932 152.275 195.414 151.906C194.895 151.537 194.442 151.084 194.056 150.548C193.678 150.012 193.379 149.392 193.159 148.689C192.939 147.977 192.83 147.164 192.83 146.25C192.83 145.354 192.939 144.554 193.159 143.851C193.379 143.139 193.678 142.515 194.056 141.979C194.442 141.442 194.895 140.99 195.414 140.621C195.932 140.243 196.49 139.939 197.088 139.711C197.694 139.474 198.327 139.302 198.986 139.197C199.646 139.091 200.305 139.039 200.964 139.039C201.57 139.039 202.19 139.078 202.823 139.157C203.464 139.228 204.084 139.364 204.682 139.566C205.288 139.759 205.855 140.027 206.382 140.37C206.918 140.704 207.384 141.135 207.78 141.662C208.184 142.189 208.5 142.822 208.729 143.561C208.966 144.29 209.085 145.151 209.085 146.145C209.085 147.164 208.971 148.056 208.742 148.821C208.514 149.577 208.197 150.227 207.793 150.772C207.397 151.308 206.936 151.752 206.409 152.104C205.881 152.455 205.314 152.732 204.708 152.934C204.11 153.127 203.491 153.264 202.849 153.343C202.208 153.422 201.579 153.461 200.964 153.461ZM205.011 150.297C205.284 150.297 205.552 150.24 205.815 150.126C206.088 150.003 206.325 149.788 206.527 149.48C206.738 149.172 206.905 148.75 207.028 148.214C207.16 147.669 207.226 146.979 207.226 146.145C207.226 145.354 207.16 144.703 207.028 144.193C206.905 143.684 206.738 143.284 206.527 142.994C206.316 142.695 206.079 142.488 205.815 142.374C205.552 142.26 205.284 142.203 205.011 142.203C204.8 142.203 204.563 142.247 204.299 142.334C204.044 142.422 203.803 142.611 203.574 142.901C203.354 143.183 203.17 143.591 203.021 144.127C202.871 144.655 202.796 145.362 202.796 146.25C202.796 147.138 202.858 147.85 202.981 148.386C203.104 148.922 203.267 149.331 203.469 149.612C203.671 149.893 203.904 150.078 204.167 150.166C204.44 150.253 204.721 150.297 205.011 150.297ZM204.022 150.825C203.732 150.772 203.447 150.671 203.166 150.521C202.884 150.372 202.634 150.13 202.414 149.796C202.194 149.454 202.014 149.001 201.874 148.438C201.742 147.867 201.676 147.138 201.676 146.25C201.676 145.661 201.711 145.143 201.781 144.694C201.86 144.246 201.961 143.859 202.084 143.534C202.216 143.209 202.366 142.937 202.533 142.717C202.7 142.497 202.867 142.317 203.034 142.176C203.209 142.027 203.381 141.917 203.548 141.847C203.724 141.768 203.882 141.71 204.022 141.675C203.715 141.675 203.363 141.746 202.968 141.886C202.572 142.018 202.199 142.255 201.847 142.598C201.496 142.941 201.197 143.411 200.951 144.009C200.713 144.598 200.595 145.345 200.595 146.25C200.595 147.164 200.7 147.916 200.911 148.504C201.122 149.093 201.39 149.559 201.715 149.902C202.049 150.245 202.418 150.486 202.823 150.627C203.236 150.759 203.636 150.825 204.022 150.825ZM218.63 153.461C217.971 153.461 217.312 153.409 216.652 153.303C215.993 153.198 215.36 153.031 214.754 152.802C214.156 152.574 213.598 152.275 213.08 151.906C212.561 151.537 212.108 151.084 211.722 150.548C211.344 150.012 211.045 149.392 210.825 148.689C210.605 147.977 210.496 147.164 210.496 146.25C210.496 145.354 210.605 144.554 210.825 143.851C211.045 143.139 211.344 142.515 211.722 141.979C212.108 141.442 212.561 140.99 213.08 140.621C213.598 140.243 214.156 139.939 214.754 139.711C215.36 139.474 215.993 139.302 216.652 139.197C217.312 139.091 217.971 139.039 218.63 139.039C219.236 139.039 219.856 139.078 220.489 139.157C221.13 139.228 221.75 139.364 222.348 139.566C222.954 139.759 223.521 140.027 224.048 140.37C224.584 140.704 225.05 141.135 225.446 141.662C225.85 142.189 226.167 142.822 226.395 143.561C226.632 144.29 226.751 145.151 226.751 146.145C226.751 147.164 226.637 148.056 226.408 148.821C226.18 149.577 225.863 150.227 225.459 150.772C225.063 151.308 224.602 151.752 224.075 152.104C223.547 152.455 222.98 152.732 222.374 152.934C221.776 153.127 221.157 153.264 220.515 153.343C219.874 153.422 219.245 153.461 218.63 153.461ZM222.677 150.297C222.95 150.297 223.218 150.24 223.481 150.126C223.754 150.003 223.991 149.788 224.193 149.48C224.404 149.172 224.571 148.75 224.694 148.214C224.826 147.669 224.892 146.979 224.892 146.145C224.892 145.354 224.826 144.703 224.694 144.193C224.571 143.684 224.404 143.284 224.193 142.994C223.982 142.695 223.745 142.488 223.481 142.374C223.218 142.26 222.95 142.203 222.677 142.203C222.466 142.203 222.229 142.247 221.965 142.334C221.71 142.422 221.469 142.611 221.24 142.901C221.021 143.183 220.836 143.591 220.687 144.127C220.537 144.655 220.462 145.362 220.462 146.25C220.462 147.138 220.524 147.85 220.647 148.386C220.77 148.922 220.933 149.331 221.135 149.612C221.337 149.893 221.57 150.078 221.833 150.166C222.106 150.253 222.387 150.297 222.677 150.297ZM221.688 150.825C221.398 150.772 221.113 150.671 220.832 150.521C220.55 150.372 220.3 150.13 220.08 149.796C219.86 149.454 219.68 149.001 219.54 148.438C219.408 147.867 219.342 147.138 219.342 146.25C219.342 145.661 219.377 145.143 219.447 144.694C219.526 144.246 219.627 143.859 219.75 143.534C219.882 143.209 220.032 142.937 220.199 142.717C220.366 142.497 220.533 142.317 220.7 142.176C220.875 142.027 221.047 141.917 221.214 141.847C221.39 141.768 221.548 141.71 221.688 141.675C221.381 141.675 221.029 141.746 220.634 141.886C220.238 142.018 219.865 142.255 219.513 142.598C219.162 142.941 218.863 143.411 218.617 144.009C218.379 144.598 218.261 145.345 218.261 146.25C218.261 147.164 218.366 147.916 218.577 148.504C218.788 149.093 219.056 149.559 219.381 149.902C219.715 150.245 220.084 150.486 220.489 150.627C220.902 150.759 221.302 150.825 221.688 150.825ZM228.676 141.333C228.676 141.034 228.702 140.77 228.755 140.542C228.808 140.304 228.909 140.111 229.058 139.961C229.208 139.812 229.414 139.698 229.678 139.619C229.941 139.54 230.284 139.5 230.706 139.5H236.098C236.494 139.5 236.832 139.54 237.113 139.619C237.403 139.698 237.61 139.834 237.733 140.027C237.847 139.948 237.983 139.865 238.142 139.777C238.309 139.68 238.489 139.592 238.682 139.513C238.875 139.434 239.082 139.368 239.302 139.315C239.521 139.263 239.75 139.236 239.987 139.236C240.831 139.236 241.486 139.526 241.952 140.106C242.426 140.687 242.664 141.539 242.664 142.664V152.38C242.664 152.53 242.642 152.648 242.598 152.736C242.562 152.815 242.514 152.877 242.453 152.921C242.4 152.956 242.334 152.978 242.255 152.987C242.176 152.996 242.097 153 242.018 153H241.174C240.945 153 240.796 152.934 240.726 152.802C240.664 152.67 240.633 152.53 240.633 152.38V142.532C240.633 142.031 240.541 141.649 240.356 141.385C240.181 141.122 239.895 140.99 239.5 140.99C239.297 140.99 239.091 141.047 238.88 141.161C238.678 141.267 238.515 141.381 238.392 141.504V151.154C238.392 151.462 238.366 151.73 238.313 151.958C238.26 152.187 238.159 152.38 238.01 152.539C237.86 152.688 237.654 152.802 237.39 152.881C237.126 152.96 236.784 153 236.362 153H230.706C230.284 153 229.941 152.96 229.678 152.881C229.414 152.802 229.208 152.688 229.058 152.539C228.909 152.389 228.808 152.2 228.755 151.972C228.702 151.743 228.676 151.475 228.676 151.167V141.333ZM237.271 141.451C237.271 141.144 237.188 140.928 237.021 140.805C236.863 140.673 236.604 140.607 236.243 140.607V151.893C236.454 151.893 236.625 151.888 236.757 151.879C236.889 151.862 236.995 151.827 237.074 151.774C237.153 151.712 237.206 151.629 237.232 151.523C237.258 151.409 237.271 151.251 237.271 151.049V141.451Z" fill="#2662A9"/>
</g>
<defs>
<filter id="filter0_d_142_11889" x="14.2129" y="131.405" width="232.451" height="35.0264" filterUnits="userSpaceOnUse" color-interpolation-filters="sRGB">
<feFlood flood-opacity="0" result="BackgroundImageFix"/>
<feColorMatrix in="SourceAlpha" type="matrix" values="0 0 0 0 0 0 0 0 0 0 0 0 0 0 0 0 0 0 127 0" result="hardAlpha"/>
<feOffset dy="4"/>
<feGaussianBlur stdDeviation="2"/>
<feComposite in2="hardAlpha" operator="out"/>
<feColorMatrix type="matrix" values="0 0 0 0 0 0 0 0 0 0 0 0 0 0 0 0 0 0 0.25 0"/>
<feBlend mode="normal" in2="BackgroundImageFix" result="effect1_dropShadow_142_11889"/>
<feBlend mode="normal" in="SourceGraphic" in2="effect1_dropShadow_142_11889" result="shape"/>
</filter>
</defs>
</svg>
