<svg width="30" height="30" viewBox="0 0 30 30" fill="none" xmlns="http://www.w3.org/2000/svg">
<rect x="0.5" y="0.5" width="29" height="29" rx="14.5" fill="#FFB52B" stroke="#740059"/>
<g clip-path="url(#clip0_64_1922)">
<path d="M23.145 6.89553C19.1389 6.9673 14.4978 7.59631 10.4909 8.78323C10.4887 8.75954 10.5059 19.5678 10.5059 19.5678C9.78265 19.4195 8.96529 19.5055 8.10684 19.8603C6.51397 20.5164 5.64506 21.8428 6.16655 22.8226C6.68805 23.8037 8.40196 24.067 9.99483 23.4096C11.451 22.702 11.9194 22.0622 11.9672 21.1366L12.0031 11.7712C15.1605 10.9296 18.4994 10.4306 21.6582 10.2762V18.649C20.9268 18.4865 19.9578 18.5684 19.0799 18.9293C17.487 19.5868 16.6181 20.9132 17.1396 21.8929C17.6611 22.874 19.375 23.136 20.9686 22.48C22.1013 22.0134 23.0075 21.2077 23.1674 20.4291C23.1682 20.4284 23.1293 6.87725 23.145 6.89553Z" fill="#740059"/>
</g>
<defs>
<clipPath id="clip0_64_1922">
<rect width="17.3333" height="17.3333" fill="white" transform="translate(6 6.66663)"/>
</clipPath>
</defs>
</svg>
