<svg width="30" height="30" viewBox="0 0 30 30" fill="none" xmlns="http://www.w3.org/2000/svg">
<rect x="0.5" y="0.5" width="29" height="29" rx="14.5" fill="#FFB52B" stroke="#740059"/>
<path fill-rule="evenodd" clip-rule="evenodd" d="M15.9167 7.43251C15.9167 7.00034 15.8001 6.29182 15.152 5.96551C14.4639 5.61911 13.8234 6.0107 13.4989 6.30224L8.53447 10.8174H6.75008C5.73756 10.8174 4.91675 11.6382 4.91675 12.6507L4.91676 17.406C4.91676 18.4185 5.73757 19.2394 6.75009 19.2394H8.53759L13.4989 23.6983C13.8245 23.9907 14.4647 24.3803 15.1519 24.0341C15.7991 23.7081 15.9167 23.0012 15.9167 22.568V7.43251ZM9.50575 12.4122L14.0834 8.24877V21.7586L9.50172 17.6409C9.33346 17.4896 9.11522 17.406 8.88898 17.406H6.75009L6.75008 12.6507H8.88898C9.11709 12.6507 9.337 12.5656 9.50575 12.4122Z" fill="#740059"/>
<path d="M18.0185 11.6019C18.3764 11.2439 18.9569 11.2439 19.3148 11.6019L21.4166 13.7037L23.5185 11.6019C23.8764 11.2439 24.4569 11.2439 24.8148 11.6019C25.1728 11.9598 25.1728 12.5402 24.8148 12.8982L22.713 15L24.8148 17.1019C25.1728 17.4598 25.1728 18.0403 24.8148 18.3982C24.4569 18.7562 23.8764 18.7562 23.5185 18.3982L21.4166 16.2964L19.3148 18.3982C18.9569 18.7562 18.3764 18.7562 18.0185 18.3982C17.6605 18.0403 17.6605 17.4598 18.0185 17.1019L20.1203 15L18.0185 12.8982C17.6605 12.5402 17.6605 11.9598 18.0185 11.6019Z" fill="#740059"/>
</svg>
