<svg width="30" height="30" viewBox="0 0 30 30" fill="none" xmlns="http://www.w3.org/2000/svg">
<rect x="0.5" y="0.5" width="29" height="29" rx="14.5" fill="#FFB52B" stroke="#740059"/>
<g clip-path="url(#clip0_64_2785)">
<path d="M5.90373 9.17611C5.43009 8.83105 5.3243 8.16699 5.66935 7.69173C6.0144 7.21647 6.67847 7.1123 7.1521 7.45736L24.2306 19.9085C24.7042 20.2536 24.8084 20.9176 24.4633 21.3929C24.1182 21.8665 23.4542 21.9723 22.9806 21.6273L5.90373 9.17611ZM19.128 13.9401V9.23958L14.5024 10.5677L10.5945 7.7194L20.4203 5.48145V14.8825L19.128 13.9401ZM10.5798 14.8337V22.1709C10.5847 22.223 10.588 22.2751 10.588 22.3271V22.3288C10.588 23.5918 9.2631 24.8451 7.62736 25.1283C5.99325 25.4098 4.66675 24.6139 4.66675 23.3509C4.66675 22.0879 5.99325 20.8346 7.62736 20.5531C8.24259 20.4473 8.81388 20.4945 9.28914 20.6605V13.8929L10.5798 14.8337ZM19.7823 21.5443C19.3315 21.9951 18.6902 22.3385 17.9773 22.4606C16.6117 22.6966 15.505 22.0326 15.505 20.9762C15.5033 20.3203 15.9314 19.6676 16.5824 19.2119L19.7823 21.5443Z" fill="#740059"/>
</g>
<defs>
<clipPath id="clip0_64_2785">
<rect width="20" height="20" fill="white" transform="translate(4.66675 5.33337)"/>
</clipPath>
</defs>
</svg>
