<?xml version="1.0" encoding="iso-8859-1"?>
<!-- Uploaded to: SVG Repo, www.svgrepo.com, Generator: SVG Repo Mixer Tools -->
<!DOCTYPE svg PUBLIC "-//W3C//DTD SVG 1.1//EN" "http://www.w3.org/Graphics/SVG/1.1/DTD/svg11.dtd">
<svg fill="#000000" version="1.1" id="Capa_1" xmlns="http://www.w3.org/2000/svg" xmlns:xlink="http://www.w3.org/1999/xlink" 
	 width="800px" height="800px" viewBox="0 0 489.601 489.6"
	 xml:space="preserve">
<g>
	<path d="M476.136,231.2h-27.839C441.565,129.541,360.061,48.036,258.4,41.303V13.464C258.4,6.025,252.375,0,244.937,0h-0.272
		C237.225,0,231.2,6.025,231.2,13.464v27.839C129.54,48.036,48.035,129.541,41.303,231.2H13.464C6.025,231.2,0,237.225,0,244.665
		v0.271c0,7.439,6.025,13.464,13.464,13.464h27.839C48.035,360.06,129.54,441.565,231.2,448.297v27.839
		c0,7.439,6.025,13.464,13.464,13.464h0.272c7.438,0,13.464-6.024,13.464-13.464v-27.839
		c101.66-6.732,183.165-88.237,189.896-189.897h27.839c7.439,0,13.465-6.024,13.465-13.464v-0.271
		C489.601,237.225,483.575,231.2,476.136,231.2z M407.389,231.2h-23.882c-6.426-66.028-59.085-118.687-125.113-125.113V82.212
		C337.552,88.781,400.819,152.048,407.389,231.2z M319.464,258.4h43.5c-6.27,54.754-49.811,98.294-104.563,104.564v-43.5
		c0-7.439-6.025-13.464-13.464-13.464h-0.272c-7.439,0-13.464,6.024-13.464,13.464v43.5
		c-54.753-6.271-98.294-49.811-104.563-104.564h43.5c7.439,0,13.464-6.024,13.464-13.464v-0.271c0-7.439-6.025-13.464-13.464-13.464
		h-43.5c6.27-54.753,49.81-98.294,104.563-104.563v43.5c0,7.439,6.025,13.464,13.464,13.464h0.272
		c7.438,0,13.464-6.024,13.464-13.464v-43.5c54.753,6.27,98.294,49.81,104.563,104.563h-43.5c-7.438,0-13.464,6.025-13.464,13.464
		v0.271C306,252.375,312.025,258.4,319.464,258.4z M231.2,82.212v23.881c-66.028,6.419-118.687,59.079-125.113,125.106H82.212
		C88.781,152.048,152.048,88.781,231.2,82.212z M82.212,258.4h23.881c6.426,66.028,59.085,118.688,125.113,125.113v23.882
		C152.048,400.82,88.781,337.552,82.212,258.4z M258.4,407.388v-23.882c66.027-6.419,118.688-59.078,125.113-125.106h23.882
		C400.819,337.552,337.552,400.82,258.4,407.388z"/>
</g>
</svg>