<svg width="40" height="40" viewBox="0 0 40 40" fill="none" xmlns="http://www.w3.org/2000/svg">

<g clip-path="url(#clip0_80_1695)">
<path d="M38.8999 18.889H36.6255C36.0755 10.5835 29.4167 3.92462 21.1111 3.37454V1.10012C21.1111 0.49236 20.6188 0.00012207 20.0112 0.00012207H19.9889C19.3811 0.00012207 18.8889 0.49236 18.8889 1.10012V3.37454C10.5833 3.92462 3.92442 10.5835 3.37442 18.889H1.1C0.492238 18.889 0 19.3812 0 19.9891V20.0112C0 20.619 0.492238 21.1112 1.1 21.1112H3.37442C3.92442 29.4167 10.5833 36.0756 18.8889 36.6256V38.9C18.8889 39.5078 19.3811 40 19.9888 40H20.0111C20.6187 40 21.1111 39.5079 21.1111 38.9V36.6256C29.4166 36.0756 36.0755 29.4167 36.6254 21.1112H38.8998C39.5076 21.1112 39.9999 20.619 39.9999 20.0112V19.9891C40 19.3812 39.5077 18.889 38.8999 18.889ZM33.2833 18.889H31.3322C30.8072 13.4945 26.505 9.19234 21.1106 8.66734V6.71678C27.5777 7.25346 32.7466 12.4223 33.2833 18.889ZM26.0999 21.1112H29.6539C29.1416 25.5845 25.5843 29.1417 21.1112 29.654V26.1001C21.1112 25.4923 20.6189 25.0001 20.0112 25.0001H19.9889C19.3812 25.0001 18.8889 25.4922 18.8889 26.1001V29.654C14.4157 29.1416 10.8584 25.5845 10.3462 21.1112H13.9001C14.5079 21.1112 15.0001 20.619 15.0001 20.0112V19.9891C15.0001 19.3813 14.5079 18.8891 13.9001 18.8891H10.3462C10.8585 14.4158 14.4157 10.8585 18.8889 10.3463V13.9003C18.8889 14.508 19.3812 15.0003 19.9889 15.0003H20.0112C20.6188 15.0003 21.1112 14.5081 21.1112 13.9003V10.3463C25.5844 10.8586 29.1417 14.4158 29.6539 18.8891H26.0999C25.4923 18.8891 25 19.3813 25 19.9891V20.0112C25 20.619 25.4922 21.1112 26.0999 21.1112ZM18.8889 6.71678V8.66783C13.4944 9.19226 9.19222 13.4945 8.66722 18.8889H6.71665C7.25333 12.4223 12.4222 7.25346 18.8889 6.71678ZM6.71665 21.1112H8.66771C9.19271 26.5056 13.4949 30.8079 18.8893 31.3328V33.284C12.4222 32.7468 7.25333 27.5778 6.71665 21.1112ZM21.1111 33.2834V31.3323C26.5054 30.8078 30.8078 26.5056 31.3327 21.1112H33.2838C32.7466 27.5778 27.5777 32.7468 21.1111 33.2834Z" fill="#740059"/>
</g>
<defs>
<clipPath id="clip0_80_1695">

<rect width="40" height="40" fill="white"/>
</clipPath>
</defs>
</svg>
