<svg width="45" height="45" viewBox="0 0 45 45" fill="none" xmlns="http://www.w3.org/2000/svg">
<rect x="0.5" y="0.5" width="44" height="44" rx="22" fill="#FFB52B" stroke="#740059"/>
<g clip-path="url(#clip0_309_14266)">
<path fill-rule="evenodd" clip-rule="evenodd" d="M15.8505 11.8109C14.9692 11.3482 13.9118 11.9873 13.9118 12.9827V32.018C13.9118 33.0134 14.9692 33.6525 15.8505 33.1898L33.9794 23.6722C34.9239 23.1764 34.9239 21.8243 33.9794 21.3285L15.8505 11.8109ZM11.2647 12.9827C11.2647 9.99658 14.4371 8.07911 17.081 9.46715L35.2099 18.9848C38.0432 20.4723 38.043 24.5285 35.2099 26.0159L17.081 35.5335C14.4371 36.9217 11.2647 35.0041 11.2647 32.018V12.9827Z" fill="#740059"/>
</g>
<defs>
<clipPath id="clip0_309_14266">
<rect width="27" height="27" fill="white" transform="translate(11 9)"/>
</clipPath>
</defs>
</svg>
