<svg width="53" height="53" viewBox="0 0 53 53" fill="none" xmlns="http://www.w3.org/2000/svg">
<g filter="url(#filter0_d_142_11795)">
<rect x="2.5" y="2.5" width="44" height="44" rx="22" fill="#FFB52B" stroke="#740059"/>
<g clip-path="url(#clip0_142_11795)">
<path fill-rule="evenodd" clip-rule="evenodd" d="M17.8505 13.8108C16.9692 13.3481 15.9118 13.9873 15.9118 14.9827V34.018C15.9118 35.0134 16.9692 35.6525 17.8505 35.1898L35.9794 25.6722C36.9239 25.1764 36.9239 23.8243 35.9794 23.3285L17.8505 13.8108ZM13.2647 14.9827C13.2647 11.9966 16.4371 10.0791 19.081 11.4671L37.2099 20.9848C40.0432 22.4723 40.043 26.5285 37.2099 28.0159L19.081 37.5335C16.4371 38.9216 13.2647 37.0041 13.2647 34.018V14.9827Z" fill="#740059"/>
</g>
</g>
<defs>
<filter id="filter0_d_142_11795" x="0" y="0" width="53" height="53" filterUnits="userSpaceOnUse" color-interpolation-filters="sRGB">
<feFlood flood-opacity="0" result="BackgroundImageFix"/>
<feColorMatrix in="SourceAlpha" type="matrix" values="0 0 0 0 0 0 0 0 0 0 0 0 0 0 0 0 0 0 127 0" result="hardAlpha"/>
<feOffset dx="2" dy="2"/>
<feGaussianBlur stdDeviation="2"/>
<feComposite in2="hardAlpha" operator="out"/>
<feColorMatrix type="matrix" values="0 0 0 0 0 0 0 0 0 0 0 0 0 0 0 0 0 0 0.25 0"/>
<feBlend mode="normal" in2="BackgroundImageFix" result="effect1_dropShadow_142_11795"/>
<feBlend mode="normal" in="SourceGraphic" in2="effect1_dropShadow_142_11795" result="shape"/>
</filter>
<clipPath id="clip0_142_11795">
<rect width="27" height="27" fill="white" transform="translate(13 11)"/>
</clipPath>
</defs>
</svg>
