<svg width="45" height="45" viewBox="0 0 45 45" fill="none" xmlns="http://www.w3.org/2000/svg">
<rect x="0.5" y="0.5" width="44" height="44" rx="22" fill="#FFB52B" stroke="#740059"/>
<g clip-path="url(#clip0_64_1930)">
<path d="M18.3331 13.6023V7.80511L6 19.1437L18.3331 30.4823V25.2668C30.2976 25.5837 36.3844 34.7846 36.4455 34.879L37.2961 36.1949L37.6001 34.6586C37.8654 33.3174 38.0001 31.9387 38.0001 30.5603C38 20.116 30.6632 13.8102 18.3331 13.6023ZM36.5857 32.9744C34.3405 30.2674 28.0209 23.9908 17.6991 23.9905H17.0652V27.5942L7.87335 19.1437L17.0652 10.6932V14.8649H17.6991C29.7948 14.8649 36.7321 20.5855 36.7321 30.5603C36.7321 31.3678 36.6829 32.1755 36.5857 32.9744Z" fill="#740059"/>
</g>
<defs>
<clipPath id="clip0_64_1930">
<rect width="32" height="32" fill="white" transform="translate(6 6)"/>
</clipPath>
</defs>
</svg>
