<svg width="90" height="140" viewBox="0 0 90 140" fill="none" xmlns="http://www.w3.org/2000/svg">
<path d="M90 137.172C90 138.734 69.8524 140 45 140C20.1473 140 0 138.734 0 137.172C0 135.609 20.1473 134.343 45 134.343C69.8524 134.343 90 135.609 90 137.172Z" fill="#414243"/>
<mask id="mask0_134_10550" style="mask-type:luminance" maskUnits="userSpaceOnUse" x="12" y="117" width="13" height="10">
<path d="M14.61 117.414C15.8452 117.567 18.3844 118.013 23.0386 120.381C23.0386 120.381 25.5186 124.351 24.4197 124.963C23.3209 125.575 21.3472 123.727 21.3472 123.727C21.3472 123.727 20.1631 125.997 19.2077 126.362C18.3911 126.674 16.7927 126.04 17.5907 124.473C17.5907 124.473 16.2422 125.538 15.0912 124.943C13.9691 124.362 14.5954 123.135 14.5954 123.135C14.5954 123.135 12.8692 123.316 12.2861 122.236C11.7031 121.157 13.4957 118.309 14.61 117.414Z" fill="white"/>
</mask>
<g mask="url(#mask0_134_10550)">
<path d="M14.61 117.414C15.8452 117.567 18.3844 118.013 23.0386 120.381C23.0386 120.381 25.5186 124.351 24.4197 124.963C23.3209 125.575 21.3472 123.727 21.3472 123.727C21.3472 123.727 20.1631 125.997 19.2077 126.362C18.3911 126.674 16.7927 126.04 17.5907 124.473C17.5907 124.473 16.2422 125.538 15.0912 124.943C13.9691 124.362 14.5954 123.135 14.5954 123.135C14.5954 123.135 12.8692 123.316 12.2861 122.236C11.7031 121.157 13.4957 118.309 14.61 117.414Z" fill="#EFB586"/>
</g>
<mask id="mask1_134_10550" style="mask-type:luminance" maskUnits="userSpaceOnUse" x="12" y="83" width="21" height="39">
<path d="M29.0694 83.3824C29.0694 83.3824 16.3852 95.9121 12.2055 116.173C11.488 119.442 22.6152 122.454 25.6274 120.757C28.6396 119.06 27.81 109.779 30.2469 108.124C30.2469 108.124 35.6761 92.0136 29.0694 83.3824Z" fill="white"/>
</mask>
<g mask="url(#mask1_134_10550)">
<path d="M29.0694 83.3824C29.0694 83.3824 16.3852 95.9121 12.2055 116.173C11.488 119.442 22.6152 122.454 25.6274 120.757C28.6396 119.06 27.81 109.779 30.2469 108.124C30.2469 108.124 35.6761 92.0136 29.0694 83.3824Z" fill="#713C74"/>
</g>
<path d="M20.1708 95.489C20.1708 95.489 21.024 100.938 15.5654 104.98C15.5654 104.98 16.4521 100.374 20.1708 95.489Z" fill="#7462B7"/>
<mask id="mask2_134_10550" style="mask-type:luminance" maskUnits="userSpaceOnUse" x="65" y="117" width="14" height="10">
<path d="M75.6192 117.414C74.384 117.567 71.8449 118.013 67.1905 120.381C67.1905 120.381 64.7103 124.351 65.8092 124.963C66.908 125.575 68.8821 123.727 68.8821 123.727C68.8821 123.727 70.0661 125.997 71.0215 126.362C71.8381 126.674 73.4363 126.04 72.6385 124.473C72.6385 124.473 73.987 125.538 75.1378 124.943C76.26 124.362 75.6337 123.135 75.6337 123.135C75.6337 123.135 77.3599 123.316 77.9429 122.236C78.5261 121.157 76.7335 118.309 75.6192 117.414Z" fill="white"/>
</mask>
<g mask="url(#mask2_134_10550)">
<path d="M75.6192 117.414C74.384 117.567 71.8449 118.013 67.1905 120.381C67.1905 120.381 64.7103 124.351 65.8092 124.963C66.908 125.575 68.8821 123.727 68.8821 123.727C68.8821 123.727 70.0661 125.997 71.0215 126.362C71.8381 126.674 73.4363 126.04 72.6385 124.473C72.6385 124.473 73.987 125.538 75.1378 124.943C76.26 124.362 75.6337 123.135 75.6337 123.135C75.6337 123.135 77.3599 123.316 77.9429 122.236C78.5261 121.157 76.7335 118.309 75.6192 117.414Z" fill="#EFB586"/>
</g>
<mask id="mask3_134_10550" style="mask-type:luminance" maskUnits="userSpaceOnUse" x="57" y="83" width="22" height="39">
<path d="M61.1595 83.3824C61.1595 83.3824 73.8436 95.9121 78.0232 116.173C78.7408 119.442 67.6135 122.454 64.6013 120.757C61.5891 119.06 62.4188 109.779 59.9818 108.124C59.9818 108.124 54.5526 92.0136 61.1595 83.3824Z" fill="white"/>
</mask>
<g mask="url(#mask3_134_10550)">
<path d="M61.1595 83.3824C61.1595 83.3824 73.8436 95.9121 78.0232 116.173C78.7408 119.442 67.6135 122.454 64.6013 120.757C61.5891 119.06 62.4188 109.779 59.9818 108.124C59.9818 108.124 54.5526 92.0136 61.1595 83.3824Z" fill="#713C74"/>
</g>
<path d="M70.0582 95.489C70.0582 95.489 69.2049 100.938 74.6636 104.98C74.6636 104.98 73.7768 100.374 70.0582 95.489Z" fill="#7462B7"/>
<mask id="mask4_134_10550" style="mask-type:luminance" maskUnits="userSpaceOnUse" x="2" y="130" width="41" height="7">
<path d="M42.375 135.317L20.757 135.982L2.86084 136.533C2.86084 136.533 5.00241 132.743 9.35761 131.2C12.0332 130.252 14.9232 129.912 18.1816 130.135C20.2234 130.271 22.411 130.631 24.7783 131.2C30.918 132.676 38.2227 131.49 38.2227 131.49C38.2227 131.49 41.6239 130.913 42.375 135.317Z" fill="white"/>
</mask>
<g mask="url(#mask4_134_10550)">
<path d="M42.375 135.317L20.757 135.982L2.86084 136.533C2.86084 136.533 5.00241 132.743 9.35761 131.2C12.0332 130.252 14.9232 129.912 18.1816 130.135C20.2234 130.271 22.411 130.631 24.7783 131.2C30.918 132.676 38.2227 131.49 38.2227 131.49C38.2227 131.49 41.6239 130.913 42.375 135.317Z" fill="#AF815D"/>
</g>
<path d="M2.86084 136.533V137.172L42.5524 135.574L42.4833 135.285L2.86084 136.533Z" fill="#3A2F2C"/>
<path d="M34.5078 135.898C34.5078 135.898 35.4635 136.232 35.5113 136.534H43.1087C43.1087 136.534 42.8905 135.855 42.5527 135.574L34.5078 135.898Z" fill="#392F2D"/>
<path d="M38.1523 131.501C38.1523 131.501 38.9116 131.77 39.1925 132.106C39.342 132.486 41.3712 135.32 41.3712 135.32L42.3748 135.285L39.5326 131.748C39.5326 131.748 38.6549 131.43 38.1523 131.501Z" fill="#7C614F"/>
<path d="M26.2505 132.611C26.3277 132.821 26.1943 133.055 25.9516 133.135C25.7088 133.214 25.4491 133.108 25.3716 132.898C25.2941 132.688 25.4276 132.454 25.6702 132.374C25.9131 132.295 26.1728 132.401 26.2505 132.611Z" fill="#493B36"/>
<path d="M28.7208 132.751C28.7986 132.96 28.6651 133.195 28.4218 133.275C28.1796 133.354 27.9197 133.248 27.8424 133.038C27.7647 132.828 27.8982 132.593 28.1411 132.514C28.3837 132.435 28.6431 132.541 28.7208 132.751Z" fill="#493B36"/>
<path d="M25.448 132.986C25.448 132.986 25.523 131.373 24.7783 131.2C24.7783 131.2 25.2815 131.136 25.5715 131.375C25.5715 131.375 26.1536 131.804 26.1857 132.911C26.1857 132.911 26.1185 133.149 25.448 132.986Z" fill="#D8C160"/>
<path d="M27.8274 132.978C27.8274 132.978 27.7637 131.81 27.062 131.629C27.062 131.629 27.3638 131.488 27.8201 131.724C27.8201 131.724 28.5816 132.351 28.7261 132.978C28.7261 132.978 28.4606 133.29 27.8274 132.978Z" fill="#D8C160"/>
<mask id="mask5_134_10550" style="mask-type:luminance" maskUnits="userSpaceOnUse" x="2" y="130" width="19" height="7">
<path d="M20.7576 135.982L2.86084 136.533C2.86084 136.533 5.00286 132.743 9.35734 131.2C12.0334 130.252 14.9232 129.912 18.1816 130.135C19.0698 131.039 20.1123 132.754 20.7576 135.982Z" fill="white"/>
</mask>
<g mask="url(#mask5_134_10550)">
<path d="M20.7576 135.982L2.86084 136.533C2.86084 136.533 5.00286 132.743 9.35734 131.2C12.0334 130.252 14.9232 129.912 18.1816 130.135C19.0698 131.039 20.1123 132.754 20.7576 135.982Z" fill="#9B7455"/>
</g>
<path d="M39.1924 131.628C39.1924 131.628 42.2691 134.706 43.1081 136.534C43.1081 136.534 44.6605 135.293 44.5178 134.219C44.5178 134.219 42.237 132.207 39.1924 131.628Z" fill="#3D302A"/>
<path d="M38.4081 131.1C38.4081 131.1 42.4482 131.955 44.5181 134.219C44.5181 134.219 41.8172 132.184 38.2241 131.49L38.4081 131.1Z" fill="#29201D"/>
<mask id="mask6_134_10550" style="mask-type:luminance" maskUnits="userSpaceOnUse" x="47" y="130" width="41" height="7">
<path d="M47.6235 135.317L69.2415 135.982L87.1377 136.533C87.1377 136.533 84.9962 132.743 80.6412 131.2C77.9657 130.252 75.0756 129.912 71.8169 130.135C69.7753 130.271 67.5878 130.631 65.2202 131.2C59.0807 132.676 51.7758 131.49 51.7758 131.49C51.7758 131.49 48.3748 130.913 47.6235 135.317Z" fill="white"/>
</mask>
<g mask="url(#mask6_134_10550)">
<path d="M47.6235 135.317L69.2415 135.982L87.1377 136.533C87.1377 136.533 84.9962 132.743 80.6412 131.2C77.9657 130.252 75.0756 129.912 71.8169 130.135C69.7753 130.271 67.5878 130.631 65.2202 131.2C59.0807 132.676 51.7758 131.49 51.7758 131.49C51.7758 131.49 48.3748 130.913 47.6235 135.317Z" fill="#AF815D"/>
</g>
<path d="M87.1374 136.533V137.172L47.4458 135.574L47.5151 135.285L87.1374 136.533Z" fill="#3A2F2C"/>
<path d="M55.4912 135.898C55.4912 135.898 54.5351 136.232 54.4876 136.534H46.8901C46.8901 136.534 47.1083 135.855 47.4459 135.574L55.4912 135.898Z" fill="#392F2D"/>
<path d="M51.8465 131.501C51.8465 131.501 51.087 131.77 50.8061 132.106C50.6566 132.486 48.6277 135.32 48.6277 135.32L47.6235 135.285L50.4658 131.748C50.4658 131.748 51.3435 131.43 51.8465 131.501Z" fill="#7C614F"/>
<path d="M63.7486 132.611C63.6711 132.821 63.8048 133.055 64.0474 133.135C64.2903 133.214 64.5499 133.108 64.6272 132.898C64.7049 132.688 64.5715 132.454 64.3288 132.374C64.0857 132.295 63.8263 132.401 63.7486 132.611Z" fill="#493B36"/>
<path d="M61.278 132.751C61.2003 132.96 61.3339 133.195 61.5768 133.275C61.8195 133.354 62.0789 133.248 62.1564 133.038C62.2341 132.828 62.1006 132.593 61.8578 132.514C61.6149 132.435 61.3557 132.541 61.278 132.751Z" fill="#493B36"/>
<path d="M64.5502 132.986C64.5502 132.986 64.4754 131.373 65.2199 131.2C65.2199 131.2 64.7172 131.136 64.4267 131.375C64.4267 131.375 63.8449 131.804 63.8125 132.911C63.8125 132.911 63.8798 133.149 64.5502 132.986Z" fill="#D8C160"/>
<path d="M62.1708 132.978C62.1708 132.978 62.2347 131.81 62.9361 131.629C62.9361 131.629 62.6345 131.488 62.1782 131.724C62.1782 131.724 61.4167 132.351 61.272 132.978C61.272 132.978 61.5375 133.29 62.1708 132.978Z" fill="#D8C160"/>
<mask id="mask7_134_10550" style="mask-type:luminance" maskUnits="userSpaceOnUse" x="69" y="130" width="19" height="7">
<path d="M69.2407 135.982L87.1374 136.533C87.1374 136.533 84.9954 132.743 80.641 131.2C77.9649 130.252 75.0752 129.912 71.8165 130.135C70.9286 131.039 69.886 132.754 69.2407 135.982Z" fill="white"/>
</mask>
<g mask="url(#mask7_134_10550)">
<path d="M69.2407 135.982L87.1374 136.533C87.1374 136.533 84.9954 132.743 80.641 131.2C77.9649 130.252 75.0752 129.912 71.8165 130.135C70.9286 131.039 69.886 132.754 69.2407 135.982Z" fill="#9B7455"/>
</g>
<path d="M49.9088 129.883C49.9088 129.883 49.8726 129.779 49.8091 129.594C49.3764 128.337 47.7109 123.363 47.9896 121.97C47.9896 121.97 50.9669 119.743 52.2422 117.595L44.9992 113.283L37.7559 117.595C39.0314 119.743 42.0085 121.97 42.0085 121.97C42.2872 123.363 40.6219 128.337 40.1892 129.594C40.1257 129.779 40.0895 129.883 40.0895 129.883C38.9453 129.647 38.4084 131.099 38.4084 131.099C40.3546 131.729 44.5211 134.244 44.5211 134.244C44.8655 132.792 44.0408 121.924 44.0408 121.924C44.3557 121.793 44.6754 121.73 44.9992 121.732C45.3232 121.73 45.6426 121.793 45.9575 121.924C45.9575 121.924 45.1328 132.792 45.4772 134.244C45.4772 134.244 49.6438 131.729 51.59 131.099C51.59 131.099 51.0528 129.647 49.9088 129.883Z" fill="#376289"/>
<path d="M50.8061 131.628C50.8061 131.628 47.7293 134.706 46.8904 136.534C46.8904 136.534 45.3379 135.293 45.4804 134.219C45.4804 134.219 47.7617 132.207 50.8061 131.628Z" fill="#3D302A"/>
<path d="M48.1396 131.21C49.0459 130.073 49.9091 129.883 49.9091 129.883C49.9091 129.883 49.8729 129.779 49.8094 129.594C48.6313 129.996 48.1668 131.139 48.1396 131.21Z" fill="#29201D"/>
<path d="M51.5907 131.1C51.5907 131.1 47.5506 131.955 45.4805 134.219C45.4805 134.219 48.1816 132.184 51.7747 131.49L51.5907 131.1Z" fill="#29201D"/>
<path d="M41.8588 131.21C40.9526 130.073 40.0894 129.883 40.0894 129.883C40.0894 129.883 40.1256 129.779 40.189 129.594C41.3672 129.996 41.8316 131.139 41.8588 131.21Z" fill="#29201D"/>
<mask id="mask8_134_10550" style="mask-type:luminance" maskUnits="userSpaceOnUse" x="21" y="75" width="48" height="44">
<path d="M54.9321 117.46C52.1725 118.199 48.9123 118.636 45.0765 118.647V118.649H44.9224V118.647C41.3676 118.636 38.3045 118.261 35.6788 117.618C35.4545 117.563 35.2347 117.507 35.0193 117.448C29.5114 115.961 26.0133 113.262 23.9289 110.291C22.2704 107.931 21.5068 105.4 21.3438 103.176C21.278 102.287 21.3097 101.445 21.4163 100.683C21.6586 98.9586 22.4585 96.6778 23.4939 94.2802C24.3389 92.3188 25.3381 90.2767 26.3191 88.3924C27.9119 85.324 29.4505 82.673 30.1617 81.4677C30.4086 81.0502 32.1532 76.9833 32.1532 76.9833L44.9995 75.365L57.7914 76.6234C57.7914 76.6234 59.5225 80.9375 59.699 81.2356C61.1445 83.6674 67.7945 95.0895 68.5827 100.683C69.2964 105.751 66.6073 114.332 54.9321 117.46Z" fill="white"/>
</mask>
<g mask="url(#mask8_134_10550)">
<path d="M54.9321 117.46C52.1725 118.199 48.9123 118.636 45.0765 118.647V118.649H44.9224V118.647C41.3676 118.636 38.3045 118.261 35.6788 117.618C35.4545 117.563 35.2347 117.507 35.0193 117.448C29.5114 115.961 26.0133 113.262 23.9289 110.291C22.2704 107.931 21.5068 105.4 21.3438 103.176C21.278 102.287 21.3097 101.445 21.4163 100.683C21.6586 98.9586 22.4585 96.6778 23.4939 94.2802C24.3389 92.3188 25.3381 90.2767 26.3191 88.3924C27.9119 85.324 29.4505 82.673 30.1617 81.4677C30.4086 81.0502 32.1532 76.9833 32.1532 76.9833L44.9995 75.365L57.7914 76.6234C57.7914 76.6234 59.5225 80.9375 59.699 81.2356C61.1445 83.6674 67.7945 95.0895 68.5827 100.683C69.2964 105.751 66.6073 114.332 54.9321 117.46Z" fill="#EBDCC9"/>
</g>
<mask id="mask9_134_10550" style="mask-type:luminance" maskUnits="userSpaceOnUse" x="35" y="113" width="20" height="6">
<path d="M54.9319 117.46C52.1723 118.199 48.912 118.636 45.0763 118.647V118.649H44.9222V118.647C41.3674 118.636 38.3042 118.261 35.6786 117.618C35.4543 117.563 35.2345 117.507 35.019 117.448L37.756 113.566C37.756 113.566 40.6016 114.737 44.97 114.737C49.3403 114.737 52.1859 113.566 52.1859 113.566L54.9319 117.46Z" fill="white"/>
</mask>
<g mask="url(#mask9_134_10550)">
<path d="M54.9319 117.46C52.1723 118.199 48.912 118.636 45.0763 118.647V118.649H44.9222V118.647C41.3674 118.636 38.3042 118.261 35.6786 117.618C35.4543 117.563 35.2345 117.507 35.019 117.448L37.756 113.566C37.756 113.566 40.6016 114.737 44.97 114.737C49.3403 114.737 52.1859 113.566 52.1859 113.566L54.9319 117.46Z" fill="#BFA082"/>
</g>
<mask id="mask10_134_10550" style="mask-type:luminance" maskUnits="userSpaceOnUse" x="14" y="11" width="62" height="69">
<path d="M60.424 59.2668C55.8745 67.9972 57.9136 77.3665 57.9136 77.3665C57.9136 77.3665 54.4019 79.4958 44.9994 79.4958C35.5969 79.4958 32.0852 77.3665 32.0852 77.3665C32.0852 77.3665 34.1243 67.9972 29.5748 59.2668C25.0254 50.5364 14.0732 29.5621 14.0732 29.5621C15.7859 26.2829 17.789 23.3784 20.1361 20.9041C20.1361 20.9019 20.1361 20.9019 20.1361 20.9019C23.4893 17.3608 27.5403 14.6969 32.4227 13.0765C36.118 11.8478 40.2891 11.2154 44.9994 11.2495C49.7097 11.2176 53.883 11.85 57.5785 13.0786C65.8729 15.8319 71.7616 21.5897 75.9256 29.5621C75.9256 29.5621 64.9734 50.5364 60.424 59.2668Z" fill="white"/>
</mask>
<g mask="url(#mask10_134_10550)">
<path d="M60.424 59.2668C55.8745 67.9972 57.9136 77.3665 57.9136 77.3665C57.9136 77.3665 54.4019 79.4958 44.9994 79.4958C35.5969 79.4958 32.0852 77.3665 32.0852 77.3665C32.0852 77.3665 34.1243 67.9972 29.5748 59.2668C25.0254 50.5364 14.0732 29.5621 14.0732 29.5621C15.7859 26.2829 17.789 23.3784 20.1361 20.9041C20.1361 20.9019 20.1361 20.9019 20.1361 20.9019C23.4893 17.3608 27.5403 14.6969 32.4227 13.0765C36.118 11.8478 40.2891 11.2154 44.9994 11.2495C49.7097 11.2176 53.883 11.85 57.5785 13.0786C65.8729 15.8319 71.7616 21.5897 75.9256 29.5621C75.9256 29.5621 64.9734 50.5364 60.424 59.2668Z" fill="#F6C299"/>
</g>
<mask id="mask11_134_10550" style="mask-type:luminance" maskUnits="userSpaceOnUse" x="14" y="30" width="62" height="50">
<path d="M73.3865 30.1966C73.3865 30.1966 64.9377 46.0732 61.1993 53.575C57.461 61.0768 53.9381 69.3813 54.6811 75.5565C54.6811 75.5565 49.0033 77.8626 44.9999 77.8626C40.9965 77.8626 35.319 75.5565 35.319 75.5565C36.0619 69.3813 32.5388 61.0768 28.8005 53.575C25.0621 46.0732 16.6135 30.1966 16.6135 30.1966L14.6221 30.6119C14.7966 30.9483 15.0141 31.3593 15.261 31.8363C18.2199 37.5025 25.9412 52.2912 29.5753 59.2668C34.1248 67.9972 32.0857 77.3665 32.0857 77.3665C32.0857 77.3665 35.5974 79.4958 44.9999 79.4958C54.4024 79.4958 57.9141 77.3665 57.9141 77.3665C57.9141 77.3665 55.8751 67.9972 60.4245 59.2668C64.0588 52.2912 71.7802 37.5025 74.7389 31.8363C74.9861 31.3593 75.2036 30.9483 75.3778 30.6119L73.3865 30.1966Z" fill="white"/>
</mask>
<g mask="url(#mask11_134_10550)">
<path d="M73.3865 30.1966C73.3865 30.1966 64.9377 46.0732 61.1993 53.575C57.461 61.0768 53.9381 69.3813 54.6811 75.5565C54.6811 75.5565 49.0033 77.8626 44.9999 77.8626C40.9965 77.8626 35.319 75.5565 35.319 75.5565C36.0619 69.3813 32.5388 61.0768 28.8005 53.575C25.0621 46.0732 16.6135 30.1966 16.6135 30.1966L14.6221 30.6119C14.7966 30.9483 15.0141 31.3593 15.261 31.8363C18.2199 37.5025 25.9412 52.2912 29.5753 59.2668C34.1248 67.9972 32.0857 77.3665 32.0857 77.3665C32.0857 77.3665 35.5974 79.4958 44.9999 79.4958C54.4024 79.4958 57.9141 77.3665 57.9141 77.3665C57.9141 77.3665 55.8751 67.9972 60.4245 59.2668C64.0588 52.2912 71.7802 37.5025 74.7389 31.8363C74.9861 31.3593 75.2036 30.9483 75.3778 30.6119L73.3865 30.1966Z" fill="#F6C396"/>
</g>
<path d="M32.0859 77.3665C32.0859 77.3665 31.4629 76.9493 31.4629 76.7364C31.4629 76.5234 32.2174 76.6224 32.2174 76.6224L32.0859 77.3665Z" fill="#EBDCC9"/>
<path d="M57.9239 77.3665C57.9239 77.3665 58.5469 76.9493 58.5469 76.7364C58.5469 76.5234 57.7925 76.6224 57.7925 76.6224L57.9239 77.3665Z" fill="#EBDCC9"/>
<path d="M49.7758 34.3531C48.3124 35.5292 48.7565 38.9862 50.3046 41.8334C51.8527 44.6806 54.9114 46.1002 58.1966 44.1127C61.4818 42.1253 59.0117 36.5255 57.7058 35.0984C56.0705 33.3114 52.3813 32.2591 49.7758 34.3531Z" fill="white"/>
<path d="M56.7006 38.2467C57.0438 39.6678 56.0963 41.0815 54.5842 41.4043C53.0721 41.7272 51.5682 40.8367 51.2247 39.4155C50.881 37.9944 51.8287 36.5807 53.3408 36.2579C54.8527 35.9353 56.3571 36.8256 56.7006 38.2467Z" fill="#72BAAD"/>
<path d="M54.7094 36.564L52.3037 37.0776L52.7888 33.8504L54.7094 36.564Z" fill="#72BAAD"/>
<path d="M53.3081 41.2334L55.7136 40.72L55.2285 43.947L53.3081 41.2334Z" fill="#72BAAD"/>
<path d="M51.8794 38.8246C51.8794 39.9359 52.8382 40.8364 54.0195 40.8364C55.2018 40.8364 56.1606 39.9359 56.1606 38.8246C56.1606 37.7137 55.2018 36.8136 54.0195 36.8136C52.8382 36.8136 51.8794 37.7137 51.8794 38.8246Z" fill="#040606"/>
<mask id="mask12_134_10550" style="mask-type:luminance" maskUnits="userSpaceOnUse" x="51" y="36" width="6" height="5">
<path d="M51.9697 38.8247C51.9697 39.8896 52.8878 40.752 54.0197 40.752C55.1527 40.752 56.0706 39.8896 56.0706 38.8247C56.0706 37.7608 55.1527 36.8978 54.0197 36.8978C52.8878 36.8978 51.9697 37.7608 51.9697 38.8247Z" fill="white"/>
</mask>
<g mask="url(#mask12_134_10550)">
<path d="M51.9697 38.8247C51.9697 39.8896 52.8878 40.752 54.0197 40.752C55.1527 40.752 56.0706 39.8896 56.0706 38.8247C56.0706 37.7608 55.1527 36.8978 54.0197 36.8978C52.8878 36.8978 51.9697 37.7608 51.9697 38.8247Z" fill="black"/>
</g>
<path d="M52.7627 37.8311C52.7627 38.089 52.9852 38.2981 53.2593 38.2981C53.5332 38.2981 53.7557 38.089 53.7557 37.8311C53.7557 37.5737 53.5332 37.3652 53.2593 37.3652C52.9852 37.3652 52.7627 37.5737 52.7627 37.8311Z" fill="#C7CBCA"/>
<path d="M52.333 38.5699C52.333 38.7109 52.4547 38.8246 52.6038 38.8246C52.754 38.8246 52.8747 38.7109 52.8747 38.5699C52.8747 38.4294 52.754 38.3152 52.6038 38.3152C52.4547 38.3152 52.333 38.4294 52.333 38.5699Z" fill="#C7CBCA"/>
<path d="M40.2242 34.3531C41.6876 35.5292 41.2436 38.9862 39.6954 41.8334C38.1473 44.6806 35.0887 46.1002 31.8035 44.1127C28.5183 42.1253 30.9883 36.5255 32.2942 35.0984C33.9296 33.3114 37.6187 32.2591 40.2242 34.3531Z" fill="white"/>
<path d="M33.2998 38.2467C32.9564 39.6678 33.9041 41.0815 35.416 41.4043C36.9281 41.7272 38.4322 40.8367 38.7757 39.4155C39.1192 37.9944 38.1717 36.5807 36.6596 36.2579C35.1477 35.9353 33.6431 36.8256 33.2998 38.2467Z" fill="#72BAAD"/>
<path d="M35.2905 36.564L37.696 37.0776L37.2109 33.8504L35.2905 36.564Z" fill="#72BAAD"/>
<path d="M36.6916 41.2334L34.2861 40.72L34.7714 43.947L36.6916 41.2334Z" fill="#72BAAD"/>
<path d="M38.1205 38.8246C38.1205 39.9359 37.1617 40.8364 35.9804 40.8364C34.7982 40.8364 33.8394 39.9359 33.8394 38.8246C33.8394 37.7137 34.7982 36.8136 35.9804 36.8136C37.1617 36.8136 38.1205 37.7137 38.1205 38.8246Z" fill="#040606"/>
<mask id="mask13_134_10550" style="mask-type:luminance" maskUnits="userSpaceOnUse" x="33" y="36" width="6" height="5">
<path d="M38.03 38.8247C38.03 39.8896 37.1122 40.752 35.9801 40.752C34.8472 40.752 33.9292 39.8896 33.9292 38.8247C33.9292 37.7608 34.8472 36.8978 35.9801 36.8978C37.1122 36.8978 38.03 37.7608 38.03 38.8247Z" fill="white"/>
</mask>
<g mask="url(#mask13_134_10550)">
<path d="M38.03 38.8247C38.03 39.8896 37.1122 40.752 35.9801 40.752C34.8472 40.752 33.9292 39.8896 33.9292 38.8247C33.9292 37.7608 34.8472 36.8978 35.9801 36.8978C37.1122 36.8978 38.03 37.7608 38.03 38.8247Z" fill="black"/>
</g>
<path d="M37.2372 37.8311C37.2372 38.089 37.0145 38.2981 36.7403 38.2981C36.4664 38.2981 36.2441 38.089 36.2441 37.8311C36.2441 37.5737 36.4664 37.3652 36.7403 37.3652C37.0145 37.3652 37.2372 37.5737 37.2372 37.8311Z" fill="#C7CBCA"/>
<path d="M37.6667 38.5699C37.6667 38.7109 37.5448 38.8246 37.396 38.8246C37.2458 38.8246 37.125 38.7109 37.125 38.5699C37.125 38.4294 37.2458 38.3152 37.396 38.3152C37.5448 38.3152 37.6667 38.4294 37.6667 38.5699Z" fill="#C7CBCA"/>
<path d="M52.3009 47.2487C52.3009 50.4398 49.032 53.0272 44.9998 53.0272C40.9677 53.0272 37.6992 50.4398 37.6992 47.2487C37.6992 44.0575 40.9677 41.4705 44.9998 41.4705C49.032 41.4705 52.3009 44.0575 52.3009 47.2487Z" fill="#DE8655"/>
<mask id="mask14_134_10550" style="mask-type:luminance" maskUnits="userSpaceOnUse" x="37" y="40" width="16" height="12">
<path d="M52.3009 46.1954C52.3009 49.3867 49.032 51.9736 44.9998 51.9736C40.9677 51.9736 37.6992 49.3867 37.6992 46.1954C37.6992 43.0041 40.9677 40.4171 44.9998 40.4171C49.032 40.4171 52.3009 43.0041 52.3009 46.1954Z" fill="white"/>
</mask>
<g mask="url(#mask14_134_10550)">
<path d="M52.3009 46.1954C52.3009 49.3867 49.032 51.9736 44.9998 51.9736C40.9677 51.9736 37.6992 49.3867 37.6992 46.1954C37.6992 43.0041 40.9677 40.4171 44.9998 40.4171C49.032 40.4171 52.3009 43.0041 52.3009 46.1954Z" fill="#DD4639"/>
</g>
<path d="M47.6413 43.8206C47.6413 44.7415 46.4588 45.4883 45 45.4883C43.5413 45.4883 42.3589 44.7415 42.3589 43.8206C42.3589 42.8996 43.5413 42.1528 45 42.1528C46.4588 42.1528 47.6413 42.8996 47.6413 43.8206Z" fill="#F5C0AF"/>
<mask id="mask15_134_10550" style="mask-type:luminance" maskUnits="userSpaceOnUse" x="50" y="51" width="8" height="8">
<path d="M57.9117 55.0081C57.9117 57.037 56.162 58.6813 54.0035 58.6813C51.845 58.6813 50.0952 57.037 50.0952 55.0081C50.0952 52.9795 51.845 51.3349 54.0035 51.3349C56.162 51.3349 57.9117 52.9795 57.9117 55.0081Z" fill="white"/>
</mask>
<g mask="url(#mask15_134_10550)">
<path d="M57.9117 55.0081C57.9117 57.037 56.162 58.6813 54.0035 58.6813C51.845 58.6813 50.0952 57.037 50.0952 55.0081C50.0952 52.9795 51.845 51.3349 54.0035 51.3349C56.162 51.3349 57.9117 52.9795 57.9117 55.0081Z" fill="#ED9C7A"/>
</g>
<mask id="mask16_134_10550" style="mask-type:luminance" maskUnits="userSpaceOnUse" x="32" y="51" width="8" height="8">
<path d="M39.9046 55.0081C39.9046 57.037 38.1546 58.6813 35.9964 58.6813C33.8379 58.6813 32.0879 57.037 32.0879 55.0081C32.0879 52.9795 33.8379 51.3349 35.9964 51.3349C38.1546 51.3349 39.9046 52.9795 39.9046 55.0081Z" fill="white"/>
</mask>
<g mask="url(#mask16_134_10550)">
<path d="M39.9046 55.0081C39.9046 57.037 38.1546 58.6813 35.9964 58.6813C33.8379 58.6813 32.0879 57.037 32.0879 55.0081C32.0879 52.9795 33.8379 51.3349 35.9964 51.3349C38.1546 51.3349 39.9046 52.9795 39.9046 55.0081Z" fill="#ED9E7A"/>
</g>
<mask id="mask17_134_10550" style="mask-type:luminance" maskUnits="userSpaceOnUse" x="5" y="12" width="25" height="44">
<path d="M23.852 14.6565C23.852 14.6565 27.4204 12.6336 29.2895 15.0291C31.1587 17.4247 28.5532 19.767 28.5532 19.767C28.5532 19.767 30.2525 21.6302 29.2895 23.5998C28.3266 25.5695 26.2876 25.1969 26.2876 25.1969C26.2876 25.1969 26.854 27.273 25.7778 28.6571C24.7016 30.0412 22.4927 30.1966 22.4927 30.1966C22.4927 30.1966 25.268 31.8511 24.5317 34.2467C23.7953 36.6422 21.4165 37.3652 21.4165 37.3652C21.4165 37.3652 22.5493 38.1328 22.7191 39.4636C22.8891 40.7945 22.3227 41.4638 22.3227 41.4638C22.3227 41.4638 24.475 41.6995 24.9848 43.3498C25.4946 45 25.6228 47.2269 23.576 47.7637L26.2533 52.8947C26.2533 52.8947 25.7211 54.3294 23.5688 54.1099C23.5688 54.1099 22.9457 55.5936 21.4165 55.3807C19.8872 55.1678 19.3774 54.1099 19.3774 54.1099C19.3774 54.1099 17.4576 55.221 16.0668 53.1981C14.6762 51.1752 16.4575 49.6314 16.4575 49.6314C16.4575 49.6314 14.4348 51.3881 12.6012 50.004C10.7679 48.6199 11.4476 47.5553 11.4476 47.5553C11.4476 47.5553 6.85965 48.8861 5.38697 44.2015C3.9143 39.5169 8.33232 37.8315 8.33232 37.8315C8.33232 37.8315 5.33033 35.1027 6.40652 31.8533C7.4827 28.6039 9.35187 28.3377 9.35187 28.3377C9.35187 28.3377 6.97293 26.368 7.93583 23.5998C8.89874 20.8316 11.1644 19.9267 12.9203 20.1928C12.9203 20.1928 10.9222 15.8511 15.016 13.2724C20.3403 9.91862 23.852 14.6565 23.852 14.6565Z" fill="white"/>
</mask>
<g mask="url(#mask17_134_10550)">
<path d="M23.852 14.6565C23.852 14.6565 27.4204 12.6336 29.2895 15.0291C31.1587 17.4247 28.5532 19.767 28.5532 19.767C28.5532 19.767 30.2525 21.6302 29.2895 23.5998C28.3266 25.5695 26.2876 25.1969 26.2876 25.1969C26.2876 25.1969 26.854 27.273 25.7778 28.6571C24.7016 30.0412 22.4927 30.1966 22.4927 30.1966C22.4927 30.1966 25.268 31.8511 24.5317 34.2467C23.7953 36.6422 21.4165 37.3652 21.4165 37.3652C21.4165 37.3652 22.5493 38.1328 22.7191 39.4636C22.8891 40.7945 22.3227 41.4638 22.3227 41.4638C22.3227 41.4638 24.475 41.6995 24.9848 43.3498C25.4946 45 25.6228 47.2269 23.576 47.7637L26.2533 52.8947C26.2533 52.8947 25.7211 54.3294 23.5688 54.1099C23.5688 54.1099 22.9457 55.5936 21.4165 55.3807C19.8872 55.1678 19.3774 54.1099 19.3774 54.1099C19.3774 54.1099 17.4576 55.221 16.0668 53.1981C14.6762 51.1752 16.4575 49.6314 16.4575 49.6314C16.4575 49.6314 14.4348 51.3881 12.6012 50.004C10.7679 48.6199 11.4476 47.5553 11.4476 47.5553C11.4476 47.5553 6.85965 48.8861 5.38697 44.2015C3.9143 39.5169 8.33232 37.8315 8.33232 37.8315C8.33232 37.8315 5.33033 35.1027 6.40652 31.8533C7.4827 28.6039 9.35187 28.3377 9.35187 28.3377C9.35187 28.3377 6.97293 26.368 7.93583 23.5998C8.89874 20.8316 11.1644 19.9267 12.9203 20.1928C12.9203 20.1928 10.9222 15.8511 15.016 13.2724C20.3403 9.91862 23.852 14.6565 23.852 14.6565Z" fill="#E1582E"/>
</g>
<path d="M22.0676 43.483C22.0676 43.483 20.5802 43.5894 19.7037 44.2016C18.8273 44.8138 16.0915 46.4089 13.4356 45.0391C10.7796 43.6693 12.692 41.0342 12.692 41.0342C12.692 41.0342 19.863 40.7414 22.0676 43.483Z" fill="#BE3930"/>
<mask id="mask18_134_10550" style="mask-type:luminance" maskUnits="userSpaceOnUse" x="11" y="36" width="12" height="9">
<path d="M21.058 37.8434C21.058 37.8434 17.0578 35.8016 14.5907 36.9766C12.1239 38.1516 10.6399 41.6452 12.0397 43.2308C13.4393 44.8165 16.1465 44.821 17.9087 43.7665C19.6708 42.7123 21.6683 43.3743 21.6683 43.3743C22.1399 42.1742 22.8004 39.6436 21.058 37.8434Z" fill="white"/>
</mask>
<g mask="url(#mask18_134_10550)">
<path d="M21.058 37.8434C21.058 37.8434 17.0578 35.8016 14.5907 36.9766C12.1239 38.1516 10.6399 41.6452 12.0397 43.2308C13.4393 44.8165 16.1465 44.821 17.9087 43.7665C19.6708 42.7123 21.6683 43.3743 21.6683 43.3743C22.1399 42.1742 22.8004 39.6436 21.058 37.8434Z" fill="#ECAE7F"/>
</g>
<mask id="mask19_134_10550" style="mask-type:luminance" maskUnits="userSpaceOnUse" x="13" y="38" width="5" height="5">
<path d="M13.8314 40.286C13.8314 40.286 13.292 42.395 15.6831 42.5988C15.6831 42.5988 17.7671 41.3094 17.6919 40.1704C17.6167 39.0312 17.1364 38.3036 16.65 38.3641C16.1642 38.4241 14.5101 39.2712 13.8314 40.286Z" fill="white"/>
</mask>
<g mask="url(#mask19_134_10550)">
<path d="M13.8314 40.286C13.8314 40.286 13.292 42.395 15.6831 42.5988C15.6831 42.5988 17.7671 41.3094 17.6919 40.1704C17.6167 39.0312 17.1364 38.3036 16.65 38.3641C16.1642 38.4241 14.5101 39.2712 13.8314 40.286Z" fill="#ECA672"/>
</g>
<path d="M13.8311 40.286C13.8311 40.286 16.0098 37.9105 17.1117 38.8917C18.2135 39.873 16.4956 41.9548 15.6827 42.5988C15.6827 42.5988 19.135 41.1527 18.0971 39.1315C17.0592 37.1103 15.0394 38.5446 13.8311 40.286Z" fill="#D79469"/>
<mask id="mask20_134_10550" style="mask-type:luminance" maskUnits="userSpaceOnUse" x="18" y="36" width="6" height="8">
<path d="M18.5249 36.3332L21.8758 43.9001C21.8758 43.9001 24.2319 41.7806 23.5898 39.707C22.948 37.6334 20.0697 35.6184 18.5249 36.3332Z" fill="white"/>
</mask>
<g mask="url(#mask20_134_10550)">
<path d="M18.5249 36.3332L21.8758 43.9001C21.8758 43.9001 24.2319 41.7806 23.5898 39.707C22.948 37.6334 20.0697 35.6184 18.5249 36.3332Z" fill="#E1582E"/>
</g>
<mask id="mask21_134_10550" style="mask-type:luminance" maskUnits="userSpaceOnUse" x="60" y="12" width="25" height="44">
<path d="M66.1702 14.6565C66.1702 14.6565 62.6018 12.6336 60.7327 15.0291C58.8635 17.4247 61.469 19.767 61.469 19.767C61.469 19.767 59.7698 21.6302 60.7327 23.5998C61.6956 25.5695 63.7347 25.1969 63.7347 25.1969C63.7347 25.1969 63.1683 27.273 64.2444 28.6571C65.3206 30.0412 67.5296 30.1966 67.5296 30.1966C67.5296 30.1966 64.7542 31.8511 65.4905 34.2467C66.2269 36.6422 68.6058 37.3652 68.6058 37.3652C68.6058 37.3652 67.473 38.1328 67.3031 39.4636C67.1331 40.7945 67.6996 41.4638 67.6996 41.4638C67.6996 41.4638 65.5472 41.6995 65.0374 43.3498C64.5276 45 64.3996 47.2269 66.4462 47.7637L63.7691 52.8947C63.7691 52.8947 64.3011 54.3294 66.4535 54.1099C66.4535 54.1099 67.0765 55.5936 68.6058 55.3807C70.1351 55.1678 70.6449 54.1099 70.6449 54.1099C70.6449 54.1099 72.5648 55.221 73.9557 53.1981C75.3461 51.1752 73.5649 49.6314 73.5649 49.6314C73.5649 49.6314 75.5877 51.3881 77.421 50.004C79.2544 48.6199 78.5747 47.5553 78.5747 47.5553C78.5747 47.5553 83.1627 48.8861 84.6353 44.2015C86.108 39.5169 81.69 37.8315 81.69 37.8315C81.69 37.8315 84.692 35.1027 83.6158 31.8533C82.5396 28.6039 80.6704 28.3377 80.6704 28.3377C80.6704 28.3377 83.0494 26.368 82.0865 23.5998C81.1236 20.8316 78.8579 19.9267 77.102 20.1928C77.102 20.1928 79.1003 15.8511 75.0063 13.2724C69.682 9.91862 66.1702 14.6565 66.1702 14.6565Z" fill="white"/>
</mask>
<g mask="url(#mask21_134_10550)">
<path d="M66.1702 14.6565C66.1702 14.6565 62.6018 12.6336 60.7327 15.0291C58.8635 17.4247 61.469 19.767 61.469 19.767C61.469 19.767 59.7698 21.6302 60.7327 23.5998C61.6956 25.5695 63.7347 25.1969 63.7347 25.1969C63.7347 25.1969 63.1683 27.273 64.2444 28.6571C65.3206 30.0412 67.5296 30.1966 67.5296 30.1966C67.5296 30.1966 64.7542 31.8511 65.4905 34.2467C66.2269 36.6422 68.6058 37.3652 68.6058 37.3652C68.6058 37.3652 67.473 38.1328 67.3031 39.4636C67.1331 40.7945 67.6996 41.4638 67.6996 41.4638C67.6996 41.4638 65.5472 41.6995 65.0374 43.3498C64.5276 45 64.3996 47.2269 66.4462 47.7637L63.7691 52.8947C63.7691 52.8947 64.3011 54.3294 66.4535 54.1099C66.4535 54.1099 67.0765 55.5936 68.6058 55.3807C70.1351 55.1678 70.6449 54.1099 70.6449 54.1099C70.6449 54.1099 72.5648 55.221 73.9557 53.1981C75.3461 51.1752 73.5649 49.6314 73.5649 49.6314C73.5649 49.6314 75.5877 51.3881 77.421 50.004C79.2544 48.6199 78.5747 47.5553 78.5747 47.5553C78.5747 47.5553 83.1627 48.8861 84.6353 44.2015C86.108 39.5169 81.69 37.8315 81.69 37.8315C81.69 37.8315 84.692 35.1027 83.6158 31.8533C82.5396 28.6039 80.6704 28.3377 80.6704 28.3377C80.6704 28.3377 83.0494 26.368 82.0865 23.5998C81.1236 20.8316 78.8579 19.9267 77.102 20.1928C77.102 20.1928 79.1003 15.8511 75.0063 13.2724C69.682 9.91862 66.1702 14.6565 66.1702 14.6565Z" fill="#E1582E"/>
</g>
<path d="M67.9541 43.483C67.9541 43.483 69.4417 43.5894 70.3181 44.2016C71.1944 44.8138 73.9302 46.4089 76.5862 45.0391C79.2423 43.6693 77.3298 41.0342 77.3298 41.0342C77.3298 41.0342 70.1586 40.7414 67.9541 43.483Z" fill="#BE3930"/>
<mask id="mask22_134_10550" style="mask-type:luminance" maskUnits="userSpaceOnUse" x="67" y="36" width="12" height="9">
<path d="M68.9638 37.8434C68.9638 37.8434 72.9641 35.8016 75.4312 36.9766C77.8978 38.1516 79.3818 41.6452 77.982 43.2308C76.5826 44.8165 73.8751 44.821 72.1131 43.7665C70.3511 42.7123 68.3535 43.3743 68.3535 43.3743C67.8818 42.1742 67.2211 39.6436 68.9638 37.8434Z" fill="white"/>
</mask>
<g mask="url(#mask22_134_10550)">
<path d="M68.9638 37.8434C68.9638 37.8434 72.9641 35.8016 75.4312 36.9766C77.8978 38.1516 79.3818 41.6452 77.982 43.2308C76.5826 44.8165 73.8751 44.821 72.1131 43.7665C70.3511 42.7123 68.3535 43.3743 68.3535 43.3743C67.8818 42.1742 67.2211 39.6436 68.9638 37.8434Z" fill="#ECAE7F"/>
</g>
<mask id="mask23_134_10550" style="mask-type:luminance" maskUnits="userSpaceOnUse" x="72" y="38" width="5" height="5">
<path d="M76.1908 40.286C76.1908 40.286 76.73 42.395 74.3391 42.5988C74.3391 42.5988 72.2551 41.3094 72.3301 40.1704C72.4053 39.0312 72.8859 38.3036 73.3723 38.3641C73.8581 38.4241 75.5122 39.2712 76.1908 40.286Z" fill="white"/>
</mask>
<g mask="url(#mask23_134_10550)">
<path d="M76.1908 40.286C76.1908 40.286 76.73 42.395 74.3391 42.5988C74.3391 42.5988 72.2551 41.3094 72.3301 40.1704C72.4053 39.0312 72.8859 38.3036 73.3723 38.3641C73.8581 38.4241 75.5122 39.2712 76.1908 40.286Z" fill="#EAA470"/>
</g>
<path d="M76.1906 40.286C76.1906 40.286 74.0119 37.9105 72.9101 38.8917C71.8081 39.873 73.5259 41.9548 74.3388 42.5988C74.3388 42.5988 70.8867 41.1527 71.9246 39.1315C72.9622 37.1103 74.9823 38.5446 76.1906 40.286Z" fill="#D89268"/>
<mask id="mask24_134_10550" style="mask-type:luminance" maskUnits="userSpaceOnUse" x="66" y="36" width="6" height="8">
<path d="M71.4972 36.3332L68.1463 43.9001C68.1463 43.9001 65.7902 41.7806 66.4321 39.707C67.0742 37.6334 69.9523 35.6184 71.4972 36.3332Z" fill="white"/>
</mask>
<g mask="url(#mask24_134_10550)">
<path d="M71.4972 36.3332L68.1463 43.9001C68.1463 43.9001 65.7902 41.7806 66.4321 39.707C67.0742 37.6334 69.9523 35.6184 71.4972 36.3332Z" fill="#E1582E"/>
</g>
<path d="M54.0046 64.1996C52.8862 61.4314 49.5972 58.0249 45.0006 58.0244H45.0004C45.0004 58.0244 45.0004 58.0244 45.0002 58.0244C40.4038 58.0249 37.1148 61.4314 35.9965 64.1996C34.8784 66.9678 37.1059 68.4584 38.6541 67.7842C40.2026 67.1096 40.9601 66.1872 44.9999 66.1872H45.0008C49.0407 66.1872 49.7984 67.1096 51.3467 67.7842C52.8951 68.4584 55.1227 66.9678 54.0046 64.1996Z" fill="white"/>
<path d="M49.675 62.0205C49.4976 61.8829 49.3112 61.7535 49.1143 61.6357C48.7194 61.4017 48.2948 61.2028 47.8442 61.0535C47.3944 60.9043 46.9268 60.7927 46.4483 60.7292C45.9709 60.6609 45.4856 60.6338 45.0001 60.636C44.5146 60.6338 44.0288 60.6609 43.5516 60.7292C43.0734 60.7927 42.6055 60.9043 42.1558 61.0535C41.7054 61.2028 41.2808 61.4017 40.8861 61.6357C40.689 61.7535 40.5023 61.8829 40.3251 62.0205C40.1484 62.1585 39.9798 62.3054 39.8364 62.4685C40.0727 62.1169 40.4001 61.8033 40.7701 61.5278C41.1394 61.2494 41.564 61.0165 42.0178 60.8248C42.4723 60.633 42.9617 60.4925 43.464 60.396C43.9674 60.3017 44.4844 60.2563 45.0001 60.2533C45.5157 60.2563 46.0328 60.3017 46.5362 60.396C47.0385 60.4925 47.5283 60.633 47.9824 60.8248C48.4357 61.0165 48.8608 61.2494 49.2303 61.5278C49.6003 61.8033 49.927 62.1169 50.1637 62.4685C50.0205 62.3054 49.8515 62.1585 49.675 62.0205Z" fill="#B46135"/>
<path d="M48.5643 63.4326C48.4291 63.3423 48.287 63.2575 48.1368 63.1804C47.8357 63.0271 47.5119 62.8972 47.1682 62.7995C46.8254 62.7018 46.4688 62.6285 46.104 62.587C45.7402 62.5425 45.37 62.5246 44.9998 62.5259C44.6295 62.5246 44.2593 62.5425 43.8952 62.587C43.5307 62.6285 43.1741 62.7018 42.8311 62.7995C42.4876 62.8972 42.1638 63.0271 41.863 63.1804C41.7125 63.2575 41.5705 63.3423 41.4354 63.4326C41.3006 63.5228 41.1719 63.6189 41.0625 63.7253C41.2428 63.4958 41.4925 63.2903 41.7744 63.1097C42.056 62.9277 42.38 62.7754 42.7257 62.6498C43.0724 62.5242 43.4455 62.4324 43.8284 62.3691C44.2124 62.3076 44.6067 62.2776 44.9998 62.2755C45.3931 62.2776 45.7871 62.3076 46.1709 62.3691C46.5542 62.4324 46.9274 62.5242 47.2736 62.6498C47.6195 62.7754 47.9435 62.9277 48.2254 63.1097C48.5074 63.2903 48.7564 63.4958 48.9368 63.7253C48.8278 63.6189 48.6989 63.5228 48.5643 63.4326Z" fill="#D1835B"/>
<path d="M44.9995 26.1783C44.9995 26.1783 31.7143 26.1602 29.2656 28.6746C29.2656 28.6746 32.5304 27.0711 44.9995 27.0711C57.469 27.0711 60.7335 28.6746 60.7335 28.6746C58.2853 26.1602 44.9995 26.1783 44.9995 26.1783Z" fill="#F1E5DC"/>
<path d="M44.9995 25.9415C30.0817 25.9415 29.2656 28.6746 29.2656 28.6746C33.2106 26.2147 44.9995 26.5154 44.9995 26.5154C44.9995 26.5154 56.7888 26.2147 60.7335 28.6746C60.7335 28.6746 59.9172 25.9415 44.9995 25.9415Z" fill="#EB9A6A"/>
<path d="M44.9997 18.9789C41.3209 18.9789 38.6228 19.359 30.6816 22.1721C30.6816 22.1721 38.0833 20.0685 44.9997 19.7772C51.9163 20.0685 59.3179 22.1721 59.3179 22.1721C51.377 19.359 48.6787 18.9789 44.9997 18.9789Z" fill="#EB9A6A"/>
<path d="M44.9997 19.547C41.3527 19.547 40.7933 19.378 30.6816 22.1721C30.6816 22.1721 38.6497 20.1573 44.9997 20.1573C51.3499 20.1573 59.3179 22.1721 59.3179 22.1721C49.2063 19.378 48.6469 19.547 44.9997 19.547Z" fill="#F1E5DC"/>
<path d="M44.9996 76.5996C42.9746 76.5996 42.0049 74.4685 42.1922 73.393C42.1947 73.376 42.1977 73.3589 42.202 73.3415C42.431 72.2834 43.7331 71.2425 43.7331 71.2425C43.7331 71.2425 44.5422 70.9779 44.9996 70.9779C45.4571 70.9779 46.2663 71.2425 46.2663 71.2425C46.2663 71.2425 47.5682 72.2834 47.7979 73.3415C47.802 73.3589 47.8045 73.376 47.8077 73.393C47.9948 74.4685 47.0249 76.5996 44.9996 76.5996Z" fill="#D97449"/>
<mask id="mask25_134_10550" style="mask-type:luminance" maskUnits="userSpaceOnUse" x="42" y="70" width="6" height="7">
<path d="M47.8078 73.3931C47.6499 74.511 46.6945 76.0042 44.9998 76.0042C43.3057 76.0042 42.3496 74.511 42.1924 73.3931C42.1949 73.3761 42.1978 73.359 42.2021 73.3416C42.4312 72.2835 43.7333 71.2427 43.7333 71.2427C43.7333 71.2427 44.5423 70.978 44.9998 70.978C45.4572 70.978 46.2665 71.2427 46.2665 71.2427C46.2665 71.2427 47.5683 72.2835 47.7981 73.3416C47.8021 73.359 47.8046 73.3761 47.8078 73.3931Z" fill="white"/>
</mask>
<g mask="url(#mask25_134_10550)">
<path d="M47.8078 73.3931C47.6499 74.511 46.6945 76.0042 44.9998 76.0042C43.3057 76.0042 42.3496 74.511 42.1924 73.3931C42.1949 73.3761 42.1978 73.359 42.2021 73.3416C42.4312 72.2835 43.7333 71.2427 43.7333 71.2427C43.7333 71.2427 44.5423 70.978 44.9998 70.978C45.4572 70.978 46.2665 71.2427 46.2665 71.2427C46.2665 71.2427 47.5683 72.2835 47.7981 73.3416C47.8021 73.359 47.8046 73.3761 47.8078 73.3931Z" fill="#EDAF7C"/>
</g>
<path d="M46.0286 73.5657C46.0286 74.036 45.568 74.417 44.9995 74.417C44.4313 74.417 43.9702 74.036 43.9702 73.5657C43.9702 73.0953 44.4313 72.7139 44.9995 72.7139C45.568 72.7139 46.0286 73.0953 46.0286 73.5657Z" fill="#F6C396"/>
<mask id="mask26_134_10550" style="mask-type:luminance" maskUnits="userSpaceOnUse" x="20" y="80" width="27" height="38">
<path d="M40.9756 113.557V113.559C40.6606 113.889 40.3276 114.226 39.9787 114.562C39.3466 115.11 38.6331 115.678 37.9101 116.223C37.0809 116.851 36.2381 117.454 35.4997 117.969C29.5 116.498 25.7322 113.649 23.5255 110.504C22.6533 109.262 22.0256 107.976 21.5975 106.711C21.1963 105.521 20.9721 104.35 20.8906 103.253C20.8248 102.346 20.8565 101.488 20.9653 100.711C21.0469 100.132 21.1897 99.4909 21.3844 98.8029C21.7765 97.4082 22.3746 95.8239 23.0814 94.1866C23.9449 92.1869 24.9619 90.1065 25.9611 88.1856C27.5855 85.0578 29.1534 82.3578 29.8784 81.1291C30.1301 80.7032 30.2796 80.4541 30.2978 80.4243C30.3 80.4222 30.3 80.4222 30.3 80.4222C30.3 80.4222 39.2899 89.3185 45.0288 97.1315C46.2545 99.4225 48.5474 105.581 40.9756 113.557Z" fill="white"/>
</mask>
<g mask="url(#mask26_134_10550)">
<path d="M40.9756 113.557V113.559C40.6606 113.889 40.3276 114.226 39.9787 114.562C39.3466 115.11 38.6331 115.678 37.9101 116.223C37.0809 116.851 36.2381 117.454 35.4997 117.969C29.5 116.498 25.7322 113.649 23.5255 110.504C22.6533 109.262 22.0256 107.976 21.5975 106.711C21.1963 105.521 20.9721 104.35 20.8906 103.253C20.8248 102.346 20.8565 101.488 20.9653 100.711C21.0469 100.132 21.1897 99.4909 21.3844 98.8029C21.7765 97.4082 22.3746 95.8239 23.0814 94.1866C23.9449 92.1869 24.9619 90.1065 25.9611 88.1856C27.5855 85.0578 29.1534 82.3578 29.8784 81.1291C30.1301 80.7032 30.2796 80.4541 30.2978 80.4243C30.3 80.4222 30.3 80.4222 30.3 80.4222C30.3 80.4222 39.2899 89.3185 45.0288 97.1315C46.2545 99.4225 48.5474 105.581 40.9756 113.557Z" fill="#7C568E"/>
</g>
<path d="M27.4641 85.373C27.4641 85.373 26.7405 88.2796 27.8166 89.0248C28.8928 89.7701 33.7074 90.2492 35.1234 89.8766C35.1234 89.8766 33.9906 93.603 35.1234 94.508C36.2562 94.9871 42.2443 96.3712 44.9711 101.056V99.1956C44.9711 99.1956 40.561 94.5293 36.8793 93.2142C35.9164 92.3254 36.534 89.0798 37.6695 88.2135C37.6695 88.2135 33.4099 87.694 31.4628 87.0552C29.5159 86.4164 28.9642 82.7004 28.9642 82.7004C28.9642 82.7004 28.0745 84.2489 27.4641 85.373Z" fill="#5B3375"/>
<path d="M43.8811 98.9168C43.8811 98.9168 42.1589 103.345 44.5413 108.793C44.5413 108.793 45.0216 107.87 45.3304 107.151L44.5068 98.802L43.8811 98.9168Z" fill="#693C87"/>
<mask id="mask27_134_10550" style="mask-type:luminance" maskUnits="userSpaceOnUse" x="33" y="74" width="12" height="11">
<path d="M39.4794 75.4452C37.322 74.8093 34.9533 74.4116 34.7208 75.008C34.4882 75.604 33.6211 77.711 33.6211 79.8378C33.6211 81.9646 34.4882 84.0717 34.7208 84.6675C34.9533 85.2643 37.322 84.8668 39.4794 84.2309C41.6365 83.5945 44.3225 81.17 44.3225 81.17V79.8378V78.5061C44.3225 78.5061 41.6365 76.081 39.4794 75.4452Z" fill="white"/>
</mask>
<g mask="url(#mask27_134_10550)">
<path d="M39.4794 75.4452C37.322 74.8093 34.9533 74.4116 34.7208 75.008C34.4882 75.604 33.6211 77.711 33.6211 79.8378C33.6211 81.9646 34.4882 84.0717 34.7208 84.6675C34.9533 85.2643 37.322 84.8668 39.4794 84.2309C41.6365 83.5945 44.3225 81.17 44.3225 81.17V79.8378V78.5061C44.3225 78.5061 41.6365 76.081 39.4794 75.4452Z" fill="#4D88CA"/>
</g>
<mask id="mask28_134_10550" style="mask-type:luminance" maskUnits="userSpaceOnUse" x="37" y="76" width="8" height="3">
<path d="M44.1428 78.8243C44.1428 78.8243 42.3451 78.3867 41.5414 77.9393C40.7383 77.4926 39.2153 76.8167 38.5172 76.8263C37.8194 76.8363 37.6821 77.2939 37.6712 77.4926C37.6606 77.691 37.6712 78.168 38.4751 78.3967C39.2785 78.6254 41.0024 78.9437 41.6792 78.8737C42.3557 78.8043 43.3127 78.7749 44.1428 78.9337V78.8243Z" fill="white"/>
</mask>
<g mask="url(#mask28_134_10550)">
<path d="M44.1428 78.8243C44.1428 78.8243 42.3451 78.3867 41.5414 77.9393C40.7383 77.4926 39.2153 76.8167 38.5172 76.8263C37.8194 76.8363 37.6821 77.2939 37.6712 77.4926C37.6606 77.691 37.6712 78.168 38.4751 78.3967C39.2785 78.6254 41.0024 78.9437 41.6792 78.8737C42.3557 78.8043 43.3127 78.7749 44.1428 78.9337V78.8243Z" fill="#4182BA"/>
</g>
<path d="M44.1427 78.9337C44.1427 78.9337 42.4086 78.566 42.0701 78.556C41.7318 78.546 40.7062 78.0292 40.1776 77.8901C39.6488 77.7508 39.6699 78.1384 39.8602 78.208C40.0503 78.2774 41.2506 78.6301 42.0862 78.685C42.4772 78.7199 43.9139 78.8771 44.1427 78.9337Z" fill="#4773AD"/>
<mask id="mask29_134_10550" style="mask-type:luminance" maskUnits="userSpaceOnUse" x="37" y="80" width="8" height="3">
<path d="M44.1428 80.1777C44.1428 80.1777 42.3451 80.615 41.5414 81.0622C40.7383 81.5096 39.2153 82.1854 38.5172 82.1754C37.8194 82.1654 37.6821 81.708 37.6712 81.5096C37.6606 81.3109 37.6712 80.8339 38.4751 80.605C39.2785 80.3767 41.0024 80.0586 41.6792 80.128C42.3557 80.1975 43.3127 80.2275 44.1428 80.0686V80.1777Z" fill="white"/>
</mask>
<g mask="url(#mask29_134_10550)">
<path d="M44.1428 80.1777C44.1428 80.1777 42.3451 80.615 41.5414 81.0622C40.7383 81.5096 39.2153 82.1854 38.5172 82.1754C37.8194 82.1654 37.6821 81.708 37.6712 81.5096C37.6606 81.3109 37.6712 80.8339 38.4751 80.605C39.2785 80.3767 41.0024 80.0586 41.6792 80.128C42.3557 80.1975 43.3127 80.2275 44.1428 80.0686V80.1777Z" fill="#4182BA"/>
</g>
<path d="M44.1427 80.0687C44.1427 80.0687 42.4086 80.4358 42.0701 80.4463C41.7318 80.4563 40.7062 80.9729 40.1776 81.1117C39.6488 81.2512 39.6699 80.8634 39.8602 80.794C40.0503 80.7246 41.2506 80.3719 42.0862 80.317C42.4772 80.2821 43.9139 80.1247 44.1427 80.0687Z" fill="#4773AD"/>
<path d="M43.3652 77.711C43.3652 77.711 43.7839 78.8762 43.7839 79.7876C43.7839 80.6992 43.5746 81.7992 43.5746 81.7992L44.3508 81.1416L44.3225 78.2874L43.3652 77.711Z" fill="#3F74B7"/>
<path d="M41.9398 78.5366C41.9398 78.5366 40.7059 77.8171 39.9304 77.5854C39.1546 77.3533 38.6686 77.3137 38.5841 77.5388C38.4994 77.7643 39.2604 78.0324 39.8599 78.2081L41.9398 78.5366Z" fill="#3F74B7"/>
<path d="M41.9398 80.4659C41.9398 80.4659 40.7059 81.1845 39.9304 81.4171C39.1546 81.6487 38.6686 81.6886 38.5841 81.4633C38.4994 81.2382 39.2604 80.9695 39.8599 80.794L41.9398 80.4659Z" fill="#3F74B7"/>
<mask id="mask30_134_10550" style="mask-type:luminance" maskUnits="userSpaceOnUse" x="45" y="74" width="12" height="11">
<path d="M50.521 84.0816C52.6779 84.7175 55.0467 85.115 55.2794 84.5186C55.5123 83.9222 56.3791 81.8154 56.3791 79.6885C56.3791 77.5619 55.5123 75.4547 55.2794 74.8583C55.0467 74.2627 52.6779 74.6598 50.521 75.2959C48.3637 75.9321 45.6777 78.3568 45.6777 78.3568V79.6885V81.0207C45.6777 81.0207 48.3637 83.4456 50.521 84.0816Z" fill="white"/>
</mask>
<g mask="url(#mask30_134_10550)">
<path d="M50.521 84.0816C52.6779 84.7175 55.0467 85.115 55.2794 84.5186C55.5123 83.9222 56.3791 81.8154 56.3791 79.6885C56.3791 77.5619 55.5123 75.4547 55.2794 74.8583C55.0467 74.2627 52.6779 74.6598 50.521 75.2959C48.3637 75.9321 45.6777 78.3568 45.6777 78.3568V79.6885V81.0207C45.6777 81.0207 48.3637 83.4456 50.521 84.0816Z" fill="#4D88CA"/>
</g>
<mask id="mask31_134_10550" style="mask-type:luminance" maskUnits="userSpaceOnUse" x="45" y="80" width="8" height="3">
<path d="M45.8574 80.7022C45.8574 80.7022 47.6552 81.1394 48.4588 81.587C49.2625 82.0339 50.7852 82.7102 51.4835 82.7002C52.1811 82.6893 52.3186 82.2328 52.3293 82.0339C52.3397 81.8353 52.3293 81.3581 51.5254 81.1298C50.7218 80.9011 48.9981 80.583 48.3213 80.6528C47.6446 80.7222 46.6876 80.7518 45.8574 80.593V80.7022Z" fill="white"/>
</mask>
<g mask="url(#mask31_134_10550)">
<path d="M45.8574 80.7022C45.8574 80.7022 47.6552 81.1394 48.4588 81.587C49.2625 82.0339 50.7852 82.7102 51.4835 82.7002C52.1811 82.6893 52.3186 82.2328 52.3293 82.0339C52.3397 81.8353 52.3293 81.3581 51.5254 81.1298C50.7218 80.9011 48.9981 80.583 48.3213 80.6528C47.6446 80.7222 46.6876 80.7518 45.8574 80.593V80.7022Z" fill="#4182BA"/>
</g>
<path d="M45.8574 80.5932C45.8574 80.5932 47.5918 80.9607 47.93 80.9711C48.2685 80.9807 49.294 81.4973 49.8228 81.6366C50.3516 81.7754 50.3305 81.3883 50.1404 81.3184C49.9499 81.249 48.7495 80.8964 47.9142 80.8415C47.5231 80.807 46.0867 80.6496 45.8574 80.5932Z" fill="#4773AD"/>
<mask id="mask32_134_10550" style="mask-type:luminance" maskUnits="userSpaceOnUse" x="45" y="77" width="8" height="3">
<path d="M45.8574 79.3488C45.8574 79.3488 47.6552 78.9116 48.4588 78.4647C49.2625 78.0171 50.7852 77.3412 51.4835 77.3517C52.1811 77.3612 52.3186 77.8186 52.3293 78.0171C52.3397 78.216 52.3293 78.693 51.5254 78.9212C50.7218 79.1503 48.9981 79.4683 48.3213 79.3986C47.6446 79.3292 46.6876 79.2994 45.8574 79.4583V79.3488Z" fill="white"/>
</mask>
<g mask="url(#mask32_134_10550)">
<path d="M45.8574 79.3488C45.8574 79.3488 47.6552 78.9116 48.4588 78.4647C49.2625 78.0171 50.7852 77.3412 51.4835 77.3517C52.1811 77.3612 52.3186 77.8186 52.3293 78.0171C52.3397 78.216 52.3293 78.693 51.5254 78.9212C50.7218 79.1503 48.9981 79.4683 48.3213 79.3986C47.6446 79.3292 46.6876 79.2994 45.8574 79.4583V79.3488Z" fill="#4182BA"/>
</g>
<path d="M45.8574 79.4583C45.8574 79.4583 47.5918 79.0905 47.93 79.0805C48.2685 79.0705 49.294 78.5541 49.8228 78.4151C50.3516 78.2758 50.3305 78.6634 50.1404 78.7328C49.9499 78.8024 48.7495 79.155 47.9142 79.21C47.5231 79.2449 46.0867 79.402 45.8574 79.4583Z" fill="#4773AD"/>
<path d="M46.6348 81.8158C46.6348 81.8158 46.2163 80.65 46.2163 79.7388C46.2163 78.8276 46.4254 77.7276 46.4254 77.7276L45.6494 78.3847L45.6777 81.2389L46.6348 81.8158Z" fill="#3F74B7"/>
<path d="M48.0601 80.9903C48.0601 80.9903 49.2939 81.7094 50.0695 81.9415C50.845 82.1736 51.3314 82.213 51.416 81.9877C51.5009 81.7626 50.7397 81.4943 50.1404 81.3184L48.0601 80.9903Z" fill="#3F74B7"/>
<path d="M48.0601 79.0608C48.0601 79.0608 49.2939 78.3413 50.0695 78.1098C50.845 77.8781 51.3314 77.8381 51.416 78.0636C51.5009 78.2885 50.7397 78.5572 50.1404 78.7327L48.0601 79.0608Z" fill="#3F74B7"/>
<mask id="mask33_134_10550" style="mask-type:luminance" maskUnits="userSpaceOnUse" x="43" y="77" width="4" height="5">
<path d="M46.2782 78.0581C46.2782 78.0581 45.6339 77.963 45.0312 77.963C44.3966 77.963 43.7842 78.0581 43.7842 78.0581C43.7842 78.0581 44.1428 79.0971 44.1428 79.7876C44.1428 80.4784 43.7842 81.5173 43.7842 81.5173C43.7842 81.5173 44.3966 81.6129 45.0312 81.6129C45.6339 81.6129 46.2782 81.5173 46.2782 81.5173C46.2782 81.5173 45.9196 80.4784 45.9196 79.7876C45.9196 79.0971 46.2782 78.0581 46.2782 78.0581Z" fill="white"/>
</mask>
<g mask="url(#mask33_134_10550)">
<path d="M46.2782 78.0581C46.2782 78.0581 45.6339 77.963 45.0312 77.963C44.3966 77.963 43.7842 78.0581 43.7842 78.0581C43.7842 78.0581 44.1428 79.0971 44.1428 79.7876C44.1428 80.4784 43.7842 81.5173 43.7842 81.5173C43.7842 81.5173 44.3966 81.6129 45.0312 81.6129C45.6339 81.6129 46.2782 81.5173 46.2782 81.5173C46.2782 81.5173 45.9196 80.4784 45.9196 79.7876C45.9196 79.0971 46.2782 78.0581 46.2782 78.0581Z" fill="#4D88CA"/>
</g>
<path d="M50.0637 115.103C51.4433 116.278 53.207 117.545 54.6078 118.508C60.6952 117.037 64.5154 114.189 66.7544 111.044C68.4687 108.641 69.2584 106.061 69.4266 103.797C69.4949 102.89 69.462 102.033 69.3519 101.256C69.1014 99.4995 68.2742 97.1764 67.2039 94.7337C66.3306 92.7357 65.2975 90.6553 64.2833 88.736C62.6368 85.6101 61.0466 82.9096 60.3107 81.6815C60.0556 81.2562 59.9035 81.0072 59.8846 80.9765C59.8823 80.9744 59.8823 80.9744 59.8823 80.9744C59.8823 80.9744 50.764 89.868 44.9415 97.6775C43.6462 100.063 41.1774 106.643 50.0637 115.103Z" fill="#7C568E"/>
<path d="M52.4508 104.543C52.4508 106.151 51.0635 107.456 49.3505 107.456C47.6376 107.456 46.249 106.151 46.249 104.543C46.249 102.933 47.6376 101.628 49.3505 101.628C51.0635 101.628 52.4508 102.933 52.4508 104.543Z" fill="#A7512E"/>
<path d="M52.8185 104.236C52.8185 105.846 51.4299 107.151 49.717 107.151C48.004 107.151 46.6167 105.846 46.6167 104.236C46.6167 102.627 48.004 101.322 49.717 101.322C51.4299 101.322 52.8185 102.627 52.8185 104.236Z" fill="#D8C160"/>
<path d="M49.4788 103.158C49.4788 103.341 49.3687 103.506 49.2006 103.585C49.1351 103.615 49.0581 103.634 48.9736 103.634C48.6956 103.634 48.4692 103.42 48.4692 103.158C48.4692 103.043 48.5078 102.94 48.5791 102.861C48.6695 102.745 48.812 102.678 48.9736 102.678C49.2525 102.678 49.4788 102.891 49.4788 103.158Z" fill="#A7512E"/>
<path d="M49.3161 103.28C49.3161 103.396 49.2708 103.506 49.2006 103.585C49.1351 103.615 49.0581 103.634 48.9736 103.634C48.6956 103.634 48.4692 103.42 48.4692 103.158C48.4692 103.043 48.5078 102.94 48.5791 102.861C48.6503 102.824 48.7275 102.806 48.812 102.806C49.0907 102.806 49.3161 103.019 49.3161 103.28Z" fill="#C0A23D"/>
<path d="M51.1219 105.106C51.1219 105.288 51.012 105.453 50.8437 105.532C50.7782 105.562 50.7011 105.581 50.6164 105.581C50.3384 105.581 50.1123 105.367 50.1123 105.106C50.1123 104.99 50.1508 104.887 50.2222 104.808C50.3124 104.692 50.4549 104.625 50.6164 104.625C50.8955 104.625 51.1219 104.838 51.1219 105.106Z" fill="#A7512E"/>
<path d="M50.9592 105.228C50.9592 105.343 50.9139 105.453 50.8437 105.532C50.7782 105.562 50.7011 105.581 50.6164 105.581C50.3384 105.581 50.1123 105.367 50.1123 105.106C50.1123 104.99 50.1508 104.887 50.2222 104.808C50.2933 104.771 50.3706 104.754 50.4549 104.754C50.7338 104.754 50.9592 104.966 50.9592 105.228Z" fill="#C0A23D"/>
<mask id="mask34_134_10550" style="mask-type:luminance" maskUnits="userSpaceOnUse" x="20" y="98" width="21" height="20">
<path d="M40.9756 113.557V113.559C40.6606 113.889 40.3276 114.226 39.9787 114.562C39.3466 115.11 38.6331 115.678 37.9101 116.223C37.0809 116.851 36.2381 117.454 35.4997 117.969C29.5 116.498 25.7322 113.649 23.5255 110.504C22.6533 109.262 22.0256 107.976 21.5975 106.711C21.1963 105.521 20.9721 104.35 20.8906 103.253C20.8248 102.346 20.8565 101.488 20.9653 100.711C21.0469 100.132 21.1897 99.4909 21.3844 98.8029C21.3844 98.8029 25.6983 110.355 40.9756 113.557Z" fill="white"/>
</mask>
<g mask="url(#mask34_134_10550)">
<path d="M40.9756 113.557V113.559C40.6606 113.889 40.3276 114.226 39.9787 114.562C39.3466 115.11 38.6331 115.678 37.9101 116.223C37.0809 116.851 36.2381 117.454 35.4997 117.969C29.5 116.498 25.7322 113.649 23.5255 110.504C22.6533 109.262 22.0256 107.976 21.5975 106.711C21.1963 105.521 20.9721 104.35 20.8906 103.253C20.8248 102.346 20.8565 101.488 20.9653 100.711C21.0469 100.132 21.1897 99.4909 21.3844 98.8029C21.3844 98.8029 25.6983 110.355 40.9756 113.557Z" fill="#75487F"/>
</g>
<path d="M57.5787 13.0786C57.2816 13.9666 53.6702 15.8042 44.9995 15.8042C36.3243 15.8042 32.7151 13.9623 32.4229 13.0765C36.1181 11.8478 40.2892 11.2154 44.9995 11.2495C49.7098 11.2175 53.8831 11.85 57.5787 13.0786Z" fill="#DE8655"/>
<path d="M44.9998 10.3445C39.5411 10.3445 33.1406 11.5156 33.2539 12.3141C33.3672 13.1126 36.6948 14.9226 44.9998 14.9226C53.3047 14.9226 56.6323 13.1126 56.7456 12.3141C56.8589 11.5156 50.4586 10.3445 44.9998 10.3445Z" fill="#376289"/>
<mask id="mask35_134_10550" style="mask-type:luminance" maskUnits="userSpaceOnUse" x="35" y="-1" width="20" height="14">
<path d="M51.6492 12.0713C51.6492 12.0713 49.4945 12.7037 44.9995 12.7037H44.9972C40.5044 12.7037 38.352 12.0713 38.352 12.0713C38.352 12.0713 37.1354 11.1173 36.3084 9.41811C35.8553 8.4897 35.5179 7.33772 35.5585 5.99622C35.6718 2.19955 38.7667 -9.53674e-05 44.9995 -9.53674e-05C51.2323 -9.53674e-05 54.3294 2.19955 54.4427 5.99622C54.556 9.79501 51.6492 12.0713 51.6492 12.0713Z" fill="white"/>
</mask>
<g mask="url(#mask35_134_10550)">
<path d="M51.6492 12.0713C51.6492 12.0713 49.4945 12.7037 44.9995 12.7037H44.9972C40.5044 12.7037 38.352 12.0713 38.352 12.0713C38.352 12.0713 37.1354 11.1173 36.3084 9.41811C35.8553 8.4897 35.5179 7.33772 35.5585 5.99622C35.6718 2.19955 38.7667 -9.53674e-05 44.9995 -9.53674e-05C51.2323 -9.53674e-05 54.3294 2.19955 54.4427 5.99622C54.556 9.79501 51.6492 12.0713 51.6492 12.0713Z" fill="#4987C4"/>
</g>
<path d="M44.9996 10.3444C40.1511 10.3444 36.3081 9.41811 36.3081 9.41811C37.1351 11.1173 38.3517 12.0713 38.3517 12.0713C38.3517 12.0713 40.5068 12.7037 44.9996 12.7037C49.4924 12.7037 51.6473 12.0713 51.6473 12.0713C51.6473 12.0713 52.8639 11.1173 53.6911 9.41811C53.6911 9.41811 49.8483 10.3444 44.9996 10.3444Z" fill="#622A6F"/>
<path d="M57.2268 49.4959C57.3607 50.2086 56.8544 50.8891 56.0958 51.0146C55.3368 51.1406 54.6136 50.6645 54.4797 49.9516C54.3458 49.2387 55.19 46.1918 55.19 46.1918C55.19 46.1918 57.0929 48.783 57.2268 49.4959Z" fill="#72BAAD"/>
<path d="M45.0009 94.9691C45.0009 94.9691 47.8998 90.9114 51.946 86.5228C54.7489 83.4827 57.9147 77.3665 57.9147 77.3665C57.773 76.8275 57.6226 75.3657 57.6226 75.3657C61.6145 78.6886 62.7022 86.5436 61.3154 88.297C59.0497 89.9298 53.4613 88.621 53.4613 88.621C53.4613 88.621 55.7269 91.5621 54.0041 93.8333C47.7502 95.5368 44.9712 100.505 44.9712 100.505L45.0009 94.9691Z" fill="#7462B7"/>
<path d="M62.66 85.373C62.66 85.373 63.3834 88.2796 62.3072 89.0248C61.2311 89.7701 56.4165 90.2492 55.0005 89.8766C55.0005 89.8766 56.1333 93.603 55.0005 94.508C53.8677 94.9871 47.8795 96.3712 45.1528 101.056V99.1956C45.1528 99.1956 49.5629 94.5293 53.2446 93.2142C54.2075 92.3254 53.5899 89.0798 52.4544 88.2135C52.4544 88.2135 56.714 87.694 58.6609 87.0552C60.608 86.4164 61.1599 82.7004 61.1599 82.7004C61.1599 82.7004 62.0494 84.2489 62.66 85.373Z" fill="#5B3375"/>
<path d="M44.9996 94.9691C44.9996 94.9691 42.1005 90.9114 38.0545 86.5228C35.2514 83.4827 32.0856 77.3665 32.0856 77.3665C32.2272 76.8275 32.3777 75.3657 32.3777 75.3657C28.386 78.6886 27.2983 86.5436 28.6851 88.297C30.9508 89.9298 36.5392 88.621 36.5392 88.621C36.5392 88.621 34.2736 91.5621 35.9962 93.8333C42.2503 95.5368 45.0293 100.505 45.0293 100.505L44.9996 94.9691Z" fill="#7462B7"/>
<mask id="mask36_134_10550" style="mask-type:luminance" maskUnits="userSpaceOnUse" x="49" y="99" width="21" height="20">
<path d="M49.3853 114.356V114.358C49.7029 114.699 50.0393 115.046 50.3913 115.393C51.0296 115.958 51.7499 116.544 52.4795 117.107C53.3165 117.754 54.1672 118.376 54.9127 118.908C60.9683 117.39 64.7717 114.451 66.9991 111.206C67.8796 109.925 68.5129 108.599 68.9453 107.294C69.3501 106.066 69.5765 104.858 69.6586 103.727C69.7252 102.791 69.6931 101.906 69.5834 101.104C69.501 100.507 69.357 99.8456 69.1601 99.1359C69.1601 99.1359 64.806 111.053 49.3853 114.356Z" fill="white"/>
</mask>
<g mask="url(#mask36_134_10550)">
<path d="M49.1548 114.356V114.358C49.4724 114.699 49.8088 115.046 50.1608 115.393C50.7991 115.958 51.5195 116.544 52.249 117.107C53.086 117.754 53.9367 118.376 54.6823 118.908C60.7378 117.39 64.5412 114.451 66.7687 111.206C67.6491 109.925 68.2824 108.599 68.7148 107.294C69.1196 106.066 69.346 104.858 69.4281 103.727C69.4947 102.791 69.4627 101.906 69.3529 101.104C69.2706 100.507 69.1265 99.8456 68.9296 99.1359C68.9296 99.1359 64.5755 111.053 49.1548 114.356Z" fill="#75487F"/>
</g>
</svg>
