<svg width="47" height="47" viewBox="0 0 47 47" fill="none" xmlns="http://www.w3.org/2000/svg">
<rect x="1" y="1" width="45" height="45" rx="22.5" fill="#FFB52B"/>
<rect x="0.5" y="0.5" width="46" height="46" rx="23" stroke="#740059"/>
<path d="M27.0555 6C27.327 6.00001 27.5916 6.08401 27.811 6.23991C28.0304 6.3958 28.1934 6.61555 28.2765 6.8675L29.6874 11.14C30.28 11.4225 30.8469 11.74 31.3882 12.0975L35.8928 11.1525C36.1584 11.0972 36.4352 11.1256 36.6832 11.2334C36.9312 11.3412 37.1377 11.523 37.273 11.7525L40.8284 17.75C40.9642 17.9794 41.0217 18.2449 40.9926 18.5082C40.9636 18.7715 40.8495 19.019 40.6668 19.215L37.5757 22.54C37.6207 23.1776 37.6207 23.8174 37.5757 24.455L40.6668 27.785C40.8495 27.981 40.9636 28.2285 40.9926 28.4918C41.0217 28.7551 40.9642 29.0206 40.8284 29.25L37.273 35.25C37.1373 35.4791 36.9307 35.6603 36.6827 35.7677C36.4347 35.875 36.1582 35.903 35.8928 35.8475L31.3882 34.9025C30.8495 35.2575 30.28 35.5775 29.69 35.86L28.2765 40.1325C28.1934 40.3844 28.0304 40.6042 27.811 40.7601C27.5916 40.916 27.327 41 27.0555 41H19.9445C19.673 41 19.4084 40.916 19.189 40.7601C18.9696 40.6042 18.8066 40.3844 18.7235 40.1325L17.3151 35.8625C16.7241 35.5809 16.1541 35.2592 15.6092 34.9L11.1072 35.8475C10.8416 35.9028 10.5648 35.8744 10.3168 35.7666C10.0688 35.6588 9.86228 35.477 9.72705 35.2475L6.17158 29.25C6.03581 29.0206 5.9783 28.7551 6.00735 28.4918C6.0364 28.2285 6.15049 27.981 6.33319 27.785L9.42435 24.455C9.37957 23.8191 9.37957 23.1809 9.42435 22.545L6.33319 19.215C6.15049 19.019 6.0364 18.7715 6.00735 18.5082C5.9783 18.2449 6.03581 17.9794 6.17158 17.75L9.72705 11.75C9.86266 11.5209 10.0693 11.3397 10.3173 11.2323C10.5653 11.125 10.8418 11.097 11.1072 11.1525L15.6092 12.1C16.1531 11.7425 16.7225 11.42 17.3151 11.1375L18.726 6.8675C18.8089 6.61636 18.9711 6.3972 19.1895 6.24137C19.4079 6.08555 19.6713 6.00106 19.942 6H27.0529H27.0555ZM26.1166 8.5H20.8834L19.4263 12.9175L18.4438 13.385C17.9608 13.6153 17.4946 13.8776 17.0483 14.17L16.1402 14.77L11.4817 13.79L8.86512 18.21L12.0589 21.655L11.9819 22.715C11.9451 23.2377 11.9451 23.7623 11.9819 24.285L12.0589 25.345L8.85999 28.79L11.4791 33.21L16.1377 32.2325L17.0458 32.83C17.492 33.1224 17.9583 33.3847 18.4413 33.615L19.4238 34.0825L20.8834 38.5H26.1217L27.5839 34.08L28.5638 33.615C29.0463 33.3852 29.5118 33.1229 29.9568 32.83L30.8623 32.2325L35.5234 33.21L38.14 28.79L34.9437 25.345L35.0206 24.285C35.0576 23.7615 35.0576 23.236 35.0206 22.7125L34.9437 21.6525L38.1426 18.21L35.5234 13.79L30.8623 14.765L29.9568 14.17C29.5118 13.877 29.0464 13.6147 28.5638 13.385L27.5839 12.92L26.1191 8.5H26.1166ZM23.5 16C25.5411 16 27.4985 16.7902 28.9418 18.1967C30.385 19.6032 31.1958 21.5109 31.1958 23.5C31.1958 25.4891 30.385 27.3968 28.9418 28.8033C27.4985 30.2098 25.5411 31 23.5 31C21.4589 31 19.5015 30.2098 18.0582 28.8033C16.615 27.3968 15.8042 25.4891 15.8042 23.5C15.8042 21.5109 16.615 19.6032 18.0582 18.1967C19.5015 16.7902 21.4589 16 23.5 16ZM23.5 18.5C22.1393 18.5 20.8343 19.0268 19.8722 19.9645C18.91 20.9021 18.3695 22.1739 18.3695 23.5C18.3695 24.8261 18.91 26.0979 19.8722 27.0355C20.8343 27.9732 22.1393 28.5 23.5 28.5C24.8607 28.5 26.1657 27.9732 27.1278 27.0355C28.09 26.0979 28.6305 24.8261 28.6305 23.5C28.6305 22.1739 28.09 20.9021 27.1278 19.9645C26.1657 19.0268 24.8607 18.5 23.5 18.5Z" fill="#740059"/>
</svg>
