<svg width="30" height="30" viewBox="0 0 30 30" fill="none" xmlns="http://www.w3.org/2000/svg">
<rect x="0.5" y="0.5" width="29" height="29" rx="14.5" fill="#FFB52B" stroke="#740059"/>
<path fill-rule="evenodd" clip-rule="evenodd" d="M15.152 5.29888C15.8001 5.62519 15.9167 6.33371 15.9167 6.76588V21.9014C15.9167 22.3345 15.7991 23.0415 15.1519 23.3674C14.4647 23.7137 13.8245 23.3241 13.4989 23.0317L8.53759 18.5727H6.75009C5.73757 18.5727 4.91676 17.7519 4.91676 16.7394L4.91675 11.9841C4.91675 10.9715 5.73756 10.1507 6.75008 10.1507H8.53447L13.4989 5.63561C13.8234 5.34408 14.4639 4.95249 15.152 5.29888ZM14.0834 7.58215L9.50575 11.7455C9.337 11.899 9.11709 11.9841 8.88898 11.9841H6.75008L6.75009 16.7394H8.88898C9.11522 16.7394 9.33346 16.823 9.50172 16.9742L14.0834 21.092V7.58215Z" fill="#740059"/>
<path d="M18.7005 7.6704C18.8365 7.18276 19.3421 6.89777 19.8298 7.03384C22.894 7.8889 25.0834 10.8694 25.0834 14.3334C25.0834 17.7975 22.894 20.778 19.8298 21.633C19.3421 21.7692 18.8365 21.4841 18.7005 20.9965C18.5644 20.5088 18.8494 20.0032 19.337 19.8672C21.5442 19.2513 23.2501 17.0437 23.2501 14.3334C23.2501 11.6231 21.5442 9.41563 19.337 8.79971C18.8494 8.66364 18.5644 8.15803 18.7005 7.6704Z" fill="#740059"/>
<path d="M18.9293 10.7052C18.4442 10.5601 17.9334 10.8358 17.7884 11.3208C17.6434 11.8059 17.919 12.3167 18.4041 12.4617C19.006 12.6416 19.5833 13.3442 19.5833 14.3334C19.5833 15.3226 19.006 16.0252 18.4041 16.2051C17.919 16.3502 17.6434 16.8609 17.7884 17.346C17.9334 17.831 18.4442 18.1067 18.9293 17.9617C20.4359 17.5112 21.4167 15.9904 21.4167 14.3334C21.4167 12.6764 20.4359 11.1556 18.9293 10.7052Z" fill="#740059"/>
</svg>
