<svg width="114" height="76" viewBox="0 0 114 76" fill="none" xmlns="http://www.w3.org/2000/svg">
<path d="M105.882 71.3074V42.2922H7.59709V71.3123H7.62842C7.60884 71.315 7.59709 71.3176 7.59709 71.3212C7.59709 71.8046 29.6102 74.0183 56.7644 74.0183C83.919 74.0183 105.932 71.8046 105.932 71.3212C105.932 71.3167 105.913 71.3122 105.882 71.3074Z" fill="white"/>
<path d="M56.7646 74.0915C41.2312 74.0915 28.3079 73.3599 21.9872 72.9239C17.9321 72.6441 14.1878 72.3226 11.4435 72.0188C7.48851 71.5808 7.48851 71.4054 7.48851 71.321C7.48851 71.3195 7.48851 71.3179 7.48873 71.3166C7.48851 71.3151 7.48851 71.3137 7.48851 71.3123V42.2922C7.48851 42.2517 7.53724 42.2189 7.59729 42.2189H105.882C105.942 42.2189 105.991 42.2517 105.991 42.2922V71.2579C106.018 71.2705 106.041 71.2902 106.041 71.3211C106.041 71.4055 106.041 71.581 102.086 72.0189C99.3416 72.3228 95.597 72.6443 91.5422 72.924C85.2215 73.3599 72.2982 74.0915 56.7646 74.0915ZM7.73696 71.3194C8.92113 71.8198 29.8249 73.9449 56.7646 73.9449C83.5924 73.9449 104.434 71.8376 105.776 71.3258C105.774 71.3198 105.773 71.3137 105.773 71.3074V42.3656H7.70607V71.2609C7.72304 71.2724 7.73435 71.288 7.73696 71.3053C7.7374 71.31 7.7374 71.3147 7.73696 71.3194Z" fill="#B6B8BA"/>
<path d="M24.4121 42.2922V73.0103C27.2242 73.1883 30.3192 73.3569 33.642 73.5036V42.2922H24.4121Z" fill="#FE0000"/>
<path d="M33.642 73.5769C33.6396 73.5769 33.6374 73.5769 33.635 73.5768C30.4845 73.4377 27.378 73.2716 24.4021 73.0834C24.3462 73.0799 24.3035 73.0482 24.3035 73.0103V42.2922C24.3035 42.2517 24.3523 42.2189 24.4123 42.2189H33.6422C33.7022 42.2189 33.751 42.2517 33.751 42.2922V73.5036C33.751 73.524 33.7383 73.5432 33.7166 73.5571C33.6961 73.57 33.6696 73.5769 33.642 73.5769ZM24.5209 72.9436C27.4283 73.1268 30.4591 73.2889 33.5332 73.4252V42.3656H24.5209V72.9436Z" fill="#AA3028"/>
<path d="M42.8718 42.2922V73.8303C45.8415 73.9097 48.9273 73.9674 52.1015 73.9964V42.2922H42.8718Z" fill="#FE0000"/>
<path d="M52.1013 74.0698C52.1008 74.0698 52.1002 74.0698 52.0997 74.0698C49.0526 74.0417 45.9463 73.986 42.8673 73.9037C42.809 73.9021 42.7628 73.8698 42.7628 73.8303V42.2922C42.7628 42.2517 42.8116 42.2189 42.8716 42.2189H52.1013C52.1613 42.2189 52.21 42.2517 52.21 42.2922V73.9964C52.21 74.0161 52.1983 74.0348 52.1778 74.0485C52.1574 74.0621 52.13 74.0698 52.1013 74.0698ZM42.9806 73.7597C45.9864 73.8394 49.0172 73.894 51.9927 73.9219V42.3656H42.9806V73.7597Z" fill="#AA3028"/>
<path d="M7.59709 42.2922V71.3124H7.62842C7.60884 71.315 7.59709 71.3176 7.59709 71.3212C7.59709 71.4928 10.3794 71.8832 15.1822 72.315V42.2922H7.59709Z" fill="#FE0000"/>
<path d="M15.1822 72.3884C15.1777 72.3884 15.1727 72.3882 15.1677 72.3876C12.8798 72.1821 10.9433 71.9761 9.56729 71.7924C7.4881 71.5147 7.4881 71.398 7.4881 71.321C7.4881 71.3195 7.4881 71.3179 7.48832 71.3166C7.4881 71.3151 7.4881 71.3137 7.4881 71.3123V42.2922C7.4881 42.2517 7.53683 42.2189 7.59688 42.2189H15.182C15.2421 42.2189 15.2908 42.2517 15.2908 42.2922V72.315C15.2908 72.3363 15.2771 72.3562 15.2536 72.3702C15.2338 72.3819 15.2083 72.3884 15.1822 72.3884ZM7.73677 71.3185C8.08051 71.4564 10.2152 71.792 15.0737 72.2312V42.3656H7.70587V71.2608C7.72284 71.2724 7.73416 71.288 7.73677 71.3053C7.7372 71.3097 7.7372 71.314 7.73677 71.3185Z" fill="#AA3028"/>
<path d="M105.932 71.321C105.932 71.3168 105.913 71.3121 105.882 71.3072V42.2922H98.2504V72.3237C103.113 71.8884 105.932 71.4938 105.932 71.321Z" fill="#FE0000"/>
<path d="M98.2501 72.397C98.224 72.397 98.1986 72.3906 98.1786 72.3788C98.1551 72.3649 98.1414 72.3449 98.1414 72.3237V42.2922C98.1414 42.2517 98.1901 42.2189 98.2501 42.2189H105.881C105.941 42.2189 105.99 42.2517 105.99 42.2922V71.2579C106.018 71.2705 106.04 71.2902 106.04 71.3211C106.04 71.3986 106.04 71.5158 103.935 71.7959C102.541 71.9815 100.58 72.1893 98.2643 72.3966C98.2597 72.3969 98.2549 72.397 98.2501 72.397ZM98.3589 42.3656V72.2399C103.212 71.803 105.382 71.4673 105.776 71.3247C105.774 71.3191 105.773 71.3134 105.773 71.3074V42.3656H98.3589Z" fill="#AA3028"/>
<path d="M79.7909 42.2922V73.508C83.1114 73.3619 86.2071 73.1937 89.0205 73.0165V42.2922H79.7909Z" fill="#FE0000"/>
<path d="M79.7909 73.5813C79.7632 73.5813 79.7367 73.5743 79.7164 73.5615C79.6945 73.5476 79.6821 73.5282 79.6821 73.508V42.2922C79.6821 42.2517 79.7308 42.2189 79.7909 42.2189H89.0205C89.0806 42.2189 89.1293 42.2517 89.1293 42.2922V73.0165C89.1293 73.0543 89.0866 73.086 89.0307 73.0895C86.0511 73.2772 82.9446 73.4425 79.798 73.5812C79.7954 73.5813 79.7932 73.5813 79.7909 73.5813ZM79.8996 42.3656V73.4295C82.9698 73.2936 86.0006 73.1324 88.9117 72.9496V42.3656H79.8996Z" fill="#AA3028"/>
<path d="M61.3313 42.2922V73.9973C64.5049 73.9687 67.5907 73.9118 70.561 73.833V42.2922H61.3313Z" fill="#FE0000"/>
<path d="M61.3313 74.0707C61.3026 74.0707 61.2752 74.063 61.2548 74.0494C61.2341 74.0356 61.2226 74.0168 61.2226 73.9973V42.2922C61.2226 42.2517 61.2713 42.2189 61.3313 42.2189H70.561C70.621 42.2189 70.6698 42.2517 70.6698 42.2922V73.833C70.6698 73.8723 70.6236 73.9047 70.5653 73.9063C67.4937 73.9878 64.3874 74.0431 61.3329 74.0707C61.3324 74.0707 61.3318 74.0707 61.3313 74.0707ZM61.4401 42.3656V73.9229C64.4224 73.8953 67.4534 73.8413 70.4522 73.7624V42.3656H61.4401Z" fill="#AA3028"/>
<path opacity="0.5" d="M105.882 71.3074V42.2922H7.59709V71.3123H7.62842C7.60884 71.315 7.59709 71.3176 7.59709 71.3212C7.59709 71.8046 29.6102 74.0183 56.7644 74.0183C83.919 74.0183 105.932 71.8046 105.932 71.3212C105.932 71.3167 105.913 71.3122 105.882 71.3074ZM64.0758 72.315C44.4274 74.7894 15.9402 71.5794 13.0499 71.0987C10.1601 70.6182 10.0464 67.4991 10.0464 67.4991V51.5035C9.64822 48.2235 13.8773 48.7684 13.8773 48.7684C16.0181 49.274 21.9826 49.9097 21.9826 49.9097C40.7241 52.1887 57.9764 50.9502 62.1548 50.7922C66.3339 50.634 66.3138 53.4325 66.3138 53.4325C66.3138 53.4325 66.0334 64.3077 66.3138 68.5758C66.5945 72.8439 64.0758 72.315 64.0758 72.315Z" fill="#96999B"/>
<path opacity="0.5" d="M105.882 71.3074V42.2922H84.1544V73.2974C97.2888 72.6061 105.932 71.6238 105.932 71.321C105.932 71.3168 105.913 71.3122 105.882 71.3074Z" fill="#96999B"/>
<path opacity="0.8" d="M105.882 71.3074V42.2922H94.4323V72.6397C101.609 72.0891 105.932 71.5352 105.932 71.3212C105.932 71.3168 105.913 71.3122 105.882 71.3074Z" fill="#96999B"/>
<path d="M73.9212 73.7334V58.4211H73.9162C73.7006 55.6154 66.1004 53.361 56.7557 53.361C47.4107 53.361 39.8106 55.6154 39.5952 58.4211H39.5902V73.7325C44.9369 73.9083 50.723 74.018 56.7644 74.018C62.7994 74.0181 68.5797 73.9085 73.9212 73.7334Z" fill="#0073BA"/>
<path d="M56.7644 74.0915C51.1294 74.0915 45.3492 73.9954 39.5848 73.8058C39.5267 73.8039 39.4812 73.7718 39.4812 73.7326V58.4211C39.4812 58.4119 39.4838 58.4031 39.4882 58.395C39.7464 55.529 47.317 53.2876 56.7555 53.2876C66.1951 53.2876 73.7663 55.5299 74.0228 58.3963C74.0273 58.4041 74.0297 58.4123 74.0297 58.4211V73.7332C74.0297 73.7724 73.9843 73.8045 73.9262 73.8064C68.1631 73.9957 62.3891 74.0915 56.7644 74.0915ZM39.699 73.6626C45.4255 73.8499 51.1666 73.9448 56.7644 73.9448C62.3521 73.9448 68.0869 73.8501 73.8124 73.6634V58.4427C73.8096 58.4371 73.808 58.4311 73.8076 58.4249C73.5959 55.6731 65.9466 53.4343 56.7557 53.4343C47.5645 53.4343 39.9152 55.6731 39.7038 58.4249C39.7033 58.4314 39.7016 58.4376 39.699 58.4434V73.6626Z" fill="#005483"/>
<path d="M73.5274 73.7398V58.7793H73.5222C73.3116 56.0379 65.8859 53.8353 56.7559 53.8353C47.6252 53.8353 40.1998 56.038 39.9894 58.7793H39.9844V73.7393C45.2084 73.9111 50.8616 74.0182 56.7644 74.0182C62.6608 74.0182 68.3082 73.9114 73.5274 73.7398Z" fill="#00A1E0"/>
<path d="M72.7581 73.7528V59.4783H72.7533C72.5523 56.8627 65.4673 54.761 56.7559 54.761C48.0442 54.761 40.9593 56.8627 40.7585 59.4783H40.7539V73.7522C45.7381 73.9159 51.1318 74.0182 56.7644 74.0182C62.3898 74.0182 67.7782 73.9161 72.7581 73.7528Z" fill="#231F20"/>
<path d="M56.764 74.0915C51.5117 74.0915 46.1234 74.002 40.7483 73.8254C40.6902 73.8235 40.6447 73.7913 40.6447 73.7522V59.4783C40.6447 59.4695 40.6471 59.4609 40.6512 59.453C40.8934 56.7791 47.9538 54.6876 56.7557 54.6876C65.5583 54.6876 72.6193 56.7795 72.8599 59.4538C72.8645 59.4615 72.8667 59.4696 72.8667 59.4783V73.7528C72.8667 73.7919 72.8212 73.8241 72.7631 73.826C67.3905 74.0022 62.0075 74.0915 56.764 74.0915ZM40.8623 73.6822C46.1996 73.8565 51.5489 73.9448 56.764 73.9448C61.9705 73.9448 67.3142 73.8566 72.6493 73.6828V59.4992C72.6467 59.4938 72.645 59.4879 72.6448 59.4821C72.4479 56.9192 65.32 54.8342 56.7559 54.8342C48.1915 54.8342 41.0637 56.9192 40.867 59.4819C40.8666 59.4881 40.8651 59.494 40.8625 59.4995V73.6822H40.8623Z" fill="#B6B8BA"/>
<path d="M40.7583 59.4782H40.7537V73.7522C43.5943 73.8455 46.5714 73.9181 49.6463 73.9637C54.8708 66.9375 56.3525 57.4343 56.6774 54.7611C48.0016 54.7737 40.9586 56.8705 40.7583 59.4782Z" fill="#FE0000"/>
<path d="M49.6461 74.0371C49.6453 74.0371 49.6446 74.0371 49.6437 74.0371C46.6752 73.9929 43.6822 73.9218 40.748 73.8254C40.69 73.8235 40.6445 73.7913 40.6445 73.7522V59.4782C40.6445 59.4694 40.6469 59.4609 40.651 59.453C40.8923 56.7918 47.9181 54.7005 56.6767 54.6877H56.6769C56.7074 54.6877 56.7361 54.6964 56.7568 54.7114C56.7774 54.7265 56.7879 54.7466 56.7853 54.7671C56.4528 57.5036 54.9621 66.9776 49.7432 73.9966C49.7251 74.0215 49.6873 74.0371 49.6461 74.0371ZM40.8623 73.6822C43.7386 73.7761 46.6706 73.8456 49.5796 73.8893C54.7072 66.9647 56.2092 57.6589 56.559 54.8348C48.0897 54.8662 41.0618 56.9435 40.8666 59.4819C40.8662 59.4881 40.8647 59.4939 40.862 59.4995L40.8623 73.6822Z" fill="#AA3028"/>
<path d="M40.7583 59.4782H40.7537V73.7522C43.5943 73.8455 46.5714 73.9181 49.6463 73.9637C54.8708 66.9375 56.3525 57.4343 56.6774 54.7611C48.0016 54.7737 40.9586 56.8705 40.7583 59.4782Z" fill="#D51B20"/>
<path d="M49.6461 74.0371C49.6453 74.0371 49.6446 74.0371 49.6437 74.0371C46.6752 73.9929 43.6822 73.9218 40.748 73.8254C40.69 73.8235 40.6445 73.7913 40.6445 73.7522V59.4782C40.6445 59.4694 40.6469 59.4609 40.651 59.453C40.8923 56.7918 47.9181 54.7005 56.6767 54.6877H56.6769C56.7074 54.6877 56.7361 54.6964 56.7568 54.7114C56.7774 54.7265 56.7879 54.7466 56.7853 54.7671C56.4528 57.5036 54.9621 66.9776 49.7432 73.9966C49.7251 74.0215 49.6873 74.0371 49.6461 74.0371ZM40.8623 73.6822C43.7386 73.7761 46.6706 73.8456 49.5796 73.8893C54.7072 66.9647 56.2092 57.6589 56.559 54.8348C48.0897 54.8662 41.0618 56.9435 40.8666 59.4819C40.8662 59.4881 40.8647 59.4939 40.862 59.4995L40.8623 73.6822Z" fill="#AA3028"/>
<path d="M41.0879 68.2241C41.4288 66.1459 41.9581 64.0421 43.2567 62.1264C44.5485 60.2199 46.5583 58.5133 49.0983 57.2939C51.2267 56.272 53.9712 55.2444 56.6408 55.051C56.6545 54.9473 56.6665 54.8502 56.6774 54.7611C48.0016 54.7737 40.9586 56.8705 40.7583 59.4781H40.7537V71.0986C40.8127 70.1369 40.9319 69.1766 41.0879 68.2241Z" fill="#BB151A"/>
<path d="M72.7581 59.4782H72.7533C72.5538 56.8835 65.5792 54.7949 56.963 54.7618C57.288 57.4355 58.7698 66.9365 63.9925 73.9621C67.0222 73.9162 69.9564 73.8447 72.7581 73.7528V59.4782Z" fill="#D51B20"/>
<path d="M63.9925 74.0353C63.9514 74.0353 63.9138 74.0196 63.8953 73.9949C58.6782 66.977 57.1873 57.504 56.8547 54.7677C56.8521 54.7472 56.8625 54.7269 56.8832 54.7118C56.9038 54.6967 56.9328 54.6884 56.963 54.6884H56.9637C65.652 54.7218 72.6217 56.8131 72.8601 59.4536C72.8647 59.4614 72.8669 59.4695 72.8669 59.4781V73.7526C72.8669 73.7918 72.8214 73.8239 72.7633 73.8258C69.8877 73.9203 66.9378 73.9907 63.9947 74.0353C63.994 74.0353 63.9934 74.0353 63.9925 74.0353ZM57.0809 54.8357C57.431 57.6595 58.9332 66.9641 64.0589 73.8877C66.9415 73.8437 69.8307 73.7748 72.6491 73.6829V59.4994C72.6465 59.494 72.6448 59.4881 72.6445 59.4822C72.4477 56.9213 65.6214 54.8872 57.0809 54.8357Z" fill="#AA3028"/>
<path d="M55.8567 55.3468C55.8567 55.3468 54.5346 66.7578 46.2172 73.395C46.2172 73.395 54.6415 68.0997 55.8567 55.3468Z" fill="#96999B"/>
<path d="M54.8421 55.2284C54.8421 55.2284 51.5935 66.9656 42.3641 72.8538C42.3641 72.8538 51.7406 67.8353 54.8421 55.2284Z" fill="#96999B"/>
<path d="M53.2637 55.3468C53.2637 55.3468 49.9675 65.1574 41.4943 69.7613C41.4943 69.7613 49.9235 66.1357 53.2637 55.3468Z" fill="#96999B"/>
<path d="M51.5935 55.4951C51.5935 55.4951 48.7152 62.8753 41.3093 67.499C41.3093 67.499 48.7811 63.7942 51.5935 55.4951Z" fill="#96999B"/>
<path d="M50.2753 55.7717C50.2753 55.7717 47.1107 60.9783 41.3093 64.2337C41.3093 64.2337 48.0973 61.0278 50.2753 55.7717Z" fill="#96999B"/>
<path d="M48.2096 56.0286C48.2096 56.0286 45.4847 59.6446 41.3093 60.9782C41.3093 60.9782 45.6163 60.2966 48.2096 56.0286Z" fill="#96999B"/>
<path d="M50.2753 58.2999C50.2753 58.2999 48.1037 65.0099 41.5334 67.499C41.5334 67.499 47.0938 64.4963 50.2753 58.2999Z" fill="#E82737"/>
<path d="M49.4434 57.5862C49.4434 57.5862 47.8506 62.6805 41.3093 64.3895C41.3093 64.3895 46.5977 62.2369 49.4434 57.5862Z" fill="#E82737"/>
<path d="M48.4204 56.1992C48.4204 56.1992 47.0918 60.2137 41.5336 61.5459C41.5336 61.5459 46.0236 59.861 48.4204 56.1992Z" fill="#E82737"/>
<path d="M52.1013 58.8718C52.1013 58.8718 49.4203 67.1557 41.3093 70.2284C41.3093 70.2284 48.1739 66.5214 52.1013 58.8718Z" fill="#E82737"/>
<path d="M53.4834 60.6227C53.4834 60.6227 50.9828 69.781 42.8718 72.8537C42.8718 72.8537 49.5559 68.2723 53.4834 60.6227Z" fill="#E82737"/>
<path d="M54.0401 62.8995C54.0401 62.8995 52.8682 70.5814 46.2879 73.508C46.2879 73.508 51.037 70.7 54.0401 62.8995Z" fill="#E82737"/>
<path d="M57.5865 55.3468C57.5865 55.3468 58.9088 66.7578 67.2263 73.395C67.2263 73.395 58.802 68.0997 57.5865 55.3468Z" fill="#96999B"/>
<path d="M58.6012 55.2284C58.6012 55.2284 61.8498 66.9656 71.079 72.8538C71.079 72.8538 61.7029 67.8353 58.6012 55.2284Z" fill="#96999B"/>
<path d="M60.1796 55.3468C60.1796 55.3468 63.4758 65.1574 71.949 69.7613C71.949 69.7613 63.52 66.1357 60.1796 55.3468Z" fill="#96999B"/>
<path d="M61.8498 55.4951C61.8498 55.4951 64.7281 62.8753 72.1341 67.499C72.1341 67.499 64.6624 63.7942 61.8498 55.4951Z" fill="#96999B"/>
<path d="M63.1684 55.7717C63.1684 55.7717 66.3328 60.9783 72.1341 64.2337C72.1341 64.2337 65.3459 61.0278 63.1684 55.7717Z" fill="#96999B"/>
<path d="M65.2339 56.0286C65.2339 56.0286 67.9588 59.6446 72.1342 60.9782C72.1342 60.9782 67.8272 60.2966 65.2339 56.0286Z" fill="#96999B"/>
<path d="M63.1684 58.2999C63.1684 58.2999 65.3401 65.0099 71.9098 67.499C71.9098 67.499 66.3497 64.4963 63.1684 58.2999Z" fill="#E82737"/>
<path d="M64.0001 57.5862C64.0001 57.5862 65.5931 62.6805 72.1342 64.3895C72.1342 64.3895 66.8456 62.2369 64.0001 57.5862Z" fill="#E82737"/>
<path d="M65.0231 56.1992C65.0231 56.1992 66.3517 60.2137 71.9096 61.5459C71.9096 61.5459 67.4201 59.861 65.0231 56.1992Z" fill="#E82737"/>
<path d="M61.342 58.8718C61.342 58.8718 64.0232 67.1557 72.1339 70.2284C72.1339 70.2284 65.2696 66.5214 61.342 58.8718Z" fill="#E82737"/>
<path d="M59.9599 60.6227C59.9599 60.6227 62.4605 69.781 70.5714 72.8537C70.5714 72.8537 63.8874 68.2723 59.9599 60.6227Z" fill="#E82737"/>
<path d="M59.4034 62.8995C59.4034 62.8995 60.5753 70.5814 67.1558 73.508C67.1558 73.508 62.4065 70.7 59.4034 62.8995Z" fill="#E82737"/>
<path d="M72.4677 68.2241C72.127 66.1459 71.5974 64.0421 70.2991 62.1264C69.007 60.2199 66.9972 58.5133 64.4574 57.2939C62.3289 56.272 59.5846 55.2444 56.9149 55.051C56.9012 54.9473 56.8893 54.8502 56.8782 54.7611C65.5539 54.7737 72.5971 56.8705 72.7975 59.4781H72.8021V71.0986C72.7431 70.1369 72.6239 69.1766 72.4677 68.2241Z" fill="#BB151A"/>
<path d="M105.777 42.6219C75.5615 33.4699 60.7276 17.1927 56.7644 12.2329C52.797 17.198 37.9359 33.5053 7.65605 42.6515V44.7831C7.67085 44.7531 7.68694 44.7235 7.70065 44.6931C7.70826 44.6941 7.71544 44.6952 7.72306 44.6958C7.79725 45.9062 8.81193 46.8657 10.0555 46.8657C11.0778 46.8657 11.9452 46.0877 12.2628 45.1306C12.2672 45.1312 12.2709 45.1315 12.275 45.1317C12.3135 46.4084 13.4257 47.4332 14.7945 47.4332C15.9461 47.4332 16.9157 46.5635 17.2181 45.5233L17.2242 45.5237C17.226 45.5237 17.2281 45.5238 17.2297 45.5238C17.2279 45.5583 17.224 45.5922 17.224 45.627C17.224 46.935 18.423 47.9959 19.9019 47.9959C21.2051 47.9959 22.2903 47.0073 22.5291 45.8773H22.5298C22.532 45.8774 22.5341 45.8774 22.5357 45.8776C22.5368 45.8776 22.5381 45.8776 22.5387 45.8779C22.5391 47.2616 23.8158 48.3832 25.3898 48.3832C26.7587 48.3832 27.9017 47.3653 28.1767 46.1902C28.1795 46.1902 28.1821 46.1905 28.185 46.1905C28.1782 46.2585 28.1726 46.3262 28.1726 46.3953C28.1726 47.7792 29.5136 48.9013 31.1681 48.9013C32.6392 48.9013 33.86 47.8367 34.113 46.6276C34.106 46.6979 34.0995 46.7682 34.0995 46.8395C34.0995 48.2233 35.5023 49.3454 37.2314 49.3454C38.9382 49.3454 40.324 48.0346 40.3597 46.6697C40.361 46.6697 40.3625 46.6697 40.3636 46.6697C40.3682 46.67 40.373 46.6703 40.3773 46.6703C40.3693 46.7457 40.3632 46.8213 40.3632 46.8986C40.3632 48.315 41.8095 49.4634 43.5935 49.4634C45.3768 49.4634 46.8235 48.2365 46.8235 46.8198H46.824C46.8257 46.8198 46.827 46.8198 46.8285 46.8199C46.8277 46.8462 46.8235 46.8719 46.8235 46.8984C46.8235 48.3149 48.3036 49.4632 50.1287 49.4632C51.9529 49.4632 53.4329 48.3149 53.4329 46.8984C53.4329 48.3149 54.9247 49.4632 56.7644 49.4632C58.6045 49.4632 60.0958 48.3149 60.0958 46.8984C60.0958 48.3149 61.5761 49.4632 63.4003 49.4632C65.2256 49.4632 66.705 48.3149 66.705 46.8984C66.705 46.8717 66.7011 46.8462 66.7 46.8199C66.7017 46.8198 66.7035 46.8198 66.705 46.8198C66.705 48.2364 68.152 49.4634 69.9351 49.4634C71.7193 49.4634 73.1658 48.315 73.1658 46.8986C73.1658 46.8214 73.1597 46.7454 73.1514 46.6703C73.1523 46.6703 73.1528 46.67 73.1538 46.67C73.158 46.67 73.1617 46.6697 73.166 46.6697C73.1671 46.6697 73.168 46.6697 73.1695 46.6694C73.2052 48.0343 74.591 49.3454 76.298 49.3454C78.0271 49.3454 79.4293 48.2233 79.4293 46.8395C79.4293 46.7677 79.4234 46.697 79.4162 46.6269C79.6686 47.8361 80.8897 48.9013 82.3609 48.9013C84.0152 48.9013 85.3568 47.7792 85.3568 46.3953C85.3568 46.3261 85.351 46.2583 85.3442 46.1905C85.3471 46.1905 85.3494 46.1902 85.3521 46.1902C85.6275 47.3656 86.7703 48.3832 88.1392 48.3832C89.7134 48.3832 90.9901 47.2614 90.9903 45.8779C90.9916 45.8776 90.9929 45.8776 90.994 45.8774C90.9957 45.8774 90.9977 45.8774 90.9992 45.8773H90.9996C91.2392 47.0073 92.3237 47.9959 93.6269 47.9959C95.1058 47.9959 96.305 46.9351 96.305 45.627C96.305 45.5922 96.3006 45.5583 96.2991 45.5238C96.3011 45.5238 96.303 45.5237 96.305 45.5237C96.3069 45.5235 96.3087 45.5233 96.3104 45.5233C96.613 46.5635 97.5827 47.4332 98.7342 47.4332C100.103 47.4332 101.215 46.4086 101.254 45.1318C101.258 45.1315 101.262 45.1312 101.266 45.1306C101.584 46.0877 102.451 46.8657 103.473 46.8657C104.632 46.8657 105.59 46.033 105.777 44.9411V42.6219Z" fill="#96999B"/>
<path d="M85.3566 44.9224C85.3566 46.3064 84.015 47.4283 82.3607 47.4283C80.7068 47.4283 79.3653 46.0828 79.3653 44.6988C79.3653 43.3148 80.7068 42.4161 82.3607 42.4161C84.015 42.4161 85.3566 43.5384 85.3566 44.9224Z" fill="#E4E5E6"/>
<path d="M82.3604 47.5017C80.7068 47.5017 79.2563 46.1918 79.2563 44.6988C79.2563 43.3336 80.5617 42.3428 82.3604 42.3428C84.0724 42.3428 85.4652 43.5001 85.4652 44.9224C85.4654 46.3445 84.0726 47.5017 82.3604 47.5017ZM82.3604 42.4895C80.6879 42.4895 79.4739 43.4187 79.4739 44.6988C79.4739 46.1139 80.8227 47.355 82.3604 47.355C83.9525 47.355 85.2476 46.2637 85.2476 44.9224C85.2479 43.5808 83.9527 42.4895 82.3604 42.4895Z" fill="#B6B8BA"/>
<path d="M73.1658 45.4255C73.1658 46.842 71.7195 47.9906 69.9351 47.9906C68.1522 47.9906 66.705 46.7636 66.705 45.3471C66.705 43.9303 68.152 42.8605 69.9351 42.8605C71.7193 42.8606 73.1658 44.009 73.1658 45.4255Z" fill="#E4E5E6"/>
<path d="M69.9351 48.0641C68.1255 48.0641 66.5963 46.8199 66.5963 45.3472C66.5963 43.9117 68.0628 42.7872 69.9351 42.7872C71.7765 42.7872 73.2746 43.9707 73.2746 45.4255C73.2746 46.8804 71.7765 48.0641 69.9351 48.0641ZM69.9351 42.9339C68.1849 42.9339 66.8138 43.994 66.8138 45.3472C66.8138 46.7403 68.2432 47.9174 69.9351 47.9174C71.6564 47.9174 73.057 46.7995 73.057 45.4257C73.057 44.0516 71.6564 42.9339 69.9351 42.9339Z" fill="#B6B8BA"/>
<path d="M40.3632 45.4255C40.3632 46.842 41.8095 47.9906 43.5935 47.9906C45.3768 47.9906 46.8235 46.7636 46.8235 45.3471C46.8235 43.9303 45.377 42.8605 43.5935 42.8605C41.8097 42.8606 40.3632 44.009 40.3632 45.4255Z" fill="#E4E5E6"/>
<path d="M43.5935 48.0641C41.7523 48.0641 40.2544 46.8805 40.2544 45.4256C40.2544 43.9708 41.7523 42.7874 43.5935 42.7874C45.4655 42.7874 46.9323 43.9118 46.9323 45.3473C46.9323 46.8198 45.4031 48.0641 43.5935 48.0641ZM43.5935 42.9339C41.8724 42.9339 40.472 44.0516 40.472 45.4255C40.472 46.7994 41.8724 47.9172 43.5935 47.9172C45.2852 47.9172 46.7148 46.7402 46.7148 45.347C46.7148 43.9938 45.3437 42.9339 43.5935 42.9339Z" fill="#B6B8BA"/>
<path d="M28.1726 44.9224C28.1726 46.3064 29.5136 47.4283 31.1681 47.4283C32.822 47.4283 34.1635 46.0828 34.1635 44.6988C34.1635 43.3148 32.822 42.4161 31.1681 42.4161C29.5136 42.4161 28.1726 43.5384 28.1726 44.9224Z" fill="#E4E5E6"/>
<path d="M31.1681 47.5017C29.4564 47.5017 28.0638 46.3445 28.0638 44.9224C28.0638 43.5001 29.4562 42.3428 31.1681 42.3428C32.9669 42.3428 34.2722 43.3336 34.2722 44.6988C34.2722 46.1918 32.8216 47.5017 31.1681 47.5017ZM31.1681 42.4895C29.5765 42.4895 28.2814 43.5808 28.2814 44.9224C28.2814 46.2638 29.5763 47.355 31.1681 47.355C32.7058 47.355 34.0547 46.1137 34.0547 44.6988C34.0547 43.4187 32.8407 42.4895 31.1681 42.4895Z" fill="#B6B8BA"/>
<path d="M17.224 44.1543C17.224 45.4623 18.423 46.5232 19.9019 46.5232C21.3804 46.5232 22.5796 45.251 22.5796 43.9427C22.5796 42.6344 21.3804 41.7848 19.9019 41.7848C18.423 41.7848 17.224 42.8454 17.224 44.1543Z" fill="#E4E5E6"/>
<path d="M19.9019 46.5966C18.3653 46.5966 17.1152 45.501 17.1152 44.1543C17.1152 42.8073 18.3653 41.7114 19.9019 41.7114C21.5164 41.7114 22.6884 42.6498 22.6884 43.9427C22.6882 45.3565 21.3861 46.5966 19.9019 46.5966ZM19.9019 41.8581C18.4852 41.8581 17.3328 42.8883 17.3328 44.1543C17.3328 45.42 18.4852 46.4498 19.9019 46.4498C21.2464 46.4498 22.4708 45.2548 22.4708 43.9427C22.4706 42.7348 21.3902 41.8581 19.9019 41.8581Z" fill="#B6B8BA"/>
<path d="M7.71611 43.0822C7.71611 44.3584 8.76365 45.3932 10.0555 45.3932C11.3471 45.3932 12.3951 44.1524 12.3951 42.8762C12.3951 41.5999 11.3471 40.7711 10.0555 40.7711C8.76365 40.7711 7.71611 41.8058 7.71611 43.0822Z" fill="#E4E5E6"/>
<path d="M10.0555 45.4665C8.70556 45.4665 7.60733 44.397 7.60733 43.0822C7.60733 41.7675 8.70556 40.6978 10.0555 40.6978C11.4742 40.6978 12.5039 41.6139 12.5039 42.8762C12.5039 44.2561 11.3598 45.4665 10.0555 45.4665ZM10.0555 40.8445C8.82565 40.8445 7.82489 41.8483 7.82489 43.0822C7.82489 44.316 8.82565 45.3198 10.0555 45.3198C11.2229 45.3198 12.2863 44.155 12.2863 42.8762C12.2863 41.699 11.348 40.8445 10.0555 40.8445Z" fill="#B6B8BA"/>
<path d="M105.813 43.0822C105.813 44.3584 104.765 45.3932 103.473 45.3932C102.182 45.3932 101.134 44.1524 101.134 42.8762C101.134 41.5999 102.181 40.7711 103.473 40.7711C104.765 40.7711 105.813 41.8058 105.813 43.0822Z" fill="#E4E5E6"/>
<path d="M103.473 45.4665C102.169 45.4665 101.025 44.2561 101.025 42.8762C101.025 41.6139 102.055 40.6978 103.473 40.6978C104.823 40.6978 105.922 41.7675 105.922 43.0822C105.922 44.397 104.823 45.4665 103.473 45.4665ZM103.473 40.8445C102.181 40.8445 101.243 41.699 101.243 42.8762C101.243 44.1552 102.306 45.3198 103.473 45.3198C104.704 45.3198 105.704 44.316 105.704 43.0822C105.704 41.8482 104.704 40.8445 103.473 40.8445Z" fill="#B6B8BA"/>
<path d="M96.305 44.1543C96.305 45.4623 95.1058 46.5232 93.6269 46.5232C92.1483 46.5232 90.9492 45.251 90.9492 43.9427C90.9492 42.6344 92.1483 41.7848 93.6269 41.7848C95.1058 41.7848 96.305 42.8454 96.305 44.1543Z" fill="#E4E5E6"/>
<path d="M93.6269 46.5966C92.1427 46.5966 90.8404 45.3565 90.8404 43.9427C90.8404 42.6497 92.0124 41.7114 93.6269 41.7114C95.1635 41.7114 96.4138 42.8074 96.4138 44.1543C96.4138 45.501 95.1637 46.5966 93.6269 46.5966ZM93.6269 41.8581C92.1383 41.8581 91.0579 42.7349 91.0579 43.9427C91.0579 45.2548 92.2824 46.4498 93.6269 46.4498C95.0436 46.4498 96.1962 45.42 96.1962 44.1543C96.1962 42.8881 95.0436 41.8581 93.6269 41.8581Z" fill="#B6B8BA"/>
<path d="M66.705 45.4255C66.705 46.8419 65.2254 47.9906 63.4003 47.9906C61.5759 47.9906 60.0958 46.8419 60.0958 45.4255C60.0958 44.009 61.5761 42.8606 63.4003 42.8606C65.2256 42.8606 66.705 44.009 66.705 45.4255Z" fill="#AF1216"/>
<path d="M63.4003 48.0641C61.5182 48.0641 59.9871 46.8805 59.9871 45.4256C59.9871 43.9708 61.5182 42.7874 63.4003 42.7874C65.2824 42.7874 66.8138 43.9708 66.8138 45.4256C66.8138 46.8803 65.2824 48.0641 63.4003 48.0641ZM63.4003 42.9339C61.6381 42.9339 60.2046 44.0516 60.2046 45.4255C60.2046 46.7994 61.6383 47.9172 63.4003 47.9172C65.1627 47.9172 66.5962 46.7994 66.5962 45.4255C66.5962 44.0516 65.1627 42.9339 63.4003 42.9339Z" fill="#AA3028"/>
<path d="M79.4291 45.3669C79.4291 46.7506 78.0269 47.8725 76.2978 47.8725C74.5684 47.8725 73.1658 46.527 73.1658 45.1431C73.1658 43.7591 74.5682 42.8605 76.2978 42.8605C78.0267 42.8606 79.4291 43.9827 79.4291 45.3669Z" fill="#AF1216"/>
<path d="M76.2975 47.9459C74.5712 47.9459 73.0568 46.6361 73.0568 45.1431C73.0568 43.7779 74.4198 42.7871 76.2975 42.7871C78.0841 42.7871 79.5376 43.9444 79.5376 45.3667C79.5378 46.7888 78.0841 47.9459 76.2975 47.9459ZM76.2975 42.934C74.5458 42.934 73.2744 43.8631 73.2744 45.1433C73.2744 46.5582 74.687 47.7993 76.2975 47.7993C77.9642 47.7993 79.3201 46.7082 79.3201 45.367C79.3203 44.0253 77.9642 42.934 76.2975 42.934Z" fill="#AA3028"/>
<path d="M90.9901 44.4044C90.9901 45.7881 89.7134 46.9104 88.139 46.9104C86.5649 46.9104 85.2879 45.5647 85.2879 44.1807C85.2879 42.7965 86.5647 41.8982 88.139 41.8982C89.7134 41.8982 90.9901 43.0203 90.9901 44.4044Z" fill="#AF1216"/>
<path d="M88.139 46.9837C86.5623 46.9837 85.1791 45.6738 85.1791 44.1807C85.1791 42.8156 86.424 41.8248 88.139 41.8248C89.7711 41.8248 91.0988 42.9821 91.0988 44.4044C91.0988 45.8267 89.7711 46.9837 88.139 46.9837ZM88.139 41.9715C86.5499 41.9715 85.3967 42.9006 85.3967 44.1807C85.3967 45.5958 86.6781 46.837 88.139 46.837C89.651 46.837 90.8813 45.7457 90.8813 44.4044C90.8813 43.063 89.651 41.9715 88.139 41.9715Z" fill="#AA3028"/>
<path d="M90.9901 44.4044C90.9901 45.7881 89.7134 46.9104 88.139 46.9104C86.5649 46.9104 85.2879 45.5647 85.2879 44.1807C85.2879 42.7965 86.5647 41.8982 88.139 41.8982C89.7134 41.8982 90.9901 43.0203 90.9901 44.4044Z" fill="#AF1216"/>
<path d="M88.139 46.9837C86.5623 46.9837 85.1791 45.6738 85.1791 44.1807C85.1791 42.8156 86.424 41.8248 88.139 41.8248C89.7711 41.8248 91.0988 42.9821 91.0988 44.4044C91.0988 45.8267 89.7711 46.9837 88.139 46.9837ZM88.139 41.9715C86.5499 41.9715 85.3967 42.9006 85.3967 44.1807C85.3967 45.5958 86.6781 46.837 88.139 46.837C89.651 46.837 90.8813 45.7457 90.8813 44.4044C90.8813 43.063 89.651 41.9715 88.139 41.9715Z" fill="#AA3028"/>
<path d="M101.257 43.5914C101.257 44.8994 100.128 45.9602 98.7342 45.9602C97.3412 45.9602 96.2112 44.6883 96.2112 43.38C96.2112 42.0714 97.341 41.222 98.7342 41.222C100.127 41.2222 101.257 42.2828 101.257 43.5914Z" fill="#AF1216"/>
<path d="M98.7342 46.0336C97.3323 46.0336 96.1024 44.7937 96.1024 43.3801C96.1024 42.0874 97.2091 41.1488 98.7342 41.1488C100.186 41.1488 101.366 42.2446 101.366 43.5914C101.366 44.9381 100.186 46.0336 98.7342 46.0336ZM98.7342 41.2955C97.3353 41.2955 96.32 42.1722 96.32 43.3801C96.32 44.692 97.4706 45.8869 98.7342 45.8869C100.065 45.8869 101.149 44.8571 101.149 43.5915C101.149 42.3253 100.065 41.2955 98.7342 41.2955Z" fill="#AA3028"/>
<path d="M107.514 42.5819C106.902 42.6699 106.299 42.7684 105.684 42.8243C105.964 43.8578 106.916 44.7297 108.051 44.7297C109.38 44.7297 110.46 43.7322 110.499 42.4889C109.505 42.4255 108.494 42.4414 107.514 42.5819Z" fill="#AF1216"/>
<path d="M108.051 44.8032C106.926 44.8032 105.885 43.9764 105.577 42.8376C105.572 42.8178 105.579 42.7976 105.596 42.7813C105.614 42.7651 105.64 42.7543 105.67 42.7518C106.15 42.7079 106.635 42.6363 107.103 42.5671C107.232 42.548 107.362 42.5288 107.491 42.5101C108.409 42.3784 109.425 42.347 110.509 42.4158C110.566 42.4195 110.609 42.452 110.608 42.4905C110.567 43.7873 109.444 44.8032 108.051 44.8032ZM105.813 42.8863C106.125 43.9166 107.055 44.6565 108.051 44.6565C109.279 44.6565 110.312 43.7203 110.387 42.5558C109.361 42.4966 108.404 42.5292 107.536 42.6538C107.407 42.6723 107.278 42.6913 107.15 42.7104C106.714 42.7748 106.264 42.8413 105.813 42.8863Z" fill="#AA3028"/>
<path d="M46.8235 45.4255C46.8235 46.8419 48.3036 47.9906 50.1287 47.9906C51.9529 47.9906 53.4329 46.8419 53.4329 45.4255C53.4329 44.009 51.9529 42.8606 50.1287 42.8606C48.3034 42.8606 46.8235 44.009 46.8235 45.4255Z" fill="#AF1216"/>
<path d="M50.1287 48.0641C48.2464 48.0641 46.7148 46.8805 46.7148 45.4256C46.7148 43.9708 48.2464 42.7874 50.1287 42.7874C52.0105 42.7874 53.5417 43.9708 53.5417 45.4256C53.5417 46.8803 52.0105 48.0641 50.1287 48.0641ZM50.1287 42.9339C48.366 42.9339 46.9323 44.0516 46.9323 45.4255C46.9323 46.7994 48.3662 47.9172 50.1287 47.9172C51.8907 47.9172 53.3242 46.7994 53.3242 45.4255C53.3242 44.0516 51.8907 42.9339 50.1287 42.9339Z" fill="#AA3028"/>
<path d="M34.0995 45.3669C34.0995 46.7506 35.5023 47.8725 37.2315 47.8725C38.9604 47.8725 40.3632 46.527 40.3632 45.1431C40.3632 43.7591 38.9606 42.8605 37.2315 42.8605C35.5023 42.8606 34.0995 43.9827 34.0995 45.3669Z" fill="#AF1216"/>
<path d="M37.2317 47.9458C35.4447 47.9458 33.9909 46.7888 33.9909 45.3668C33.9909 43.9445 35.4449 42.7872 37.2317 42.7872C39.1094 42.7872 40.4722 43.778 40.4722 45.1432C40.472 46.6361 38.9578 47.9458 37.2317 47.9458ZM37.2317 42.9339C35.5647 42.9339 34.2085 44.0254 34.2085 45.3668C34.2085 46.7081 35.5647 47.7991 37.2317 47.7991C38.8418 47.7991 40.2546 46.558 40.2546 45.1431C40.2544 43.8631 38.9832 42.9339 37.2317 42.9339Z" fill="#AA3028"/>
<path d="M22.5387 44.4044C22.5387 45.7881 23.8156 46.9104 25.3898 46.9104C26.964 46.9104 28.2407 45.5647 28.2407 44.1807C28.2407 42.7965 26.964 41.8982 25.3898 41.8982C23.8156 41.8982 22.5387 43.0203 22.5387 44.4044Z" fill="#AF1216"/>
<path d="M25.3898 46.9837C23.7577 46.9837 22.4299 45.8266 22.4299 44.4044C22.4299 42.9821 23.7579 41.8248 25.3898 41.8248C27.1048 41.8248 28.3494 42.8156 28.3494 44.1807C28.3497 45.674 26.9664 46.9837 25.3898 46.9837ZM25.3898 41.9715C23.8778 41.9715 22.6475 43.0628 22.6475 44.4044C22.6475 45.7459 23.8778 46.837 25.3898 46.837C26.8507 46.837 28.1319 45.5956 28.1319 44.1807C28.1321 42.9006 26.9788 41.9715 25.3898 41.9715Z" fill="#AA3028"/>
<path d="M22.5387 44.4044C22.5387 45.7881 23.8156 46.9104 25.3898 46.9104C26.964 46.9104 28.2407 45.5647 28.2407 44.1807C28.2407 42.7965 26.964 41.8982 25.3898 41.8982C23.8156 41.8982 22.5387 43.0203 22.5387 44.4044Z" fill="#AF1216"/>
<path d="M25.3898 46.9837C23.7577 46.9837 22.4299 45.8266 22.4299 44.4044C22.4299 42.9821 23.7579 41.8248 25.3898 41.8248C27.1048 41.8248 28.3494 42.8156 28.3494 44.1807C28.3497 45.674 26.9664 46.9837 25.3898 46.9837ZM25.3898 41.9715C23.8778 41.9715 22.6475 43.0628 22.6475 44.4044C22.6475 45.7459 23.8778 46.837 25.3898 46.837C26.8507 46.837 28.1319 45.5956 28.1319 44.1807C28.1321 42.9006 26.9788 41.9715 25.3898 41.9715Z" fill="#AA3028"/>
<path d="M12.2713 43.5914C12.2713 44.8994 13.4011 45.9602 14.7945 45.9602C16.1876 45.9602 17.3176 44.6883 17.3176 43.38C17.3176 42.0714 16.1878 41.222 14.7945 41.222C13.4013 41.2222 12.2713 42.2828 12.2713 43.5914Z" fill="#AF1216"/>
<path d="M14.7945 46.0336C13.3432 46.0336 12.1625 44.9381 12.1625 43.5915C12.1625 42.2446 13.3432 41.1489 14.7945 41.1489C16.3196 41.1489 17.4263 42.0873 17.4263 43.3802C17.4263 44.7937 16.1965 46.0336 14.7945 46.0336ZM14.7945 41.2955C13.4633 41.2955 12.3801 42.3255 12.3801 43.5913C12.3801 44.8571 13.4633 45.8867 14.7945 45.8867C16.0581 45.8867 17.2088 44.6919 17.2088 43.3799C17.2088 42.172 16.1934 41.2955 14.7945 41.2955Z" fill="#AA3028"/>
<path d="M5.91886 42.78C4.9379 42.7482 3.95432 42.7206 3.02927 42.4823C3.06516 43.7287 4.14686 44.7299 5.47809 44.7299C6.61113 44.7299 7.56229 43.8604 7.84337 42.8294C7.20441 42.8479 6.55717 42.8007 5.91886 42.78Z" fill="#AF1216"/>
<path d="M5.47834 44.8033C4.08162 44.8033 2.95815 43.7845 2.92073 42.4836C2.92008 42.4593 2.93727 42.4363 2.96707 42.4222C2.99666 42.4082 3.03473 42.4049 3.06845 42.4137C3.95913 42.643 4.929 42.6744 5.86668 42.7048L5.92455 42.7067C6.10795 42.7125 6.292 42.7207 6.47649 42.7287C6.92509 42.7485 7.38805 42.7692 7.83905 42.756C7.87103 42.7562 7.9041 42.7645 7.92564 42.7812C7.94761 42.7981 7.95675 42.8205 7.95066 42.8427C7.64085 43.9787 6.60115 44.8033 5.47834 44.8033ZM3.14395 42.5883C3.23597 43.7382 4.26023 44.6565 5.47834 44.6565C6.46757 44.6565 7.3924 43.9257 7.71047 42.9058C7.29559 42.9124 6.87136 42.8934 6.46235 42.8752C6.27916 42.8672 6.0962 42.8592 5.91389 42.8532L5.85623 42.8513C4.95402 42.8223 4.02266 42.7922 3.14395 42.5883Z" fill="#AA3028"/>
<path d="M110.448 42.4729C77.079 33.6622 60.9269 15.9693 56.7644 10.7603C52.601 15.9704 36.443 33.6698 3.05994 42.4785C3.03862 42.4812 3.02579 42.4842 3.02579 42.4879C3.02579 43.0165 27.0854 45.4358 56.7644 45.4358C86.4435 45.4358 110.503 43.0165 110.503 42.4879C110.503 42.4835 110.483 42.4782 110.448 42.4729Z" fill="#FE0000"/>
<path d="M56.7644 45.5091C39.7869 45.5091 25.6626 44.7097 18.7545 44.2331C14.3227 43.9274 10.2302 43.5761 7.23117 43.2439C2.91701 42.7662 2.91701 42.5783 2.91701 42.4881C2.91701 42.4633 2.93311 42.4195 3.04058 42.4065C36.3303 33.621 52.5046 15.9363 56.6684 10.7255C56.7067 10.6781 56.8218 10.6781 56.8601 10.7255C61.0224 15.9343 77.1908 33.6129 110.488 42.4047C110.514 42.4078 110.612 42.4228 110.612 42.4879C110.612 42.5781 110.612 42.7662 106.298 43.2438C103.299 43.576 99.2061 43.9272 94.7742 44.233C87.8664 44.7095 73.7421 45.5091 56.7644 45.5091ZM3.22898 42.5127C5.02144 43.098 27.5806 45.3624 56.7644 45.3624C85.9575 45.3624 108.522 43.0966 110.302 42.5123C77.2533 33.7545 61.0785 16.2736 56.7644 10.9145C52.4489 16.2752 36.2711 33.7599 3.22898 42.5127Z" fill="#AA3028"/>
<path d="M60.0956 45.4255C62.3393 45.4118 64.5451 45.3853 66.705 45.3471C59.62 34.8599 56.7929 11.0698 56.7646 10.8337C56.7739 11.0704 57.7212 34.9791 60.0956 45.4255Z" fill="#FE0000"/>
<path d="M60.0956 45.4989C60.0419 45.4989 59.9962 45.4725 59.9881 45.4367C57.6359 35.0892 56.6945 11.8212 56.6558 10.8357C56.6543 10.7959 56.7 10.7626 56.7589 10.7603C56.8142 10.7578 56.8684 10.788 56.8729 10.8278C56.9906 11.8117 59.8258 34.9876 66.8042 45.3167C66.8192 45.339 66.8168 45.3651 66.7975 45.3859C66.7781 45.4069 66.7446 45.4197 66.708 45.4204C64.5142 45.4591 62.2899 45.4854 60.0969 45.4987C60.0963 45.4989 60.0956 45.4989 60.0956 45.4989ZM56.9815 13.2504C57.2885 19.6251 58.264 36.8201 60.1889 45.3517C62.2958 45.3385 64.4302 45.3133 66.5384 45.2768C60.8249 36.7191 57.9029 19.5973 56.9815 13.2504Z" fill="#AA3028"/>
<path d="M56.7644 10.8314C56.7515 10.8781 50.3164 34.2785 34.1288 44.9839C36.1426 45.0636 38.2239 45.1352 40.3638 45.1969C52.0941 34.5949 56.7528 10.8901 56.7644 10.8314Z" fill="#FE0000"/>
<path d="M40.3638 45.2704C40.3623 45.2704 40.3606 45.2704 40.3592 45.2704C38.2753 45.2103 36.1767 45.1385 34.1225 45.0573C34.0797 45.0555 34.0423 45.0369 34.0272 45.0099C34.012 44.9826 34.0222 44.9519 34.0527 44.9317C50.0897 34.3261 56.5936 11.0522 56.6573 10.8184C56.6682 10.7791 56.7241 10.7524 56.7813 10.7591C56.8396 10.7654 56.8799 10.8018 56.8723 10.8413C56.8257 11.0789 52.0836 34.7273 40.4511 45.2411C40.4304 45.2594 40.398 45.2704 40.3638 45.2704ZM34.3793 44.9204C36.3353 44.997 38.3294 45.0646 40.311 45.1221C49.6526 36.6484 54.5357 19.6471 56.0936 13.2922C53.9498 19.5616 47.2458 36.3017 34.3793 44.9204Z" fill="#AA3028"/>
<path d="M56.7646 10.8318C56.7552 10.911 53.9326 34.825 46.824 45.3472C48.9839 45.3854 51.1901 45.4119 53.4336 45.4256C55.8141 34.953 56.76 10.9512 56.7648 10.8321V10.8318H56.7646Z" fill="#FE0000"/>
<path d="M53.4334 45.4989C53.4334 45.4989 53.4327 45.4989 53.4323 45.4989C51.2391 45.4855 49.0145 45.4591 46.8209 45.4205C46.7844 45.4198 46.7509 45.4069 46.7315 45.3861C46.7121 45.3652 46.7095 45.3393 46.7248 45.3168C53.7458 34.9248 56.6277 11.0658 56.656 10.826C56.6608 10.7867 56.7111 10.7553 56.7687 10.7584C56.8272 10.7601 56.8731 10.7923 56.8731 10.8317C56.8636 11.075 55.8994 35.0608 53.5408 45.4367C53.533 45.4726 53.4873 45.4989 53.4334 45.4989ZM46.9906 45.2768C49.0983 45.3134 51.2332 45.3385 53.3402 45.3517C55.2406 36.9273 56.2316 19.659 56.5444 13.2728C56.1928 15.6902 55.5493 19.6739 54.5642 24.1841C53.1177 30.8061 50.6321 39.8209 46.9906 45.2768Z" fill="#AA3028"/>
<path d="M56.7646 10.8314C56.794 10.8885 68.083 32.9828 96.305 44.0509C98.1037 43.9202 99.7613 43.7883 101.257 43.6586C69.5145 32.4669 56.7911 10.8763 56.7646 10.8314Z" fill="#FE0000"/>
<path d="M96.305 44.1243C96.2858 44.1243 96.2669 44.1209 96.2504 44.1145C81.7014 38.4086 71.746 29.7248 65.9566 23.4447C59.6438 16.597 56.7937 11.1123 56.6639 10.8593C56.6639 10.859 56.6637 10.859 56.6637 10.859C56.6432 10.8244 56.6645 10.7848 56.713 10.7671C56.762 10.7496 56.8223 10.7588 56.8538 10.7895C56.8586 10.7942 56.8636 10.8008 56.8671 10.8065C57.0017 11.0339 60.2116 16.3928 67.3111 23.1222C73.8139 29.2858 84.9905 37.8404 101.308 43.5935C101.35 43.6084 101.373 43.6398 101.365 43.6714C101.356 43.7029 101.319 43.7271 101.271 43.7312C99.7319 43.8646 98.065 43.9967 96.3169 44.1237C96.3128 44.1242 96.3089 44.1243 96.305 44.1243ZM58.4354 13.467C59.8961 15.7571 62.4133 19.3231 66.1413 23.3671C71.9135 29.6286 81.8361 38.2846 96.3289 43.9754C97.934 43.8586 99.47 43.7377 100.902 43.6153C84.7116 37.8502 73.6101 29.3454 67.134 23.2073C62.9304 19.223 60.0867 15.7164 58.4354 13.467Z" fill="#AA3028"/>
<path d="M56.7648 10.8318V10.8321C56.8059 10.9487 64.9508 33.9117 85.3566 44.7171C87.3266 44.6183 89.2126 44.5133 90.9994 44.4046C66.5597 33.466 56.7981 10.909 56.7648 10.8318Z" fill="#FE0000"/>
<path d="M85.3566 44.7904C85.3325 44.7904 85.3086 44.785 85.2894 44.7748C74.725 39.1808 67.5137 30.2785 63.3242 23.7956C58.767 16.7436 56.7428 11.0866 56.6589 10.8493C56.6569 10.8436 56.6558 10.8379 56.6558 10.8322C56.6558 10.7958 56.6956 10.7647 56.7494 10.7596C56.802 10.7549 56.8538 10.7764 56.8692 10.8115C56.97 11.0443 59.4005 16.5913 64.8325 23.5196C69.8391 29.9052 78.4533 38.7016 91.0592 44.3436C91.0978 44.3609 91.116 44.3926 91.1045 44.4229C91.0932 44.4529 91.0549 44.4749 91.009 44.4779C89.1739 44.5895 87.275 44.6947 85.3647 44.7905C85.3618 44.7904 85.3592 44.7904 85.3566 44.7904ZM57.9024 13.3566C58.9326 15.7044 60.762 19.4635 63.5237 23.7369C67.6986 30.1977 74.8799 39.0656 85.3906 44.6418C87.1793 44.552 88.9576 44.454 90.6822 44.3501C78.1779 38.6869 69.6248 29.9452 64.6402 23.5879C61.337 19.3747 59.141 15.6701 57.9024 13.3566Z" fill="#AA3028"/>
<path d="M56.7655 10.8337C56.8116 11.0688 61.4791 34.6351 73.1658 45.1967C75.3053 45.1353 77.3864 45.0637 79.4006 44.984C63.2778 34.322 56.8297 11.0672 56.7655 10.8337Z" fill="#FE0000"/>
<path d="M73.1658 45.2701C73.1317 45.2701 73.0992 45.2593 73.0788 45.2407C61.4562 34.737 56.7043 11.0812 56.6578 10.8435C56.6502 10.804 56.6904 10.7676 56.7487 10.7613C56.8068 10.755 56.8621 10.7814 56.8725 10.8203C56.9391 11.0621 58.5425 16.8258 62.1642 23.9745C65.4689 30.4974 71.1551 39.4284 79.4767 44.9315C79.5076 44.9519 79.5178 44.9826 79.5024 45.0097C79.4874 45.0369 79.4499 45.0555 79.4071 45.0571C77.3438 45.1388 75.2454 45.2103 73.1706 45.27C73.1689 45.2701 73.1673 45.2701 73.1658 45.2701ZM57.4567 13.377C59.0376 19.7961 63.9201 36.688 73.2187 45.1218C75.1919 45.0649 77.1856 44.9971 79.1502 44.9204C74.5453 41.8336 67.8846 35.7191 61.9583 24.0217C59.736 19.636 58.2725 15.7695 57.4567 13.377Z" fill="#AA3028"/>
<path d="M56.7644 10.8313C56.7505 10.8642 46.9934 33.4549 22.5298 44.4045C24.3168 44.5132 26.2026 44.6183 28.1728 44.717C48.6132 33.8935 56.7507 10.87 56.7644 10.8313Z" fill="#FE0000"/>
<path d="M28.1728 44.7904C28.17 44.7904 28.1676 44.7904 28.1647 44.7903C26.2561 44.6946 24.3568 44.5894 22.52 44.4776C22.4741 44.4747 22.4356 44.4527 22.4243 44.4226C22.4127 44.3924 22.431 44.3607 22.4695 44.3434C46.6954 33.5003 56.5629 11.0366 56.6597 10.8109C56.6761 10.7726 56.7354 10.7503 56.7918 10.7603C56.849 10.7703 56.8836 10.8093 56.8699 10.8482C56.8497 10.9057 54.7953 16.6827 50.2281 23.759C46.0362 30.2543 38.8183 39.1733 28.2398 44.7747C28.2209 44.785 28.1969 44.7904 28.1728 44.7904ZM22.8468 44.3501C24.5731 44.454 26.3516 44.5521 28.1388 44.6418C44.3162 36.0592 52.8183 19.6858 55.6074 13.3782C52.2753 19.5675 42.1454 35.6107 22.8468 44.3501Z" fill="#AA3028"/>
<path d="M56.7644 10.8312C56.75 10.8561 44.029 32.4618 12.2715 43.6586C13.7679 43.7883 15.425 43.9202 17.2242 44.051C45.4645 32.9755 56.75 10.8596 56.7644 10.8312Z" fill="#FE0000"/>
<path d="M17.2242 44.1245C17.2203 44.1245 17.2164 44.1244 17.2125 44.1241C15.4672 43.9973 13.7999 43.8653 12.2578 43.7316C12.2106 43.7275 12.1728 43.7033 12.1645 43.6718C12.1562 43.6402 12.1791 43.6087 12.2213 43.5938C28.6014 37.8187 39.8056 29.2207 46.3205 23.025C53.4351 16.2589 56.6317 10.8584 56.6632 10.8045C56.685 10.7676 56.747 10.7489 56.802 10.7627C56.8575 10.7765 56.8866 10.8176 56.8673 10.8553C56.8392 10.9106 53.9866 16.4621 47.6716 23.3373C41.8704 29.6534 31.8882 38.3851 17.279 44.1147C17.2623 44.1211 17.2434 44.1245 17.2242 44.1245ZM12.6277 43.6156C14.0614 43.7381 15.5975 43.859 17.2005 43.9756C31.7518 38.2617 41.7001 29.5592 47.4836 23.2631C51.1294 19.2942 53.62 15.7654 55.0768 13.4863C50.6018 19.5707 37.4616 34.7734 12.6277 43.6156Z" fill="#AA3028"/>
<path d="M60.0956 45.4255C60.0956 46.8419 58.6045 47.9906 56.7642 47.9906C54.9249 47.9906 53.4331 46.8419 53.4331 45.4255C53.4331 44.009 54.9249 42.8606 56.7642 42.8606C58.6045 42.8606 60.0956 44.009 60.0956 45.4255Z" fill="#E4E5E6"/>
<path d="M56.7644 48.0641C54.8677 48.0641 53.3246 46.8805 53.3246 45.4256C53.3246 43.9708 54.8677 42.7874 56.7644 42.7874C58.6613 42.7874 60.2046 43.9708 60.2046 45.4256C60.2044 46.8803 58.6613 48.0641 56.7644 48.0641ZM56.7644 42.9339C54.9876 42.9339 53.5421 44.0516 53.5421 45.4255C53.5421 46.7994 54.9876 47.9172 56.7644 47.9172C58.5414 47.9172 59.9871 46.7994 59.9871 45.4255C59.9868 44.0516 58.5414 42.9339 56.7644 42.9339Z" fill="#B6B8BA"/>
<path d="M53.4329 45.4255C53.4329 46.8419 54.9247 47.9906 56.7644 47.9906C58.6038 47.9906 60.0958 46.8419 60.0958 45.4255C60.0958 44.009 58.6041 42.8606 56.7644 42.8606C54.9247 42.8606 53.4329 44.009 53.4329 45.4255Z" fill="#E4E5E6"/>
<path d="M56.7644 48.0641C54.8673 48.0641 53.3242 46.8805 53.3242 45.4256C53.3242 43.9708 54.8675 42.7874 56.7644 42.7874C58.6613 42.7874 60.2046 43.9708 60.2046 45.4256C60.2044 46.8803 58.6613 48.0641 56.7644 48.0641ZM56.7644 42.9339C54.9874 42.9339 53.5417 44.0516 53.5417 45.4255C53.5417 46.7994 54.9874 47.9172 56.7644 47.9172C58.5414 47.9172 59.9871 46.7994 59.9871 45.4255C59.9868 44.0516 58.5414 42.9339 56.7644 42.9339Z" fill="#B6B8BA"/>
<path d="M56.7646 10.8312C56.7911 10.8762 69.5145 32.4668 101.257 43.6585C103.002 43.5078 104.528 43.3602 105.813 43.2221C70.8397 31.9138 56.7892 10.8681 56.7646 10.8312Z" fill="white"/>
<path d="M101.257 43.7319C101.24 43.7319 101.223 43.729 101.207 43.7235C84.8062 37.9409 73.585 29.3366 67.0599 23.1368C59.9805 16.4106 56.7959 11.0824 56.6639 10.8588C56.6419 10.8218 56.668 10.7796 56.7226 10.764C56.7766 10.7485 56.8399 10.7649 56.864 10.8013C57.0089 11.018 60.4994 16.179 68.2897 22.7722C75.4732 28.8519 87.8226 37.3238 105.86 43.1562C105.903 43.1701 105.928 43.2012 105.921 43.2329C105.914 43.2646 105.878 43.2897 105.831 43.2948C104.483 43.4395 102.949 43.5864 101.271 43.7315C101.267 43.7318 101.262 43.7319 101.257 43.7319ZM58.6598 13.4452C60.2956 15.67 63.0905 19.1098 67.22 23.0357C73.7295 29.2241 84.9207 37.8104 101.278 43.583C102.799 43.4514 104.201 43.3182 105.452 43.1866C87.5348 37.3413 75.2568 28.9081 68.0983 22.8457C63.5835 19.0224 60.4814 15.6346 58.6598 13.4452Z" fill="#B6B8BA"/>
<path d="M56.7644 10.8314C56.7528 10.89 52.0941 34.5949 40.3638 45.1971C42.4639 45.2575 44.6201 45.308 46.8237 45.3472C53.9326 34.825 56.755 10.9109 56.7644 10.8317V10.8314Z" fill="white"/>
<path d="M46.824 45.4205C46.8231 45.4205 46.822 45.4205 46.8209 45.4205C44.6545 45.3818 42.4804 45.3314 40.3593 45.2704C40.3192 45.2691 40.2831 45.2531 40.2657 45.2286C40.2483 45.2039 40.2524 45.175 40.2768 45.1532C51.8726 34.6725 56.6101 11.0592 56.6565 10.822C56.6643 10.7825 56.7165 10.7536 56.7757 10.7586C56.8344 10.7626 56.8775 10.7976 56.8727 10.8371C56.8727 10.8378 56.8725 10.8393 56.8723 10.8414C56.8723 10.8417 56.8723 10.842 56.8723 10.8422C56.8477 11.0509 56.1335 17.0004 54.5642 24.1839C53.109 30.847 50.6016 39.9326 46.923 45.3775C46.9053 45.4038 46.8664 45.4205 46.824 45.4205ZM40.5733 45.1295C42.6049 45.1872 44.683 45.2355 46.7546 45.2726C52.4113 36.8557 55.3731 19.7027 56.3164 13.304C55.7275 15.7271 54.6569 19.6987 53.035 24.1581C48.7411 35.9664 43.9113 42.0715 40.5733 45.1295Z" fill="#B6B8BA"/>
<path d="M56.7646 10.832C56.76 10.9513 55.8141 34.9529 53.4334 45.4255C54.5351 45.4321 55.6453 45.4356 56.7644 45.4356C57.8833 45.4356 58.9937 45.4321 60.0958 45.4255C57.7212 34.9792 56.774 11.0704 56.7648 10.8336C56.7646 10.8332 56.7646 10.8326 56.7646 10.832Z" fill="white"/>
<path d="M56.7644 45.5091C55.6818 45.5091 54.561 45.5058 53.4325 45.499C53.401 45.4989 53.3711 45.4895 53.3507 45.4732C53.3302 45.457 53.3211 45.4355 53.3261 45.4145C55.6842 35.0406 56.6467 11.0712 56.656 10.8302C56.6578 10.7905 56.7059 10.7588 56.7648 10.7588C56.7653 10.7588 56.7657 10.7588 56.7663 10.7588C56.8257 10.7594 56.8736 10.7921 56.8736 10.8321C56.9125 11.8171 57.8535 35.0762 60.2035 45.4145C60.2083 45.4356 60.1992 45.457 60.1789 45.4732C60.1585 45.4893 60.1285 45.4989 60.0971 45.499C58.968 45.5056 57.8469 45.5091 56.7644 45.5091ZM53.56 45.3529C54.6454 45.3592 55.7227 45.3623 56.7644 45.3623C57.806 45.3623 58.8836 45.3592 59.9692 45.3529C58.0447 36.803 57.0701 19.6119 56.7635 13.2465C56.4526 19.6038 55.4632 36.8947 53.56 45.3529Z" fill="#B6B8BA"/>
<path d="M56.7646 10.8317C56.7646 10.832 56.7646 10.833 56.7646 10.8337C56.7929 11.0698 59.62 34.8598 66.705 45.3471C68.9095 45.3079 71.0653 45.2575 73.1656 45.1967C61.4788 34.6351 56.8114 11.0688 56.7653 10.8337C56.7653 10.833 56.7646 10.832 56.7646 10.8317Z" fill="white"/>
<path d="M66.705 45.4205C66.6626 45.4205 66.6236 45.4037 66.606 45.3775C59.6126 35.0261 56.774 11.8245 56.6565 10.8419H56.6576C56.6589 10.8019 56.7063 10.764 56.7655 10.764C56.814 10.764 56.8542 10.7816 56.8684 10.8097C56.8684 10.8097 56.8686 10.81 56.8686 10.8103C56.8701 10.8135 56.8714 10.8169 56.8723 10.8202C56.8729 10.8221 56.8734 10.8236 56.8736 10.824C56.9202 11.0614 61.6649 34.6801 73.2531 45.1529C73.2772 45.1746 73.2816 45.2036 73.2644 45.2283C73.247 45.2528 73.2111 45.2688 73.1706 45.2701C71.0572 45.3311 68.883 45.3819 66.7081 45.4205C66.707 45.4205 66.7059 45.4205 66.705 45.4205ZM57.1921 13.1966C58.108 19.5167 61.0366 36.7358 66.7744 45.2724C68.8538 45.2352 70.9319 45.187 72.9563 45.1292C63.5892 36.5533 58.7163 19.4449 57.1921 13.1966Z" fill="#B6B8BA"/>
<path d="M56.7648 10.8314V10.8317C56.7981 10.9087 66.5597 33.4659 90.9992 44.4045C92.8804 44.2899 94.6522 44.1711 96.305 44.0509C68.083 32.9829 56.794 10.8885 56.7648 10.8314Z" fill="white"/>
<path d="M90.9992 44.4779C90.9779 44.4779 90.957 44.4736 90.9392 44.4657C78.2949 38.8065 69.6586 29.9883 64.64 23.5874C59.1976 16.646 56.7613 11.0856 56.6604 10.8523C56.6439 10.8141 56.6754 10.7741 56.7318 10.7621C56.7892 10.7499 56.8481 10.7704 56.8677 10.808C56.9843 11.0361 59.7982 16.4695 66.0739 23.2943C71.8585 29.5847 81.8083 38.2809 96.3594 43.9875C96.4003 44.0035 96.4209 44.0352 96.4112 44.0663C96.4014 44.0973 96.3631 44.1205 96.3163 44.124C94.6102 44.2481 92.8245 44.3671 91.0088 44.4777C91.0059 44.4777 91.0025 44.4779 90.9992 44.4779ZM58.2201 13.5048C59.4826 15.8356 61.652 19.4619 64.8258 23.5108C69.8289 29.894 78.4353 38.6847 91.0273 44.3293C92.7125 44.2264 94.3716 44.1164 95.9645 44.0018C81.5181 38.2741 71.6316 29.6211 65.8698 23.3506C62.1624 19.316 59.6681 15.7778 58.2201 13.5048Z" fill="#B6B8BA"/>
<path d="M56.7648 10.832C56.7653 10.8326 56.7652 10.8332 56.7655 10.8338C56.8296 11.0672 63.278 34.322 79.4006 44.9841C81.4597 44.9025 83.4482 44.813 85.3566 44.7172C64.9508 33.9117 56.8059 10.9487 56.7648 10.832Z" fill="white"/>
<path d="M79.4006 45.0574C79.3721 45.0574 79.3449 45.0499 79.3242 45.0364C70.9785 39.5171 65.2791 30.5729 61.9681 24.0415C58.3484 16.9019 56.7335 11.1191 56.6593 10.8497C56.6591 10.8493 56.6591 10.8492 56.6591 10.8492C56.6465 10.8136 56.6743 10.7774 56.7248 10.7639C56.7744 10.7501 56.832 10.7638 56.859 10.7953C56.8649 10.8023 56.8697 10.8107 56.8721 10.8188C56.9654 11.0808 59.0191 16.7858 63.577 23.8187C67.7502 30.2583 74.9278 39.1012 85.4239 44.6592C85.4591 44.678 85.4737 44.7094 85.4608 44.7383C85.4476 44.7672 85.4097 44.7878 85.3649 44.7902C83.4232 44.8876 81.4188 44.9774 79.4071 45.0571C79.4047 45.0574 79.4027 45.0574 79.4006 45.0574ZM57.6592 13.315C58.4733 15.7064 59.9418 19.5912 62.1739 23.9941C65.473 30.5013 71.1458 39.408 79.4423 44.9089C81.3407 44.8335 83.2322 44.7491 85.0699 44.6579C74.6576 39.0746 67.5315 30.2877 63.3773 23.8776C60.5573 19.5258 58.6937 15.6809 57.6592 13.315Z" fill="#B6B8BA"/>
<path d="M56.7644 10.8314C56.7507 10.87 48.6132 33.8933 28.1728 44.717C30.0808 44.8128 32.0695 44.9025 34.1289 44.9839C50.3164 34.2786 56.7516 10.8782 56.7644 10.8314Z" fill="white"/>
<path d="M34.1289 45.0574C34.1267 45.0574 34.1245 45.0574 34.1226 45.0573C32.1095 44.9776 30.1049 44.8878 28.1647 44.7904C28.1199 44.7881 28.0819 44.7675 28.0688 44.7385C28.0558 44.7096 28.0705 44.6782 28.1058 44.6594C48.338 33.9459 56.5777 11.0445 56.6587 10.8144C56.6719 10.7759 56.7287 10.7512 56.7868 10.7596C56.8447 10.7678 56.8823 10.8055 56.8717 10.8447C56.8079 11.0788 50.3156 34.3821 34.205 45.0364C34.1848 45.0499 34.1574 45.0574 34.1289 45.0574ZM28.4595 44.6579C30.2959 44.7492 32.1876 44.8335 34.0871 44.9089C46.9634 36.3713 53.6847 19.6721 55.8565 13.3364C54.8229 15.6931 52.9785 19.4981 50.2283 23.7592C46.0654 30.2094 38.918 39.0496 28.4595 44.6579Z" fill="#B6B8BA"/>
<path d="M56.7644 10.8313C56.75 10.8596 45.4645 32.9755 17.2242 44.051C18.877 44.1711 20.6486 44.29 22.5298 44.4045C46.9935 33.4551 56.7505 10.8642 56.7644 10.8313Z" fill="white"/>
<path d="M22.5298 44.4779C22.5265 44.4779 22.5233 44.4777 22.52 44.4776C20.7038 44.367 18.9181 44.248 17.2125 44.1239C17.1657 44.1205 17.1274 44.0972 17.1176 44.0662C17.1078 44.0351 17.1287 44.0034 17.1694 43.9874C31.7381 38.2738 41.6955 29.5636 47.4834 23.2629C53.7821 16.406 56.6334 10.8624 56.6615 10.8073C56.6804 10.7697 56.7405 10.749 56.797 10.7612C56.8534 10.7731 56.8851 10.8131 56.8688 10.8514C56.7727 11.0772 46.9541 33.5606 22.5898 44.4656C22.572 44.4736 22.5509 44.4779 22.5298 44.4779ZM17.5643 44.0018C19.1568 44.1162 20.8159 44.2263 22.5013 44.3293C41.66 35.742 51.8313 19.8862 55.2861 13.5399C53.8358 15.8127 51.3507 19.3316 47.667 23.3417C41.9044 29.6149 32.0157 38.2719 17.5643 44.0018Z" fill="#B6B8BA"/>
<path d="M56.7644 10.8311C56.7496 10.8531 42.7015 31.9098 7.71632 43.2222C9.00056 43.3601 10.5276 43.5077 12.2715 43.6585C44.029 32.4617 56.75 10.856 56.7644 10.8311Z" fill="white"/>
<path d="M12.2715 43.7319C12.267 43.7319 12.2624 43.7318 12.2578 43.7313C10.5792 43.5862 9.04538 43.4394 7.69914 43.2947C7.65215 43.2896 7.6156 43.2645 7.60863 43.2328C7.60189 43.201 7.62647 43.1698 7.66933 43.1561C25.7037 37.3246 38.0514 28.8548 45.2345 22.7766C53.0246 16.1843 56.5201 11.018 56.6652 10.8012C56.6893 10.7648 56.7535 10.7484 56.8066 10.7636C56.861 10.7792 56.8873 10.8208 56.8658 10.858C56.7402 11.0738 43.9557 32.5703 12.322 43.7237C12.3063 43.7291 12.2889 43.7319 12.2715 43.7319ZM8.07747 43.1866C9.32755 43.3182 10.7297 43.4513 12.2515 43.583C28.6153 37.8079 39.8097 29.2168 46.3208 23.0247C50.336 19.2061 53.1038 15.8219 54.7585 13.589C52.9315 15.7733 49.8724 19.0875 45.4046 22.8682C38.249 28.9231 25.9783 37.3466 8.07747 43.1866Z" fill="#B6B8BA"/>
<path opacity="0.5" d="M110.448 42.4729C77.079 33.6622 60.9269 15.9693 56.7644 10.7603C52.601 15.9704 36.443 33.6698 3.05994 42.4785C3.03862 42.4812 3.02579 42.4842 3.02579 42.4879C3.02579 43.0165 27.0854 45.4358 56.7644 45.4358C86.4435 45.4358 110.503 43.0165 110.503 42.4879C110.503 42.4835 110.483 42.4782 110.448 42.4729ZM14.7943 41.3861C12.1153 40.1997 21.8101 36.8768 21.8101 36.8768C44.0782 28.7313 53.5195 16.7943 53.5195 16.7943C56.1861 13.2969 56.5014 18.3074 64.965 37.4628C69.4658 47.6492 17.4738 42.5721 14.7943 41.3861Z" fill="#96999B"/>
<path opacity="0.5" d="M110.448 42.473C77.3855 33.7431 61.2271 16.2958 56.8845 10.9091C58.499 16.2179 67.6512 29.2403 81.522 39.3573C82.4836 40.0584 82.6896 41.2134 82.4196 42.1839C82.0456 43.5276 80.3034 44.0898 78.6108 44.6058C78.0615 44.7732 77.5009 44.9304 76.9324 45.0763C96.6172 44.3819 110.503 42.8895 110.503 42.4879C110.503 42.4835 110.483 42.4783 110.448 42.473Z" fill="#686B6D"/>
<path d="M56.8479 8.44867C56.8479 8.44867 60.0125 7.25482 61.6929 7.21374C63.1377 7.17867 63.2324 8.09581 63.4501 8.5546C63.8019 9.29567 64.5049 9.2606 66.4583 9.11946C69.7312 8.88295 72.1226 7.10796 72.1226 7.10796C68.4111 8.48417 68.1383 6.5786 67.2011 6.64902C68.0989 5.16687 70.0528 4.2493 72.5129 4.10845C72.1226 3.82602 70.9119 3.04958 68.6071 4.21409C66.3014 5.37874 64.8173 4.74345 64.3876 4.00252C63.9579 3.26159 63.3723 2.55603 61.0666 2.52052C58.7627 2.48531 56.8475 3.40288 56.8475 3.40288V8.44867H56.8479Z" fill="#F9CE0D"/>
<path d="M64.9108 9.2738C64.0001 9.2738 63.5909 9.09128 63.3466 8.57689C63.314 8.50778 63.2837 8.42841 63.2517 8.34361C63.0688 7.86164 62.8384 7.26156 61.6968 7.28709C60.0619 7.32699 56.9326 8.50074 56.901 8.51277C56.8673 8.52554 56.8262 8.5251 56.7929 8.51189C56.7596 8.49869 56.7392 8.47462 56.7392 8.44866V3.40243C56.7392 3.37866 56.7561 3.35651 56.7848 3.34272C56.8627 3.3053 58.7542 2.41311 61.0694 2.44686C63.4282 2.48324 64.0521 3.22197 64.4892 3.97566C64.7152 4.36578 65.2989 4.78261 66.2588 4.78261C66.9498 4.78261 67.718 4.57163 68.5421 4.15524C69.3777 3.73313 70.1605 3.51907 70.8684 3.51907C71.8474 3.51907 72.4083 3.92504 72.5928 4.05856C72.6211 4.0791 72.6295 4.10873 72.6147 4.13485C72.5997 4.16126 72.5641 4.1793 72.5223 4.1815C70.135 4.31825 68.2629 5.19078 67.3618 6.58108C67.6138 6.61468 67.8198 6.76052 68.0541 6.92616C68.4381 7.19759 68.9156 7.53519 69.8098 7.53504C70.4303 7.53504 71.191 7.36969 72.0704 7.04354C72.1172 7.02637 72.1753 7.03429 72.2083 7.06246C72.2412 7.09049 72.2392 7.13069 72.2036 7.15724C72.1794 7.175 69.7465 8.95542 66.4703 9.19222C65.81 9.24005 65.3118 9.2738 64.9108 9.2738ZM61.7728 7.13934C63.0196 7.13934 63.2861 7.84212 63.4625 8.30722C63.4937 8.38923 63.5224 8.46538 63.5541 8.53214C63.8702 9.19838 64.4315 9.19193 66.447 9.04639C68.7738 8.87825 70.6667 7.90991 71.5328 7.38935C70.8843 7.58566 70.3163 7.68161 69.81 7.68161C68.8225 7.68176 68.2875 7.30337 67.8968 7.02725C67.6396 6.84532 67.441 6.70359 67.2135 6.72193C67.1749 6.72457 67.1377 6.71386 67.1145 6.69317C67.0916 6.67249 67.0862 6.6452 67.1008 6.62128C67.9812 5.16804 69.8598 4.23755 72.2758 4.05078C72.0265 3.8935 71.5618 3.66579 70.8686 3.66579C70.2086 3.66579 69.4697 3.87002 68.6726 4.27276C67.81 4.70852 66.9979 4.92947 66.2588 4.92947C65.1895 4.92947 64.539 4.46438 64.2867 4.02906C63.8594 3.29239 63.2915 2.62791 61.0644 2.59372C59.0202 2.56452 57.2593 3.30604 56.9567 3.44161V8.32483C57.6314 8.07893 60.2007 7.1769 61.689 7.14052C61.7175 7.13978 61.7451 7.13934 61.7728 7.13934Z" fill="#F28721"/>
<g opacity="0.5">
<path d="M65.5156 7.69419C64.8869 6.71103 64.9108 5.62664 64.9937 4.56352C64.7122 4.40976 64.5088 4.21022 64.388 4.00217C64.2488 3.76141 64.0919 3.52446 63.8659 3.31274C64.4026 4.03108 62.764 5.94648 63.2293 8.00156C63.2315 8.01198 63.2352 8.02269 63.2374 8.03325C63.3266 8.22296 63.3829 8.4112 63.4504 8.55454C63.8022 9.29562 64.5051 9.26055 66.4585 9.11941C66.7559 9.09799 67.0459 9.06336 67.3277 9.01891C66.5053 8.82289 65.8737 8.2545 65.5156 7.69419Z" fill="#F7A51C"/>
</g>
<path opacity="0.6" d="M59.297 2.82621C59.297 2.82621 61.9797 2.49683 63.2034 3.17892C64.4272 3.86116 62.9685 4.94321 62.8636 6.61374C62.8388 7.55464 62.2914 6.84893 62.5516 5.17854C62.7461 3.93349 61.6403 2.82621 59.297 2.82621Z" fill="white"/>
<path d="M62.5079 3.10826C62.5079 3.10826 63.4854 3.25175 63.4173 4.03156C63.349 4.81151 61.9858 3.04679 62.5079 3.10826Z" fill="white"/>
<path d="M63.2034 4.70847C63.2034 4.85108 63.1447 4.96684 63.0735 4.96684C63.0009 4.96684 62.943 4.85108 62.943 4.70847C62.943 4.56527 63.0009 4.44922 63.0735 4.44922C63.1447 4.44922 63.2034 4.56527 63.2034 4.70847Z" fill="white"/>
<path d="M56.7309 10.5155C56.5414 10.5155 56.3887 10.4123 56.3887 10.2847V3.81748C56.3887 3.68998 56.5414 3.58655 56.7309 3.58655C56.9195 3.58655 57.0731 3.68998 57.0731 3.81748V10.2847C57.0731 10.4123 56.9195 10.5155 56.7309 10.5155Z" fill="#FE0000"/>
<path d="M56.7309 10.5888C56.482 10.5888 56.2799 10.4524 56.2799 10.2847V3.81748C56.2799 3.64963 56.4822 3.51318 56.7309 3.51318C56.9796 3.51318 57.1819 3.64978 57.1819 3.81748V10.2847C57.1819 10.4524 56.9796 10.5888 56.7309 10.5888ZM56.7309 3.65976C56.6021 3.65976 56.4974 3.73062 56.4974 3.81733V10.2845C56.4974 10.3715 56.6021 10.4419 56.7309 10.4419C56.8597 10.4419 56.9643 10.3715 56.9643 10.2845V3.81748C56.9643 3.73062 56.8595 3.65976 56.7309 3.65976Z" fill="#AA3028"/>
<g opacity="0.5">
<path d="M56.7215 9.52115C56.7215 8.84742 56.7215 4.86329 56.7215 4.40142C56.7215 4.16608 56.8988 4.04079 57.0731 3.97447V3.81748C57.0731 3.68998 56.9195 3.58655 56.7309 3.58655C56.5414 3.58655 56.3887 3.68998 56.3887 3.81748V10.2847C56.3887 10.4123 56.5414 10.5155 56.7309 10.5155C56.9195 10.5155 57.0731 10.4123 57.0731 10.2847V10.2398C56.7835 10.2025 56.7215 10.021 56.7215 9.52115Z" fill="#7D8082"/>
</g>
<path d="M58.0634 2.86806C58.0634 3.36426 57.4662 3.76612 56.7309 3.76612C55.9956 3.76612 55.3994 3.36426 55.3994 2.86806C55.3994 2.372 55.9956 1.96985 56.7309 1.96985C57.4662 1.96985 58.0634 2.372 58.0634 2.86806Z" fill="#7D7E81"/>
<path d="M56.7309 3.83947C55.9368 3.83947 55.2907 3.40372 55.2907 2.86805C55.2907 2.33238 55.9368 1.89648 56.7309 1.89648C57.5256 1.89648 58.1722 2.33238 58.1722 2.86805C58.1722 3.40372 57.5256 3.83947 56.7309 3.83947ZM56.7309 2.0432C56.0567 2.0432 55.5082 2.41323 55.5082 2.86805C55.5082 3.32288 56.0567 3.69275 56.7309 3.69275C57.4058 3.69275 57.9547 3.32288 57.9547 2.86805C57.9547 2.41323 57.4055 2.0432 56.7309 2.0432Z" fill="#4B4D4F"/>
<path d="M57.7736 2.75625C57.7736 3.07609 57.3015 3.3352 56.7205 3.3352C56.1396 3.3352 55.6686 3.07594 55.6686 2.75625C55.6686 2.43611 56.1396 2.177 56.7205 2.177C57.3015 2.177 57.7736 2.43611 57.7736 2.75625Z" fill="#7D7E81"/>
<path d="M56.1304 2.40807C56.0164 2.5118 56.0179 2.64238 56.1335 2.69975C56.2483 2.75726 56.4344 2.71985 56.5477 2.61612C56.6613 2.51239 56.6597 2.38196 56.544 2.32444C56.4291 2.26693 56.2436 2.30449 56.1304 2.40807Z" fill="white"/>
<path d="M55.9627 2.81886C55.929 2.86743 55.9457 2.92069 55.9997 2.93771C56.0536 2.95487 56.1248 2.92905 56.1594 2.88048C56.1929 2.83163 56.1759 2.77837 56.1211 2.7615C56.0676 2.74448 55.9964 2.77001 55.9627 2.81886Z" fill="white"/>
<path d="M54.4026 13.6813C54.4082 13.6827 54.4137 13.6842 54.4187 13.6855C56.1463 13.948 58.405 13.8148 59.4247 13.6299C58.1193 10.8033 57.164 8.47557 56.8688 7.57472C56.8538 7.51472 56.8373 7.45544 56.8223 7.39514C56.8207 7.40042 56.8188 7.40659 56.817 7.41187C56.8153 7.40659 56.8133 7.40042 56.812 7.39514C56.797 7.45544 56.7805 7.51457 56.7655 7.57472C56.4674 8.48379 55.597 10.7807 54.2708 13.644C54.3127 13.6578 54.3571 13.6698 54.4026 13.6813Z" fill="#0073BA"/>
<path d="M56.6441 13.9059C55.8137 13.9059 55.0357 13.8546 54.395 13.7572C54.3898 13.7563 54.3682 13.7509 54.3634 13.7495C54.3162 13.7378 54.2686 13.7247 54.2238 13.7101C54.1748 13.6944 54.1507 13.657 54.1668 13.622C55.5326 10.6727 56.3943 8.36631 56.6591 7.55877L56.7046 7.383C56.7133 7.34808 56.7581 7.32241 56.8105 7.32182C56.8331 7.31947 56.8601 7.32754 56.8795 7.33781C56.9052 7.34676 56.9241 7.36187 56.9293 7.383L56.9759 7.56258C57.2576 8.42177 58.1774 10.683 59.5282 13.6081C59.5369 13.627 59.5339 13.6479 59.5198 13.6653C59.5054 13.6828 59.481 13.6955 59.4525 13.7007C58.7657 13.8254 57.6631 13.9059 56.6441 13.9059ZM54.4037 13.6031C54.4159 13.6062 54.4281 13.6094 54.4405 13.6125C55.0683 13.709 55.8296 13.7592 56.6441 13.7592C57.5926 13.7592 58.6121 13.6888 59.2868 13.5782C58.0293 10.8507 57.1499 8.70816 56.817 7.75215C56.5016 8.67735 55.6718 10.8588 54.4037 13.6031Z" fill="#005483"/>
<path d="M58.0695 13.7836C58.6138 13.7461 59.0879 13.691 59.4249 13.6299C58.2203 11.0214 57.2128 8.52312 56.8479 7.4939C56.8538 7.72292 57.9346 12.7681 58.0695 13.7836Z" fill="#7D8082"/>
<path opacity="0.6" d="M56.3462 9.36108C56.1918 9.95471 55.4865 12.6706 55.2826 13.4338C55.5781 13.4567 55.8789 13.4708 56.1796 13.478C56.2103 12.8522 56.2192 10.482 56.284 9.92433C56.306 9.73639 56.3299 9.54874 56.3462 9.36108Z" fill="white"/>
<path opacity="0.5" d="M12.3951 43.6694C12.3951 43.6694 49.9544 47.3193 96.0931 43.9668C96.1636 43.9618 96.2343 43.9566 96.3052 43.9516C96.3052 43.9516 77.2089 44.886 56.3465 44.984C40.0421 45.0606 22.6758 44.4444 12.3951 43.6694Z" fill="white"/>
</svg>
